<?xml version="1.0" standalone="no"?>
<!DOCTYPE svg PUBLIC "-//W3C//DTD SVG 1.1//EN" "http://www.w3.org/Graphics/SVG/1.1/DTD/svg11.dtd" >
<svg xmlns="http://www.w3.org/2000/svg">
<metadata>
Created by FontPrep 20130207 at Thu Jul 13 19:15:00 2017
 By Martin Campillo
Copyright 2003, 2008 B. Jackowski and J. M. Nowacki (on behalf of TeX users groups). This work is released under the GUST Font License --  see http://tug.org/fonts/licenses/GUST-FONT-LICENSE.txt for details.
</metadata>
<defs>
<font id="ae47d3b5ed9167690ad7e7201a66d0e3" horiz-adv-x='1024' >
  <font-face 
    font-family="LMMonoLt10-Regular"
    font-weight="400"
    font-stretch="normal"
    units-per-em="2048"
    panose-1="0 0 5 9 0 0 0 0 0 0"
    ascent="1577"
    descent="-471"
    x-height="870"
    cap-height="1251"
    bbox="-915.015 -670 1509 2019.02"
    underline-thickness="102"
    underline-position="-252"
    unicode-range="U+0020-F7A2"
  />
<missing-glyph horiz-adv-x="573" 
 />
    <glyph glyph-name=".notdef" horiz-adv-x="573" 
 />
    <glyph glyph-name=".null" horiz-adv-x="0" 
 />
    <glyph glyph-name="nonmarkingreturn" horiz-adv-x="681" 
 />
    <glyph glyph-name="space" unicode=" " 
 />
    <glyph glyph-name="exclam" unicode="!" 
d="M537 170q35 0 59 -24t25 -61q0 -37 -25 -61q-26 -24 -60 -24t-59 25t-25 61t26 60q24 24 59 24zM528 389q-52 0 -55 35l-20 752q0 42 23 70t49 28t41 -5t35 -29t20 -64l-19 -705q-4 -53 -13 -67t-61 -15z" />
    <glyph glyph-name="quotedbl" unicode="&#x22;" 
d="M726 1274q24 0 50 -20t21 -72l-27 -432q-4 -55 -45 -56q-41 0 -47 58l-27 430q-4 48 23 70q28 22 52 22zM350 1274q24 0 50 -20t22 -72l-27 -432q-4 -55 -45 -56q-41 0 -47 58l-27 430q-4 48 23 70t51 22z" />
    <glyph glyph-name="numbersign" unicode="#" 
d="M690 803h-262l-43 -352h262zM995 398q0 -52 -77 -52h-181l-35 -276q-14 -70 -55 -70q-25 0 -39 16t-14 37l37 293h-260l-37 -276q-14 -70 -55 -70q-23 0 -38 16t-16 37l37 293h-106q-78 0 -78 52t78 53h123l43 352h-166q-78 0 -78 53t78 53h182l33 275q8 68 55 67
q23 0 40 -17t11 -58l-33 -267h263l32 275q8 68 56 67q23 0 40 -17t11 -58l-33 -267h105q78 0 77 -53q0 -53 -77 -53h-121l-43 -352h164q77 -1 77 -53z" />
    <glyph glyph-name="dollar" unicode="$" 
d="M854 332q0 90 -72 162t-200 96v-514q124 22 198 94t74 162zM219 943q0 -85 77 -146t198 -84v465q-125 -20 -200 -85t-75 -150zM582 -111q0 -66 -43 -65q-45 0 -45 65v99q-178 18 -274 113q-95 95 -95 229q0 34 19 60t51 26q33 0 55 -22t22 -58t-39 -60q51 -174 261 -200
v532q-100 18 -174 56t-110 74q-84 87 -85 201q0 114 99 209t270 114v100q0 66 45 65q43 0 43 -65v-98q180 -16 273 -106t93 -212q0 -43 -22 -62q-22 -20 -54 -20q-31 0 -51 22t-20 54t35 57q-47 152 -254 179v-482q108 -20 186 -64t114 -98q66 -100 66 -206q0 -105 -92 -207
t-274 -131v-99z" />
    <glyph glyph-name="percent" unicode="%" 
d="M833 -86q27 0 57 48t30 123t-30 123t-58 48t-57 -48q-30 -48 -30 -123t30 -123t58 -48zM241 993q27 0 57 49t30 122t-30 123t-58 50t-58 -50q-28 -50 -28 -123t30 -122t57 -49zM834 346q72 0 116 -76t45 -185q0 -109 -45 -185q-44 -76 -116 -76t-118 76t-46 184t46 186
q46 76 118 76zM834 1427q20 -1 36 -17t17 -31q0 -15 -13 -44l-585 -1476q-18 -35 -45 -35t-48 22t3 70l577 1458q20 53 58 53zM403 1166q0 -112 -46 -188q-47 -76 -117 -75q-70 0 -116 76q-46 77 -46 187t46 186t116 76t116 -76q46 -74 47 -186z" />
    <glyph glyph-name="ampersand" unicode="&#x26;" 
d="M514 207q-47 68 -100 164q-61 98 -99 180q-100 -111 -125 -155q-24 -44 -24 -117t34 -145t103 -71q109 1 211 144zM518 1006q0 46 -22 114t-73 68q-50 0 -88 -51t-38 -163t45 -267q176 197 176 299zM934 870q63 0 63 -43t-63 -43h-80l-131 -344q-63 -147 -115 -233
q35 -47 91 -95t112 -49q92 0 107 154q4 33 36 33q37 -2 37 -49q0 -82 -47 -153t-133 -71q-51 0 -105 32t-79 58t-64 70q-129 -160 -262 -160q-109 0 -175 86t-65 206q0 120 76 214l146 158q-61 185 -61 335t58 224q60 74 132 74t112 -44q70 -75 70 -232q0 -156 -217 -384
q37 -100 182 -340q78 150 213 510q-37 0 -52 1q-16 1 -30 11t-14 31q0 43 63 43h195z" />
    <glyph glyph-name="quotesingle" unicode="'" 
d="M539 1274q25 0 50 -20t21 -72l-26 -432q-4 -55 -45 -56q-41 0 -47 58l-27 430q-3 48 23 70t51 22z" />
    <glyph glyph-name="parenleft" unicode="(" 
d="M887 -135q0 -39 -52 -39q-32 0 -127 80t-171 184q-168 244 -168 537q0 147 43 283q71 223 237 385q70 69 121 101t74 32t33 -13q10 -12 10 -29t-41 -43q-199 -135 -286 -329t-87 -392q0 -196 90 -389t279 -321q45 -27 45 -47z" />
    <glyph glyph-name="parenright" unicode=")" 
d="M707 627q0 -147 -43 -283q-44 -136 -106 -227q-62 -90 -132 -159q-70 -68 -121 -100t-73 -32t-32 13t-12 29q0 16 72 64q72 50 151 142q130 155 174 376q17 89 17 168q0 155 -60 333q-36 107 -123 215t-214 194q-32 24 -5 54q12 13 42 13t126 -79q95 -80 171 -185
q168 -243 168 -536z" />
    <glyph glyph-name="asterisk" unicode="*" 
d="M926 430q0 -16 -14 -32t-30 -15q-17 0 -73 31l-223 131v-287q0 -68 -49 -68t-50 68v289l-282 -164q-57 2 -58 49q0 29 41 51l265 144l-267 143q-39 23 -39 45q-1 21 13 37t30 16t19 -2l280 -164l-2 291q-1 68 49 68t50 -68l-2 -288l284 163q57 -2 58 -49q0 -29 -41 -51
l-264 -143l290 -156q15 -23 15 -39z" />
    <glyph glyph-name="plus" unicode="+" 
d="M989 627q0 -53 -78 -54h-321v-323q0 -78 -53 -78t-54 78v323h-321q-78 -1 -78 53t78 54h321v324q0 78 54 77q53 0 53 -77v-324h321q78 0 78 -53z" />
    <glyph glyph-name="comma" unicode="," 
d="M440 -295q-56 0 -55 49q0 21 29 33q77 23 126 79q50 56 60 114l2 40q-22 -20 -66 -20t-77 32t-33 79t31 79t88 33q57 0 102 -53t45 -145t-54 -172t-112 -114t-86 -34z" />
    <glyph glyph-name="hyphen" unicode="-" 
d="M952 627q0 -53 -80 -54h-671q-80 -1 -80 53t80 54h671q80 0 80 -53z" />
    <glyph glyph-name="period" unicode="." 
d="M426 111q0 45 32 79t79 33t79 -33t33 -77q0 -45 -32 -79q-33 -34 -79 -34t-79 33t-33 78z" />
    <glyph glyph-name="slash" unicode="/" 
d="M948 1382q0 -12 -16 -51l-699 -1460q-25 -47 -51 -47t-42 16q-15 16 -15 30t16 48l699 1462q0 5 14 26t37 21q24 0 41 -16q16 -17 16 -29z" />
    <glyph glyph-name="zero" unicode="0" 
d="M860 643q0 241 -98 393t-226 152t-226 -153t-97 -393q0 -240 96 -409q95 -170 227 -170t228 170t96 410zM965 628q0 -276 -127 -464q-127 -186 -301 -186t-301 184q-127 186 -127 462t127 463t301 187t301 -185t127 -461z" />
    <glyph glyph-name="one" unicode="1" 
d="M897 43q0 -43 -63 -43h-533q-63 0 -63 43t63 43h215v963q-137 -119 -242 -119q-49 0 -49 43q0 33 37 41q180 23 277 235q10 25 39 25q41 0 40 -66v-1122h216q63 0 63 -43z" />
    <glyph glyph-name="two" unicode="2" 
d="M961 66q-1 -38 -13 -52t-51 -14h-719q-66 0 -65 45q0 20 24 41l467 393q252 209 252 404q0 141 -105 223t-253 82q-94 0 -169 -51t-104 -142q35 -27 35 -59t-22 -53t-51 -21q-27 0 -51 20t-23 60q0 133 112 233q113 99 294 99t311 -108t130 -290t-184 -364
q-74 -68 -257 -220t-245 -206h582q0 41 2 57q5 43 51 43q25 0 38 -14t14 -51v-55z" />
    <glyph glyph-name="three" unicode="3" 
d="M977 348q0 -147 -123 -259t-313 -112t-318 79q-127 79 -127 210q0 37 22 59q22 21 52 21t51 -22t21 -52q0 -31 -31 -61q45 -80 142 -114t188 -34q147 -1 239 87t92 198t-90 197q-90 88 -247 88h-99q-63 0 -63 45q0 27 24 35q25 8 104 13t122 16t92 53q96 78 96 200
q0 81 -77 137t-193 56q-178 0 -265 -86q27 -29 27 -60q1 -30 -21 -52t-51 -22t-51 21q-22 20 -22 60q0 104 101 164q101 61 275 61t277 -81q104 -81 104 -196q0 -186 -200 -315q262 -119 262 -334z" />
    <glyph glyph-name="four" unicode="4" 
d="M682 444v746h-55l-473 -746h528zM946 444q64 0 64 -43t-64 -43h-186v-272h151q63 0 64 -43q0 -43 -64 -43h-381q-63 0 -63 43t63 43h152v272h-555q-37 0 -50 12t-13 50q0 37 8 51l491 770q15 25 27 30t45 5h57q41 0 54 -12t14 -54v-766h186z" />
    <glyph glyph-name="five" unicode="5" 
d="M961 377q-1 -164 -133 -282t-310 -118q-178 1 -292 89t-113 213q0 43 23 62q24 19 52 19t50 -20q54 -47 -11 -119q45 -90 126 -124t155 -34q144 1 246 93t102 219t-79 223t-212 96q-186 0 -291 -125q-12 -12 -38 -12q-47 0 -48 66v563q0 39 12 52t52 13h571q63 0 64 -45
q0 -41 -64 -41h-530v-458q137 74 274 73q172 0 283 -120t111 -283z" />
    <glyph glyph-name="six" unicode="6" 
d="M541 63q127 -1 220 91t93 228t-85 230t-217 94t-222 -75q-90 -76 -90 -168t18 -152q80 -248 283 -248zM557 797q169 0 285 -119t116 -293t-124 -291t-296 -117q-173 0 -298 152t-125 466q0 315 165 497t382 182q132 0 196 -57t64 -140q0 -37 -20 -57t-53 -20
q-32 0 -52 20q-21 20 -21 52t29 61q-55 55 -146 55q-159 0 -287 -144t-155 -403q172 156 340 156z" />
    <glyph glyph-name="seven" unicode="7" 
d="M96 1219q0 67 51 67q39 0 54 -35h712q64 0 64 -45q0 -14 -8 -24q-502 -489 -502 -1147q-2 -57 -51 -58q-54 0 -54 89q-1 196 83 469q45 149 145 315t239 315h-628q0 -41 -2 -57q-5 -43 -54 -43t-49 65v89z" />
    <glyph glyph-name="eight" unicode="8" 
d="M872 345q0 114 -93 197t-243 83t-242 -83q-93 -83 -93 -197t97 -198q96 -84 238 -84t239 84t97 198zM536 1188q-130 0 -218 -71t-89 -164q0 -93 90 -159q89 -66 217 -65t218 65t90 158t-89 165t-219 71zM977 348q0 -150 -127 -260t-313 -111q-186 0 -314 111
q-127 111 -127 260q0 240 305 326q-158 51 -217 120t-59 162q0 126 119 222t293 96q175 0 293 -95t118 -223q0 -94 -58 -162t-216 -120q303 -88 303 -326z" />
    <glyph glyph-name="nine" unicode="9" 
d="M538 1188q-124 0 -222 -91t-97 -227q0 -136 85 -231q85 -94 220 -94t224 79q88 79 88 179l-7 80q1 23 -23 91t-63 116q-81 98 -205 98zM958 639q0 -293 -154 -477t-375 -184q-220 0 -267 138q-10 30 -10 62t20 52q20 22 52 22t52 -20q47 -48 -6 -115q72 -53 168 -54
q162 0 279 151t137 394q-170 -154 -338 -154t-285 120q-117 118 -117 293t129 291q128 116 293 116t286 -132q62 -69 99 -198t37 -305z" />
    <glyph glyph-name="colon" unicode=":" 
d="M426 111q0 45 32 79t79 33t79 -33t33 -77q0 -45 -32 -79q-33 -34 -79 -34t-79 33t-33 78zM649 760q0 -45 -32 -79q-33 -34 -79 -34t-79 33t-33 78t32 79q32 33 79 33t79 -32t33 -78z" />
    <glyph glyph-name="semicolon" unicode=";" 
d="M659 37q0 -143 -88 -237t-141 -95q-18 0 -32 14q-13 15 -13 33t23 33q93 52 131 124q20 40 32 91q-77 0 -111 33t-34 79t32 78t83 33q51 0 85 -48t33 -138zM649 760q0 -45 -32 -79q-33 -34 -79 -34t-79 33t-33 78t32 79q32 33 79 33t79 -32t33 -78z" />
    <glyph glyph-name="less" unicode="&#x3c;" 
d="M952 174q0 -27 -16 -41t-36 -14t-46 18l-704 443q-29 20 -29 49t37 49l696 438q49 33 82 4q16 -14 16 -41t-41 -51l-637 -401l637 -402q41 -24 41 -51z" />
    <glyph glyph-name="equal" unicode="=" 
d="M915 518q74 0 74 -52t-86 -52h-733q-86 0 -86 52t74 52h757zM989 787q0 -52 -74 -52h-757q-74 0 -74 52t86 53h733q86 -1 86 -53z" />
    <glyph glyph-name="greater" unicode="&#x3e;" 
d="M952 625q0 -29 -37 -50l-698 -438q-25 -18 -44 -18t-36 14q-16 14 -16 41t41 51l637 402l-637 401q-41 26 -41 52t16 40q34 30 82 -4l705 -442q28 -20 28 -49z" />
    <glyph glyph-name="question" unicode="?" 
d="M505 170q37 0 61 -24t24 -61t-25 -61t-61 -24t-60 25t-24 61t24 60t61 24zM938 1022q0 -117 -127 -186q-244 -131 -244 -347v-36q0 -39 -13 -51t-54 -13t-50 17q-10 18 -10 68q-2 183 128 308q67 63 169 121q99 51 99 115t-79 112t-249 48t-256 -95q29 -35 29 -65
t-22 -49q-23 -21 -51 -21t-50 20t-23 58q0 96 93 167t288 71q326 0 407 -172q15 -35 15 -70z" />
    <glyph glyph-name="at" unicode="@" 
d="M901 626q0 134 -64 224q-65 90 -145 90t-144 -89t-65 -223t63 -226t145 -91q81 0 146 90q64 91 64 225zM977 147q0 -47 -112 -103t-236 -56q-217 0 -375 184t-158 454t158 454q158 183 371 184q352 0 352 -605q0 -123 -30 -213t-78 -135q-90 -84 -179 -86
q-114 0 -198 114t-84 285q0 170 82 286t202 116q63 0 180 -74q-86 225 -247 226q-177 0 -315 -157t-138 -392t136 -395t319 -160q137 0 250 104q10 8 41 8q59 0 59 -39z" />
    <glyph glyph-name="A" unicode="A" 
d="M702 436l-157 754h-15l-159 -754h331zM1014 43q0 -43 -72 -43h-215q-68 0 -68 43q0 31 25 37t98 6l-57 264h-377l-57 -264q75 0 99 -6t24 -37q0 -43 -68 -43h-217q-70 0 -70 43q0 29 25 41q12 2 98 2l260 1126q14 54 51 62q13 2 45 2t45 -2q31 -5 48 -64l260 -1124
q84 0 96 -2q27 -10 27 -41z" />
    <glyph glyph-name="B" unicode="B" 
d="M877 340q-1 100 -93 184t-233 84h-252v-522h291q137 0 212 77t75 177zM539 694q151 0 223 79t72 164t-58 157t-190 71h-287v-471h240zM981 332q0 -128 -93 -230t-251 -102h-522q-63 0 -64 43q0 43 66 43h80v1079h-80q-66 0 -66 43t64 43h479q156 0 249 -94t93 -213
q0 -203 -262 -291q307 -73 307 -321z" />
    <glyph glyph-name="C" unicode="C" 
d="M985 334q0 -139 -118 -248t-287 -109q-204 1 -348 187t-144 462t144 462t346 186q150 0 280 -113q39 72 43 88q20 25 41 25q43 0 43 -66v-293q0 -23 -2 -33t-14 -20q-13 -12 -35 -12t-35 9t-20 42q-23 133 -105 210t-188 77q-154 0 -275 -161t-121 -401t121 -402
q121 -161 277 -161q96 0 189 66t104 213q4 41 54 41t50 -49z" />
    <glyph glyph-name="D" unicode="D" 
d="M504 86q176 0 278 160t103 371q-1 212 -103 380t-278 168h-223v-1079h223zM545 1251q197 1 319 -189t123 -445q0 -255 -124 -436t-318 -181h-436q-66 0 -66 43t66 43h67v1079h-67q-66 0 -66 43t66 43h436z" />
    <glyph glyph-name="E" unicode="E" 
d="M1024 66q0 -38 -12 -52t-51 -14h-838q-66 0 -66 43t66 43h86v1079h-86q-66 0 -66 43t66 43h790q39 0 51 -13t13 -52v-156q0 -39 -14 -52t-44 -13t-38 17t-9 48v135h-561v-473h322q0 54 2 74t13 34t36 13q51 0 51 -65v-197q0 -39 -13 -52t-43 -13t-38 22q-8 23 -8 98h-322
v-520h609v168q0 39 14 52t44 13t38 -16t8 -49v-188z" />
    <glyph glyph-name="F" unicode="F" 
d="M758 526q0 -65 -51 -65q-37 1 -45 23t-9 98h-329v-496h131q63 0 63 -43t-63 -43h-328q-66 0 -66 43t66 43h92v1079h-92q-66 0 -66 43t66 43h807q41 0 52 -13t11 -52v-156q0 -39 -13 -52t-38 -13q-51 0 -51 65v135h-571v-495h329q0 53 2 73q5 46 52 48q35 1 43 -17t8 -49
v-199z" />
    <glyph glyph-name="G" unicode="G" 
d="M1012 487q0 -35 -46 -43q-17 -2 -55 -2v-376q0 -66 -51 -66q-37 0 -45 24t-8 101q-127 -147 -272 -148q-187 1 -319 187t-132 462t132 461q132 186 319 187q131 0 256 -109q31 70 43 89t34 20q43 0 43 -66v-293q0 -23 -2 -33t-14 -20q-12 -12 -46 -12t-40 33
q-28 179 -120 250q-71 55 -146 55q-137 0 -247 -161t-110 -401t108 -401q108 -162 247 -162q98 1 171 93t93 286h-113q-63 0 -63 43t63 43h254q66 0 66 -41z" />
    <glyph glyph-name="H" unicode="H" 
d="M1024 43q0 -43 -63 -43h-252q-63 0 -64 45q0 41 64 41h73v522h-491v-522h74q63 0 63 -43t-63 -43h-252q-63 0 -64 43q0 43 64 43h73v1079h-73q-63 0 -64 41q0 45 64 45h252q63 0 63 -43t-63 -43h-74v-471h491v471h-73q-63 0 -64 43q0 43 64 43h252q63 0 63 -43t-63 -43
h-74v-1079h74q63 0 63 -43z" />
    <glyph glyph-name="I" unicode="I" 
d="M905 43q0 -43 -65 -43h-604q-66 0 -66 43t66 43h249v1079h-249q-66 0 -66 43t66 43h604q66 0 65 -45q0 -41 -65 -41h-250v-1079h250q65 0 65 -43z" />
    <glyph glyph-name="J" unicode="J" 
d="M973 1208q0 -43 -66 -43h-84v-903q0 -129 -100 -207q-99 -78 -243 -78q-144 1 -235 59t-91 152q0 37 21 58q23 20 53 20t51 -21q20 -23 20 -49t-25 -59q82 -74 209 -74q57 1 118 25q118 48 118 186v891h-195q-66 0 -65 43q0 43 65 43h383q66 0 66 -43z" />
    <glyph glyph-name="K" unicode="K" 
d="M1010 43q0 -43 -68 -43h-158q-66 0 -65 45q0 29 22 35q23 6 78 6l-330 590l-221 -279v-311h68q66 0 65 -43q0 -43 -65 -43h-213q-66 0 -66 43t66 43h63v1079h-63q-66 0 -66 43t66 43h213q66 0 65 -45q0 -41 -65 -41h-68v-645l512 645q-90 0 -103 18q-7 9 -7 23
q0 45 65 45h187q66 0 65 -43q0 -34 -47 -41q-18 -2 -61 -2l-338 -426l366 -653q69 0 86 -12t17 -31z" />
    <glyph glyph-name="L" unicode="L" 
d="M993 66q0 -38 -12 -52t-51 -14h-795q-63 0 -63 43t63 43h98v1079h-98q-63 0 -63 43t63 43h342q66 0 66 -43t-66 -43h-139v-1079h553v168q0 39 13 52t43 13t38 -16t8 -49v-188z" />
    <glyph glyph-name="M" unicode="M" 
d="M1034 43q0 -43 -63 -43h-174q-63 0 -64 43q0 33 29 38t84 5v1079h-15l-227 -698q-10 -35 -64 -35t-65 27l-231 706h-15v-1079q92 0 101 -13q10 -13 10 -30q0 -43 -64 -43h-174q-63 0 -63 43q0 33 29 38t84 5v1079q-94 -1 -104 13q-9 14 -9 30q0 43 63 43h119q78 0 90 -37
l224 -696h4l213 664q12 37 31 53t69 16h119q63 0 63 -43q0 -31 -28 -37t-84 -6v-1079q95 0 103 -14q9 -14 9 -29z" />
    <glyph glyph-name="N" unicode="N" 
d="M948 1251q64 0 64 -43t-64 -43h-76v-1099q0 -42 -13 -54t-58 -12t-66 16q-20 16 -30 45l-410 1104h-19v-1079h74q63 0 64 -43q0 -43 -64 -43h-225q-63 0 -64 45q0 41 64 41h76v1079h-76q-63 0 -64 43q0 43 64 43h145q50 0 69 -17t30 -44l409 -1104h19v1079h-74
q-63 0 -64 41q0 45 64 45h225z" />
    <glyph glyph-name="O" unicode="O" 
d="M532 1188q-140 0 -200 -34t-84 -133q-23 -99 -23 -390q-1 -291 23 -391t84 -139q60 -38 207 -38q149 0 207 40q58 39 80 147t22 397t-26 385t-88 126t-202 30zM931 1034q21 -100 21 -371q0 -273 -12 -387t-34 -155t-48 -74t-76 -45q-156 -38 -371 -21q-116 7 -171 45
q-27 17 -58 65t-46 169t-15 304q0 182 3 310q7 280 116 352q57 36 139 42t171 6t149 -6q59 -6 111 -33t76 -64t45 -137z" />
    <glyph glyph-name="P" unicode="P" 
d="M872 885q0 104 -81 192q-82 88 -234 88h-246v-559h246q152 0 234 87q81 88 81 192zM598 1251q166 -1 272 -111t107 -256t-105 -256t-274 -110h-287v-432h86q66 0 66 -43t-66 -43h-274q-66 0 -66 43t66 43h86v1079h-86q-66 0 -66 43t66 43h475z" />
    <glyph glyph-name="Q" unicode="Q" 
d="M848 650q0 238 -20 348t-78 150q-59 40 -212 40t-210 -38t-80 -139t-23 -373q-1 -272 19 -380q20 -106 75 -150t201 -45h103l-119 230l-2 8q0 18 47 18h24q23 0 29 -3t16 -19l113 -205q43 29 63 59q18 29 36 145t18 354zM952 586q0 -199 -13 -318t-46 -178t-113 -92
l80 -148q63 -121 64 -124q0 -20 -47 -21h-19q-45 0 -55 16l-135 259q-335 -18 -428 46q-27 17 -58 65t-46 169t-15 304q0 182 3 310q7 280 116 352q57 36 139 42t171 6t149 -6q59 -6 111 -33t76 -64t41 -117t21 -175q4 -94 4 -293z" />
    <glyph glyph-name="R" unicode="R" 
d="M465 670q145 0 227 77t82 170t-82 171t-227 77h-174v-495h174zM1065 176q0 -68 -41 -134t-129 -65q-88 0 -137 78q-29 49 -35 101t-6 150t-9 138t-44 74q-74 63 -187 64h-186v-496h74q63 0 63 -43t-63 -43h-252q-63 0 -64 43q0 43 64 43h73v1079h-73q-63 0 -64 41
q0 45 64 45h374q170 0 280 -99t110 -234q0 -182 -197 -293q94 -73 118 -129t23 -201q0 -231 80 -232q29 1 45 45t17 72q2 43 52 43t50 -47z" />
    <glyph glyph-name="S" unicode="S" 
d="M961 326q1 -136 -105 -242t-272 -107q-215 0 -363 111q-17 -70 -29 -90t-36 -21q-43 0 -43 66v279q0 65 53 65q41 0 47 -28q2 -9 4 -25q6 -135 109 -201q102 -70 244 -70t218 79t76 177q0 205 -252 261l-241 57q-121 35 -190 121t-69 204t106 214q105 98 273 98t304 -115
q18 71 29 93t36 22q43 0 43 -66v-278q0 -39 -14 -52q-14 -14 -47 -14t-41 31q-31 151 -99 215q-31 30 -88 54t-131 24q-119 0 -197 -70t-77 -155q0 -85 53 -144t131 -82l172 -39q135 -30 187 -52t112 -79q97 -104 97 -241z" />
    <glyph glyph-name="T" unicode="T" 
d="M963 965q-52 0 -52 65v135h-321v-1079h131q63 0 63 -43t-63 -43h-367q-63 0 -63 43t63 43h131v1079h-323v-135q0 -40 -14 -52q-14 -13 -44 -13t-38 17t-9 48v156q-1 39 13 52t53 13h829q40 0 52 -13t12 -52v-156q0 -40 -14 -52q-14 -13 -39 -13z" />
    <glyph glyph-name="U" unicode="U" 
d="M1061 1208q0 -43 -66 -43h-84v-753q0 -182 -110 -309q-111 -126 -265 -126t-264 126q-111 126 -110 309v753h-84q-66 0 -66 43t66 43h272q66 0 66 -43t-66 -43h-84v-743q0 -170 84 -264t186 -94t187 94q84 94 84 264v743h-84q-66 0 -66 43t66 43h272q66 0 66 -43z" />
    <glyph glyph-name="V" unicode="V" 
d="M1032 1208q0 -31 -30 -37t-87 -6l-282 -1120q-7 -29 -23 -43t-29 -16t-44 -2t-45 2q-36 5 -52 61l-282 1118q-98 -1 -108 13q-9 14 -9 30q0 43 65 43h218q66 0 65 -43q1 -31 -25 -37t-100 -6l266 -1097l15 2l264 1095q-73 0 -99 6t-26 37q0 43 66 43h217q65 0 65 -43z
" />
    <glyph glyph-name="W" unicode="W" 
d="M981 1251q66 0 66 -43t-78 -43l-154 -1126q-7 -55 -71 -55t-72 36l-133 619l-140 -627q-17 -28 -75 -28t-66 55l-154 1126h-20q-57 0 -57 43t65 43h168q63 0 64 -45q0 -41 -64 -41h-70l138 -1095h8l133 632q9 33 69 33t68 -35l129 -630h8l140 1095h-70q-63 0 -63 43
t63 43h168z" />
    <glyph glyph-name="X" unicode="X" 
d="M1012 43q0 -43 -66 -43h-221q-63 0 -63 43q0 36 47 41q18 2 61 2l-246 481l-227 -481q95 0 103 -13q9 -13 10 -30q0 -43 -66 -43h-221q-63 0 -64 43q0 43 64 43h59l293 582l-264 497h-61q-66 0 -66 43t66 43h219q63 0 63 -43q0 -33 -46 -41q-17 -2 -58 -2l198 -379
l185 379q-92 -1 -102 13q-9 14 -9 30q0 43 64 43h221q66 0 65 -45q0 -41 -65 -41h-62l-250 -495l312 -584h61q66 0 66 -43z" />
    <glyph glyph-name="Y" unicode="Y" 
d="M967 1251q63 0 63 -43t-63 -43h-58l-319 -665v-414h74q63 0 63 -43t-63 -43h-252q-63 0 -64 45q0 41 64 41h73v414l-321 665h-58q-63 0 -63 43t63 43h222q63 0 63 -43q0 -31 -28 -37t-82 -6l258 -573l252 573q-73 -1 -91 11t-18 32q0 43 63 43h222z" />
    <glyph glyph-name="Z" unicode="Z" 
d="M979 66q0 -38 -12 -52t-52 -14h-745q-64 0 -66 51q0 27 19 53l719 1061h-609v-135q0 -39 -14 -52t-39 -13q-51 0 -51 65v156q0 39 13 52t55 13h706q64 0 66 -51q0 -27 -19 -53l-719 -1061h643v174q0 38 14 52t45 14q30 0 38 -18t8 -48v-194z" />
    <glyph glyph-name="bracketleft" unicode="[" 
d="M920 -88q63 0 63 -44t-63 -44h-383q-39 0 -52 13q-12 13 -12 52v1473q0 39 12 52t52 13h383q63 0 63 -44t-63 -44h-342v-1427h342z" />
    <glyph glyph-name="backslash" unicode="\" 
d="M948 -125q0 -19 -16 -35t-43 -16t-49 45l-701 1464q-14 25 -14 43t15 34t43 17q28 0 50 -45l701 -1464q14 -25 14 -43z" />
    <glyph glyph-name="bracketright" unicode="]" 
d="M600 -111q0 -39 -12 -52t-51 -13h-383q-63 0 -64 45q0 43 64 43h342v1427h-342q-63 0 -64 45q0 43 64 43h383q39 0 51 -13t12 -52v-1473z" />
    <glyph glyph-name="asciicircum" unicode="^" 
d="M924 1075q0 -43 -50 -43q-16 0 -61 21l-281 123l-280 -123q-45 -20 -62 -21q-49 0 -49 43q0 23 45 45l301 144q45 20 91 0l301 -144q45 -22 45 -45z" />
    <glyph glyph-name="underscore" unicode="_" 
d="M952 -313q0 -53 -80 -54h-671q-80 -1 -80 53t80 54h671q80 0 80 -53z" />
    <glyph glyph-name="grave" unicode="`" 
d="M739 1098q0 -18 -11 -41q-12 -23 -30 -23t-22 2l-295 131q-47 19 -47 49q0 58 53 58q12 0 31 -8l282 -127q39 -16 39 -41z" />
    <glyph glyph-name="a" unicode="a" 
d="M754 262v201q-250 -7 -390 -67t-141 -146q0 -72 67 -124q66 -52 178 -52t191 39q45 20 67 47t25 46t3 56zM1071 45q0 -19 -14 -31q-15 -12 -29 -13t-54 -1t-71 2t-74 20t-67 54q-136 -88 -298 -88t-254 78q-91 78 -91 184q0 141 170 216t465 79q0 258 -291 258
q-141 0 -141 -47q-2 -40 -26 -58t-52 -18t-48 20q-22 20 -22 56q0 133 287 133q199 0 298 -92t99 -215v-471q66 -25 140 -25t73 -41z" />
    <glyph glyph-name="b" unicode="b" 
d="M891 432q0 152 -88 258t-205 106t-202 -78q-85 -79 -85 -179v-156q0 -101 71 -205q72 -104 194 -104t219 103q96 103 96 255zM993 434q0 -186 -123 -316t-290 -130q-131 0 -269 139q0 -79 -7 -103t-47 -24t-46 34q-2 11 -2 32v1099h-117q-63 0 -63 43t65 43h154
q39 0 51 -13t12 -52v-434q145 131 298 131t269 -131q115 -132 115 -318z" />
    <glyph glyph-name="c" unicode="c" 
d="M948 209q0 -46 -68 -123q-36 -41 -110 -70t-168 -28q-188 0 -316 132t-128 300t102 308q52 71 148 116t219 45q295 0 295 -133q0 -36 -22 -56t-52 -20q-72 0 -72 82q0 16 -52 28t-97 13q-105 0 -183 -41q-78 -42 -114 -104q-65 -112 -68 -222q0 -152 104 -257t236 -105
q131 0 188 63q31 35 62 94q12 16 43 17q53 0 53 -39z" />
    <glyph glyph-name="d" unicode="d" 
d="M762 389v152q0 98 -77 177t-193 79q-116 1 -213 -103t-97 -257t89 -258t211 -105t201 103t79 212zM981 86q63 0 63 -43t-65 -43h-154q-45 0 -54 24t-9 113q-145 -149 -298 -149q-152 0 -268 130t-116 317t122 317t290 131q129 0 270 -121v403h-117q-63 0 -63 43t65 43
h154q39 0 51 -13t12 -52v-1100h117z" />
    <glyph glyph-name="e" unicode="e" 
d="M553 803q-119 0 -210 -86t-118 -228h613q-10 121 -58 195t-104 96q-55 22 -123 23zM119 438q0 186 127 318t311 133q185 0 285 -123t100 -305q0 -49 -31 -55q-10 -2 -32 -3h-656q29 -157 137 -243t240 -86q178 0 246 151q8 23 52 23t44 -45t-80 -123q-38 -39 -112 -66
t-164 -26q-197 0 -332 132t-135 318z" />
    <glyph glyph-name="f" unicode="f" 
d="M887 1159q0 -33 -23 -53q-22 -20 -54 -20t-49 30q-17 31 -18 62q-138 0 -192 -44q-55 -44 -55 -143v-121h280q63 0 64 -45q0 -41 -64 -41h-280v-698h235q66 0 66 -43t-66 -43h-573q-66 0 -66 43t66 43h235v698h-235q-63 0 -64 41q0 45 66 45h233v134q0 124 92 192t220 68
q182 -1 182 -105z" />
    <glyph glyph-name="g" unicode="g" 
d="M537 -399q163 0 277 63t114 136q0 141 -153 180q-117 28 -268 28t-188 -5t-77 -32q-96 -59 -97 -166q0 -78 114 -141t278 -63zM700 563q0 96 -65 166q-66 70 -159 70t-160 -69q-66 -69 -66 -165t66 -166q66 -69 158 -69q93 0 160 68q66 69 66 165zM905 893q65 -1 99 -29
t34 -62t-19 -50q-41 -35 -82 0q-19 16 -28 57q-90 -8 -170 -51q63 -106 64 -193q0 -133 -95 -226t-233 -93q-102 0 -201 63q-45 -114 5 -176q25 -31 39 -37q24 -10 110 -10h150q313 0 398 -157q34 -62 34 -124q0 -127 -138 -209t-336 -81q-198 0 -335 82t-138 208
q0 154 168 256q-59 78 -59 156t47 148q-72 93 -72 211q-1 118 95 212t219 94t221 -67q104 78 223 78z" />
    <glyph glyph-name="h" unicode="h" 
d="M1044 43q0 -43 -63 -43h-324q-66 0 -65 43q0 43 65 43h105v502q0 111 -36 160t-134 49t-190 -79t-91 -235v-397h115q66 0 66 -43t-64 -43h-336q-63 0 -63 43t65 43h115v1079h-117q-63 0 -63 43t65 43h154q39 0 51 -13t12 -52v-445q145 141 299 142q254 0 254 -283v-514
h115q65 0 65 -43z" />
    <glyph glyph-name="i" unicode="i" 
d="M539 1239q35 -1 59 -25t25 -60q0 -36 -25 -60q-26 -24 -60 -25q-34 0 -59 25q-25 24 -25 60t26 60q24 24 59 25zM924 43q0 -43 -66 -43h-625q-66 0 -65 43q0 43 65 43h279v698h-262q-66 0 -66 43t66 43h301q39 0 51 -13t12 -52v-719h244q66 0 66 -43z" />
    <glyph glyph-name="j" unicode="j" 
d="M653 1069q-35 0 -59 25q-24 24 -25 60q0 36 25 60q26 24 60 25q34 -1 58 -25t25 -60q-1 -36 -25 -60t-59 -25zM739 -115q0 -118 -70 -230q-38 -60 -114 -99t-178 -39q-272 0 -273 141q0 35 23 55q23 21 51 21t50 -20t22 -54l-10 -35q50 -20 118 -20t92 3t62 23t66 62
q59 82 59 203v888h-297q-63 0 -64 41q0 45 66 45h334q41 0 52 -13t11 -52v-920z" />
    <glyph glyph-name="k" unicode="k" 
d="M1036 43q0 -43 -65 -43h-250q-63 0 -64 43q1 27 21 33t63 6h52l-287 375l-195 -174v-197h125q63 0 64 -43q0 -43 -64 -43h-325q-63 0 -64 45q0 41 64 41h110v1079h-110q-63 0 -64 43q0 43 64 43h137q39 0 51 -13t12 -52v-795l418 393h-131q-63 0 -63 43t63 43h326
q66 0 65 -45q0 -41 -65 -41h-76l-281 -266l332 -432h72q65 0 65 -43z" />
    <glyph glyph-name="l" unicode="l" 
d="M950 43q0 -43 -63 -43h-699q-63 0 -63 43t65 43h295v1079h-297q-63 0 -63 43t65 43h336q40 0 52 -13t12 -52v-1100h297q63 0 63 -43z" />
    <glyph glyph-name="m" unicode="m" 
d="M1053 43q0 -43 -66 -43h-158q-66 0 -65 43q0 21 13 31t27 11t48 1v516q0 111 -25 153t-69 42q-78 0 -135 -82t-58 -228v-401q69 0 93 -6t24 -37q0 -43 -66 -43h-157q-66 0 -66 43q-1 21 13 31t28 11t47 1v516q0 111 -24 153q-25 42 -70 42q-76 0 -132 -82t-56 -228v-401
q69 0 93 -6t23 -37q0 -43 -65 -43h-187q-66 0 -65 43q0 31 24 37t93 6v698q-69 0 -93 6t-24 37q0 43 65 43h68q21 0 31 -3t22 -23t15 -62q109 100 201 100t151 -130q94 131 215 131q57 0 95 -33q39 -33 57 -103t18 -126v-535q70 0 94 -6t23 -37z" />
    <glyph glyph-name="n" unicode="n" 
d="M1044 43q0 -43 -63 -43h-324q-66 0 -65 43q0 43 65 43h105v502q0 111 -36 160t-134 49t-190 -79t-91 -235v-397h115q66 0 66 -43t-64 -43h-336q-63 0 -63 43t65 43h115v698h-117q-63 0 -63 43t65 43h154q45 0 54 -22t9 -107q145 141 299 142q254 0 254 -283v-514h115
q65 0 65 -43z" />
    <glyph glyph-name="o" unicode="o" 
d="M846 449q0 153 -92 253t-216 100t-217 -100t-93 -254t90 -264q92 -110 218 -110t218 110t92 265zM950 436q0 -188 -123 -318t-291 -130t-290 130q-123 130 -123 318t122 320t292 133q169 -1 291 -133t122 -320z" />
    <glyph glyph-name="p" unicode="p" 
d="M891 432q0 152 -88 258t-205 106t-202 -78q-85 -79 -85 -179v-156q0 -101 71 -205q72 -104 194 -104t219 103q96 103 96 255zM993 434q0 -186 -123 -316t-290 -130q-131 0 -269 139v-510h115q66 0 66 -44t-64 -44h-336q-63 0 -63 44t65 44h115v1167h-117q-63 0 -63 43
t65 43h154q43 0 53 -22t10 -96q145 131 298 131t269 -131q115 -132 115 -318z" />
    <glyph glyph-name="q" unicode="q" 
d="M805 389v84q0 121 -77 222t-206 101t-230 -104q-102 -104 -102 -256t96 -257t223 -105q128 0 212 103t84 212zM1034 -383q64 0 64 -44t-64 -44h-354q-63 0 -64 45q0 43 64 43h125v530q-145 -159 -310 -159t-286 130t-121 317t129 317t289 131q160 0 299 -150
q0 134 22 145q10 5 38 5q28 1 36 -17t8 -49v-1200h125z" />
    <glyph glyph-name="r" unicode="r" 
d="M991 777q0 -36 -19 -55q-19 -20 -49 -20t-50 26q-19 26 -19 69q-204 0 -314 -126t-110 -298v-287h256q66 0 66 -43t-66 -43h-551q-63 0 -63 43t63 43h193v698h-193q-63 0 -63 43t63 43h232q39 0 51 -13t12 -52v-129q182 207 381 207q102 0 141 -35t39 -71z" />
    <glyph glyph-name="s" unicode="s" 
d="M932 244q0 -85 -71 -163q-38 -42 -119 -68t-191 -25q-158 0 -287 94q-31 -94 -65 -94q-43 0 -43 65v205q0 39 14 52q14 14 43 14t43 -25q43 -133 120 -179q76 -46 200 -46t197 49t73 121q0 131 -291 178q-194 25 -278 67t-106 95q-15 35 -15 73q0 37 14 71
q67 160 367 161q129 0 239 -53q8 31 18 42t33 11q41 0 41 -66v-145q0 -39 -14 -52q-14 -14 -47 -14t-39 31q-10 76 -56 118t-188 42t-212 -44t-70 -100t71 -91q72 -34 152 -46l145 -24q322 -51 322 -254z" />
    <glyph glyph-name="t" unicode="t" 
d="M911 246q0 -123 -93 -191q-93 -67 -213 -67q-121 0 -199 63t-78 195v538h-209q-63 0 -64 41q0 45 66 45h207v195q0 39 13 52t43 13t38 -17t8 -48v-195h369q63 0 63 -43t-63 -43h-369v-526q0 -97 42 -141t142 -43q37 0 75 10t78 53t40 107t51 63q45 0 51 -31q2 -10 2 -30z
" />
    <glyph glyph-name="u" unicode="u" 
d="M981 86q63 0 63 -43t-65 -43h-154q-20 0 -30 3q-11 3 -23 23t-12 62q-133 -100 -273 -100q-279 0 -278 233v563h-117q-63 0 -63 43t65 43h154q39 0 51 -13t12 -52v-572q0 -39 3 -59q4 -20 20 -48q31 -52 166 -52q182 0 241 133q20 45 21 104v473h-117q-63 0 -63 43t65 43
h154q39 0 51 -13t12 -52v-719h117z" />
    <glyph glyph-name="v" unicode="v" 
d="M956 870q64 0 64 -43t-64 -43h-75l-248 -737q-18 -55 -96 -55q-45 0 -66 15q-20 15 -31 42l-247 735h-76q-63 0 -64 41q0 45 64 45h248q63 0 63 -43t-63 -43h-89l240 -706h41l240 706h-88q-63 0 -64 43q0 43 64 43h247z" />
    <glyph glyph-name="w" unicode="w" 
d="M1036 827q0 -33 -43 -41q-16 -2 -57 -2l-131 -729q-4 -23 -9 -33q-14 -29 -68 -30q-54 0 -75 24l-104 404h-12l-99 -371q-8 -35 -27 -46t-63 -11t-59 14q-14 14 -21 49l-131 729q-85 0 -95 18q-5 9 -5 25q0 43 67 43h244q68 0 68 -43t-68 -43h-121l123 -706h12l113 393
q11 35 69 35t68 -37l101 -391h12l121 706h-121q-68 0 -68 43t68 43h244q67 0 67 -43z" />
    <glyph glyph-name="x" unicode="x" 
d="M1012 43q0 -43 -66 -43h-248q-63 0 -63 43q0 31 25 37q26 6 100 6l-230 311l-223 -311q78 0 104 -6t25 -37q0 -43 -63 -43h-248q-66 0 -66 43t66 43h96l268 363l-256 335h-94q-66 0 -65 41q0 45 65 45h248q63 0 64 -43q0 -29 -33 -36t-90 -7l202 -274l199 274
q-73 0 -99 6t-26 37q0 43 64 43h247q66 0 66 -43t-66 -43h-94l-248 -335l277 -363h96q66 0 66 -43z" />
    <glyph glyph-name="y" unicode="y" 
d="M956 870q64 0 64 -43t-64 -43h-77l-332 -979q-15 -39 -48 -98q-34 -59 -66 -96t-82 -66q-49 -29 -109 -29t-104 47q-44 46 -44 92q0 85 72 87q31 0 50 -20t20 -50l-13 -41q12 -27 25 -26q108 1 160 103q42 82 88 218l14 47l-317 811h-72q-63 0 -64 41q0 45 64 45h248
q63 0 63 -43t-63 -43h-84l270 -712l236 712h-82q-63 0 -64 43q0 43 64 43h247z" />
    <glyph glyph-name="z" unicode="z" 
d="M967 66q0 -55 -29 -66h-799q-65 0 -65 51q0 23 6 34t33 36l698 663h-600v-77q0 -66 -53 -66q-35 0 -43 17t-9 49v98q0 39 12 52t54 13h721q65 0 65 -51q0 -19 -6 -31t-34 -38l-699 -664h643v102q0 66 53 66q35 0 43 -17t9 -49v-122z" />
    <glyph glyph-name="braceleft" unicode="{" 
d="M950 -133q0 -43 -69 -43q-182 0 -295 61q-47 25 -71 66t-27 67t-3 68v352q-4 127 -321 146q-41 0 -41 43q0 20 12 31t23 12q156 0 227 31t86 61q14 31 14 104q0 352 2 365q39 197 394 196q70 0 69 -45q0 -20 -12 -31t-23 -12q-272 0 -317 -96q-8 -16 -8 -336v-106
q-4 -94 -146 -176q145 -80 146 -203v-342q0 -37 6 -57q6 -21 33 -51q52 -58 278 -62q43 0 43 -43z" />
    <glyph glyph-name="bar" unicode="|" 
d="M590 -98q0 -78 -53 -78t-54 78v1448q0 78 54 77q53 0 53 -77v-1448z" />
    <glyph glyph-name="braceright" unicode="}" 
d="M950 625q0 -19 -12 -31t-23 -12q-154 0 -225 -31q-72 -31 -86 -62t-14 -104q0 -352 -2 -365q-37 -197 -398 -196q-68 0 -67 45q0 19 12 31t23 12q236 4 287 59q28 29 34 48t6 55v377q0 38 42 89q42 52 104 87q-82 45 -114 92t-32 108v342q0 31 -2 47t-18 44
q-44 74 -293 79q-49 0 -49 44t67 44q186 0 292 -58t108 -200v-354q4 -129 321 -147q39 0 39 -43z" />
    <glyph glyph-name="asciitilde" unicode="~" 
d="M889 684q0 -28 -93 -96q-94 -68 -150 -68t-101 37q-83 74 -95 77t-18 3q-55 0 -162 -100q-39 -32 -67 -2q-15 15 -15 35t97 96q90 66 144 66t103 -38q82 -74 94 -77t19 -3q53 0 162 99q17 18 35 18q18 -1 32 -15t15 -32z" />
    <glyph glyph-name="uni00A0" unicode="&#xa0;" 
 />
    <glyph glyph-name="exclamdown" unicode="&#xa1;" 
d="M546 391q52 0 54 -33l21 -751q0 -93 -84 -101q-21 0 -42 12q-42 24 -42 89l18 704q4 51 14 65q9 14 61 15zM621 696q0 -36 -25 -60q-26 -24 -60 -24t-59 25t-25 59t25 60q25 24 60 24t59 -24t25 -60z" />
    <glyph glyph-name="cent" unicode="&#xa2;" 
d="M262 436q0 -129 78 -224t209 -132v719q-220 -60 -275 -274q-12 -46 -12 -89zM639 -152q0 -18 -13 -31q-14 -13 -32 -13t-32 12q-14 14 -13 32v142q-174 30 -283 154q-108 124 -108 295t127 313q96 105 264 133v137q0 18 13 32q14 14 32 13q18 0 32 -13t13 -32v-133
q210 -7 257 -60q26 -29 26 -69t-22 -60t-52 -20q-70 0 -72 82q0 14 -42 28t-95 13v-729q110 12 158 70q33 40 51 81q14 23 57 23t43 -38t-61 -113q-31 -37 -97 -69t-151 -40v-140z" />
    <glyph glyph-name="sterling" unicode="&#xa3;" 
d="M287 225q-139 0 -140 -73q0 -30 23 -50t53 -20q164 0 207 104q-84 39 -143 39zM1034 285q0 -125 -59 -216q-112 -173 -349 -17q-38 26 -106 77q-92 -152 -297 -152q-76 1 -129 51t-53 128t74 126t172 48q45 0 135 -35q-27 98 -113 278h-151q-23 -1 -38 15q-16 16 -16 38
t16 38t38 16h98q-49 129 -49 211q0 150 104 255q103 105 251 105t254 -91t108 -226q0 -28 -22 -50t-50 -22t-50 22t-22 50t29 59q-29 72 -95 112q-67 40 -160 40t-168 -75t-75 -170t47 -220h357q23 0 38 -16t15 -38t-15 -37t-38 -16h-305q118 -237 125 -360q59 -45 92 -68
t86 -43t102 -20q113 0 113 203q0 19 15 35t38 16t38 -14t15 -37z" />
    <glyph glyph-name="currency" unicode="&#xa4;" 
d="M725 627q0 78 -55 133t-132 55t-132 -55q-56 -55 -56 -133t56 -133q56 -56 132 -56q77 0 132 56t55 133zM536 332q-83 0 -165 53l-60 -61q-61 -45 -90 -21q-37 35 12 98l62 60q-51 84 -51 166t51 166l-64 63q-49 59 -16 92t92 -16l64 -64q165 106 334 0l59 62
q55 49 91 16t-15 -92l-62 -59q53 -86 53 -168t-53 -168l64 -62q49 -59 16 -92t-92 17l-61 63q-86 -53 -169 -53z" />
    <glyph glyph-name="yen" unicode="&#xa5;" 
d="M604 739h-123l58 -161zM967 1251q63 0 63 -43t-63 -43h-58l-153 -321h114q23 0 38 -16q16 -16 16 -36q0 -22 -16 -37t-38 -16h-168l-106 -225h274q23 0 38 -15q16 -15 16 -37t-16 -36q-16 -16 -38 -16h-280v-324h74q63 0 63 -43t-63 -43h-252q-63 0 -64 45q0 41 64 41h73
v324h-280q-23 0 -38 15t-15 37t15 37t38 15h274l-108 225h-166q-23 -1 -38 15t-15 38t15 36q15 15 38 16h112l-153 321h-58q-63 0 -63 43t63 43h222q63 0 63 -43q0 -31 -28 -37t-82 -6l151 -321h217l142 321q-73 -1 -91 11t-18 32q0 43 63 43h222z" />
    <glyph glyph-name="brokenbar" unicode="&#xa6;" 
d="M590 -98q0 -78 -53 -78t-54 78v510q-1 18 15 30t39 12t37 -12t16 -30v-510zM590 840q0 -18 -16 -30t-38 -13q-22 0 -37 12t-16 31v510q0 78 54 77q53 0 53 -77v-510z" />
    <glyph glyph-name="section" unicode="&#xa7;" 
d="M915 408q0 68 -64 127q-65 57 -163 86l-223 67q-94 31 -164 74q-55 4 -97 -37t-42 -109t64 -127q65 -57 163 -86l223 -67q94 -31 164 -74q55 -4 97 37t42 109zM1022 397q0 -76 -43 -134t-111 -83q47 -63 47 -137q-1 -129 -113 -211t-264 -82t-265 70q-112 70 -111 190
q0 30 22 52t52 22t52 -22t22 -54t-27 -55q51 -96 256 -96q111 0 191 50t79 130t-63 123t-164 73l-224 68q-129 39 -216 125t-87 201q0 74 43 133t111 84q-47 63 -47 137q0 129 112 211q113 82 266 82q152 0 264 -70t111 -190q1 -30 -21 -52t-52 -22t-52 22t-22 54t27 55
q-51 96 -256 96q-111 0 -191 -50t-80 -130t62 -123t166 -73l223 -68q129 -39 216 -125t87 -201z" />
    <glyph glyph-name="dieresis" unicode="&#xa8;" 
d="M713 1229q31 1 52 -21t21 -54t-22 -54t-52 -21q-30 0 -52 22q-22 21 -22 53t22 54t53 21zM362 1079q-30 0 -52 22q-22 21 -22 53t22 54t52 21q30 1 52 -21t22 -54t-22 -54t-52 -21z" />
    <glyph glyph-name="copyright" unicode="&#xa9;" 
d="M776 358q0 -82 -70 -148t-183 -65q-113 0 -199 112t-86 278q0 165 87 277t207 112q90 0 168 -68q25 47 25 53q14 14 25 15q27 0 26 -39v-176q0 -39 -33 -39q-19 0 -23 9t-7 21q-13 80 -63 126t-113 46q-92 0 -165 -97t-73 -240t73 -241t167 -97q57 0 112 39t62 129
q4 25 30 24q33 0 33 -31zM539 1030q-205 0 -351 -145t-147 -349q0 -204 145 -350q146 -146 352 -147q206 1 351 147t145 350t-145 349t-350 145zM2 535q0 221 158 377t378 157q220 -1 378 -157t157 -376q0 -220 -158 -378q-157 -158 -377 -158t-378 157t-158 378z" />
    <glyph glyph-name="ordfeminine" unicode="&#xaa;" 
d="M655 842v147q-182 -6 -282 -50q-101 -44 -101 -101q0 -58 48 -96t128 -38t132 25q52 24 64 49q11 25 11 64zM754 551q45 0 45 -25t-45 -24h-432q-45 0 -46 22q0 27 46 27h432zM293 1141q-43 0 -43 47q0 86 192 86q137 0 206 -62t69 -145v-336q45 -18 96 -18t51 -24
t-53 -23q-117 0 -154 55q-99 -66 -211 -66q-112 1 -174 53t-61 126q0 195 444 200q0 193 -209 193h-55q-35 -5 -43 -13t-8 -26q-4 -47 -47 -47z" />
    <glyph glyph-name="guillemotleft" unicode="&#xab;" 
d="M629 208q0 -36 -25 -36q-8 0 -24 14l-461 398q-17 16 -17 44t23 46l455 393q16 14 24 14q25 0 25 -36t-23 -58l-418 -360l418 -361q23 -22 23 -58zM973 207q0 -35 -25 -35q-10 0 -24 14l-461 398q-17 12 -17 42t23 48l455 393q14 14 24 14q25 0 25 -35t-25 -59l-416 -360
l416 -361q25 -24 25 -59z" />
    <glyph glyph-name="logicalnot" unicode="&#xac;" 
d="M989 465q0 -19 -15 -35t-38 -16t-37 14t-14 37v270h-748q-23 -1 -38 15t-15 37t15 37t38 16h799q23 0 38 -16t15 -36v-323z" />
    <glyph glyph-name="registered" unicode="&#xae;" 
d="M512 567q88 1 137 47t49 102t-49 102t-137 46h-104v-297h104zM842 299q30 0 30 -34t-24 -74q-24 -39 -77 -39q-52 0 -80 45q-27 45 -27 147t-31 133q-45 37 -113 37h-112v-297h45q39 1 39 -25t-39 -26h-152q-37 0 -37 26t37 25h45v647h-45q-37 0 -37 27t37 27h225
q102 0 168 -60t66 -141q0 -111 -117 -176q55 -43 69 -77t15 -122q0 -137 47 -137q18 0 28 25q9 26 9 44q1 25 31 25zM539 1030q-205 0 -351 -145t-147 -349q0 -204 145 -350q146 -146 352 -147q206 1 351 147t145 350t-145 349t-350 145zM2 535q0 221 158 377t378 157
q220 -1 378 -157t157 -376q0 -220 -158 -378q-157 -158 -377 -158t-378 157t-158 378z" />
    <glyph glyph-name="macron" unicode="&#xaf;" 
d="M854 1200q64 0 64 -45t-64 -45h-629q-66 0 -65 45q0 45 63 45h631z" />
    <glyph glyph-name="degree" unicode="&#xb0;" 
d="M610 1117q0 29 -20 51t-50 22t-52 -22t-22 -52t24 -49q22 -18 51 -18t49 19t20 49zM536 967q-70 0 -108 48t-39 104q0 57 42 105q41 48 105 48t108 -50t44 -107q0 -56 -41 -102t-111 -46z" />
    <glyph glyph-name="plusminus" unicode="&#xb1;" 
d="M989 53q0 -53 -78 -53h-749q-78 0 -78 53t78 53h321v295h-321q-78 -1 -78 53t78 54h321v323q-1 80 53 80t54 -80v-323h321q78 0 78 -53t-78 -54h-321v-295h321q78 0 78 -53z" />
    <glyph glyph-name="two.superior" unicode="&#xb2;" 
d="M364 1055q-46 0 -49 47q1 68 57 121t147 53t155 -56t63 -143q0 -113 -116 -213l-197 -166h248q0 29 8 37t25 8q33 0 32 -41v-22q0 -35 -22 -41h-357q-43 0 -43 29q0 12 15 24l225 197q117 100 117 188q0 66 -48 103t-104 37q-110 0 -133 -91q12 -12 12 -30t-12 -30
q-11 -12 -23 -11z" />
    <glyph glyph-name="three.superior" unicode="&#xb3;" 
d="M350 825q18 0 30 -12q12 -13 11 -25q0 -12 -10 -32q0 -8 15 -24t51 -30q37 -16 93 -16t98 39t42 89t-40 91t-114 41h-47q-39 0 -39 29t22 31t78 6q54 4 83 44q64 88 -7 136q-36 25 -104 25t-100 -41q8 -10 8 -28t-13 -28q-13 -12 -29 -12t-29 10t-13 33q0 57 54 91
t138 34t136 -42t53 -101q0 -98 -90 -154q118 -51 118 -164q0 -76 -60 -132q-61 -56 -155 -56t-158 44t-65 109q0 45 43 45z" />
    <glyph glyph-name="acute" unicode="&#xb4;" 
d="M741 1217q0 -29 -47 -50l-295 -131l-14 -2q-27 0 -38 23t-11 41q0 25 39 41l282 127l31 8q23 0 38 -14t15 -43z" />
    <glyph glyph-name="mu" unicode="&#xb5;" 
d="M981 86q63 0 63 -43t-65 -43h-154q-20 0 -30 3q-11 3 -23 23t-12 62q-134 -100 -260 -100t-189 37v-410h115q66 0 66 -43t-64 -43h-336q-63 0 -63 43t65 43h115v1169h-117q-63 0 -63 43t65 43h154q39 0 51 -13t12 -52v-572q0 -39 3 -59q4 -20 20 -48q31 -52 166 -52
q182 0 241 133q20 45 21 104v473h-117q-63 0 -63 43t65 43h154q39 0 51 -13t12 -52v-719h117z" />
    <glyph glyph-name="paragraph" unicode="&#xb6;" 
d="M1020 1406q0 -22 -39 -22h-111v-1746q0 -14 -8 -32t-19 -18t-19 16t-9 34v1746h-145v-1746q0 -14 -8 -32t-18 -18t-19 18q-8 18 -9 32v847q-288 13 -433 214q-79 110 -79 259q0 193 127 331t308 138h442q39 1 39 -21z" />
    <glyph glyph-name="periodcentered" unicode="&#xb7;" 
d="M426 625q0 45 32 79t79 33t79 -33t33 -77q0 -45 -32 -79q-33 -34 -79 -34t-79 33t-33 78z" />
    <glyph glyph-name="cedilla" unicode="&#xb8;" 
d="M553 -14q0 67 53 67q35 1 43 -21t8 -89q105 -20 157 -73t52 -108q0 -106 -86 -147t-182 -48q-95 -7 -207 -7q-45 0 -45 45q0 33 48 41q17 2 90 2t176 24t104 82q0 39 -42 71t-98 35t-63 19q-8 16 -8 49v58z" />
    <glyph glyph-name="one.superior" unicode="&#xb9;" 
d="M694 669q0 -30 -41 -30h-247q-41 0 -41 30t41 29h90v439q-47 -45 -105 -45q-33 0 -33 30t37 29q61 4 109 102q10 23 28 23q31 0 31 -41v-537h90q41 1 41 -29z" />
    <glyph glyph-name="ordmasculine" unicode="&#xba;" 
d="M762 973q0 111 -67 183t-157 71q-90 0 -157 -72q-68 -73 -68 -183t67 -189t158 -79q92 0 158 80q66 78 66 189zM711 551q43 0 43 -25t-43 -24h-346q-43 0 -43 22q0 27 43 27h346zM539 1274q117 0 199 -91t83 -219q0 -128 -85 -218q-84 -90 -198 -91q-114 0 -199 89
q-85 88 -85 218t84 221t201 91z" />
    <glyph glyph-name="guillemotright" unicode="&#xbb;" 
d="M627 626q0 -30 -17 -42l-460 -398q-14 -14 -25 -14q-25 0 -25 37t25 57l416 361l-416 360q-25 20 -25 57t25 37q10 0 25 -14l454 -393q23 -18 23 -48zM971 626q0 -26 -17 -42l-460 -398q-16 -14 -25 -14q-27 0 -27 35t25 59l418 361l-418 360q-25 25 -25 59t27 35
q8 0 25 -14l454 -393q23 -22 23 -48z" />
    <glyph glyph-name="onequarter" unicode="&#xbc;" 
d="M825 231v359l-223 -359h223zM926 1284q22 0 22 -28t-14 -48l-668 -1212q-18 -29 -39 -29q-31 0 -30 45l684 1243q18 29 45 29zM1001 202q0 -30 -40 -30h-78v-113h61q41 1 41 -29t-41 -30h-180q-41 0 -41 30t41 29h61v113h-250q-23 0 -31 7t-9 31q0 24 8 36l233 375
q14 20 41 20h25q27 0 34 -8t7 -35v-367h78q40 1 40 -29zM389 669q0 -30 -41 -30h-248q-41 0 -41 30t41 29h90v439q-47 -45 -104 -45q-33 0 -33 30t37 29q61 4 109 102q10 23 28 23q31 0 31 -41v-537h90q41 1 41 -29z" />
    <glyph glyph-name="onehalf" unicode="&#xbd;" 
d="M866 1284q25 0 25 -28t-14 -48l-668 -1212q-18 -29 -39 -29q-31 0 -31 45q0 4 7 16t8 13l669 1214q18 29 43 29zM1022 43q0 -25 -8 -34t-33 -9h-346q-43 0 -43 33q0 14 16 26l226 191q119 100 118 188q0 62 -48 100t-102 38t-88 -24q-34 -22 -44 -56q14 -10 14 -32
t-14 -34t-31 -12q-47 0 -47 49q0 68 57 119t149 51t158 -54q66 -53 66 -151t-111 -199q-25 -23 -101 -86t-101 -84h243q0 27 5 37t30 11q35 0 35 -41v-27zM389 669q0 -30 -41 -30h-248q-41 0 -41 30t41 29h90v439q-47 -45 -104 -45q-33 0 -33 30t37 29q61 4 109 102
q10 23 28 23q31 0 31 -41v-537h90q41 1 41 -29z" />
    <glyph glyph-name="threequarters" unicode="&#xbe;" 
d="M926 1284q22 0 22 -28t-14 -48l-668 -1212q-18 -29 -39 -29q-31 0 -30 45l684 1243q18 29 45 29zM825 231v359l-223 -359h223zM1001 202q0 -30 -40 -30h-78v-113h61q41 1 41 -29t-41 -30h-180q-41 0 -41 30t41 29h61v113h-250q-23 0 -31 7t-9 31q0 24 8 36l233 375
q14 20 41 20h25q27 0 34 -8t7 -35v-367h78q40 1 40 -29zM86 825q18 0 30 -12q12 -13 11 -27q0 -14 -8 -30q0 -8 14 -24t50 -30q37 -16 93 -16t98 39t42 89t-40 91t-114 41h-47q-39 0 -39 29t27 31l57 4q72 6 100 46t27 76q0 36 -35 60q-36 24 -104 25q-68 0 -101 -41
q9 -10 9 -28t-14 -28q-14 -12 -27 -12q-41 0 -41 50t53 84t137 34t137 -42t54 -101q0 -96 -90 -154q118 -51 118 -164q0 -76 -61 -132q-62 -56 -156 -56t-157 44t-64 109q0 45 41 45z" />
    <glyph glyph-name="questiondown" unicode="&#xbf;" 
d="M864 -168q28 0 52 -20q22 -20 22 -64q0 -86 -74 -146q-50 -40 -144 -62q-93 -23 -203 -23q-279 0 -352 137q-30 53 -30 104q0 104 115 191q190 129 190 342v35q0 41 14 53t54 12q41 0 50 -16q9 -15 9 -67q0 -185 -108 -307q-57 -65 -146 -124q-76 -45 -75 -119
q0 -51 34 -86t104 -51q71 -16 134 -16q217 0 309 92q-27 29 -27 61t22 54q22 20 50 20zM590 696q0 -36 -25 -60t-61 -24t-60 25t-24 59t24 60q25 24 61 24q37 0 61 -24t24 -60z" />
    <glyph glyph-name="Agrave" unicode="&#xc0;" 
d="M739 1446q0 -22 -11 -45q-12 -23 -30 -22t-22 3l-295 131q-47 21 -47 49t15 43t33 15t36 -8l282 -127q39 -17 39 -39zM702 436l-157 754h-15l-159 -754h331zM1014 43q0 -43 -72 -43h-215q-68 0 -68 43q0 31 25 37t98 6l-57 264h-377l-57 -264q75 0 99 -6t24 -37
q0 -43 -68 -43h-217q-70 0 -70 43q0 29 25 41q12 2 98 2l260 1126q14 54 51 62q13 2 45 2t45 -2q31 -5 48 -64l260 -1124q84 0 96 -2q27 -10 27 -41z" />
    <glyph glyph-name="Aacute" unicode="&#xc1;" 
d="M741 1562q0 -28 -47 -49l-295 -131l-14 -4q-27 0 -38 23t-11 45t39 39l282 127l31 8q23 0 38 -15t15 -43zM702 436l-157 754h-15l-159 -754h331zM1014 43q0 -43 -72 -43h-215q-68 0 -68 43q0 31 25 37t98 6l-57 264h-377l-57 -264q75 0 99 -6t24 -37q0 -43 -68 -43h-217
q-70 0 -70 43q0 29 25 41q12 2 98 2l260 1126q14 54 51 62q13 2 45 2t45 -2q31 -5 48 -64l260 -1124q84 0 96 -2q27 -10 27 -41z" />
    <glyph glyph-name="Acircumflex" unicode="&#xc2;" 
d="M829 1403q0 -45 -49 -45q-14 0 -61 14l-182 62l-183 -62q-47 -14 -61 -14q-49 0 -49 45q0 29 45 45l223 82q27 8 53 0l219 -82q45 -16 45 -45zM702 436l-157 754h-15l-159 -754h331zM1014 43q0 -43 -72 -43h-215q-68 0 -68 43q0 31 25 37t98 6l-57 264h-377l-57 -264
q75 0 99 -6t24 -37q0 -43 -68 -43h-217q-70 0 -70 43q0 29 25 41q12 2 98 2l260 1126q14 54 51 62q13 2 45 2t45 -2q31 -5 48 -64l260 -1124q84 0 96 -2q27 -10 27 -41z" />
    <glyph glyph-name="Atilde" unicode="&#xc3;" 
d="M889 1522q0 -29 -96 -99q-144 -113 -248 -28q-53 49 -73 63t-40 15q-57 0 -162 -99q-20 -16 -36 -16t-31 14q-14 14 -15 31q0 25 94 95t147 71q54 0 103 -37q4 -4 15 -12q76 -66 98 -68q53 0 162 98q37 37 67 4q15 -14 15 -32zM702 436l-157 754h-15l-159 -754h331z
M1014 43q0 -43 -72 -43h-215q-68 0 -68 43q0 31 25 37t98 6l-57 264h-377l-57 -264q75 0 99 -6t24 -37q0 -43 -68 -43h-217q-70 0 -70 43q0 29 25 41q12 2 98 2l260 1126q14 54 51 62q13 2 45 2t45 -2q31 -5 48 -64l260 -1124q84 0 96 -2q27 -10 27 -41z" />
    <glyph glyph-name="Adieresis" unicode="&#xc4;" 
d="M744 1505q30 0 52 -20t21 -52q1 -32 -21 -54q-22 -21 -53 -21t-53 22t-20 53q0 32 21 52q23 20 53 20zM332 1505q30 0 52 -20t22 -52t-22 -54q-22 -21 -52 -21t-52 22t-22 53q0 32 22 52t52 20zM702 436l-157 754h-15l-159 -754h331zM1014 43q0 -43 -72 -43h-215
q-68 0 -68 43q0 31 25 37t98 6l-57 264h-377l-57 -264q75 0 99 -6t24 -37q0 -43 -68 -43h-217q-70 0 -70 43q0 29 25 41q12 2 98 2l260 1126q14 54 51 62q13 2 45 2t45 -2q31 -5 48 -64l260 -1124q84 0 96 -2q27 -10 27 -41z" />
    <glyph glyph-name="Aring" unicode="&#xc5;" 
d="M330 1422q0 60 60 104t148 45q88 -1 150 -45q60 -44 60 -104t-60 -103t-149 -43q-88 0 -149 43q-60 43 -60 103zM539 1352q43 0 75 18t31 52q0 34 -32 54q-33 20 -75 19q-42 0 -74 -19q-32 -20 -32 -54t32 -52t75 -18zM702 436l-157 754h-15l-159 -754h331zM1014 43
q0 -43 -72 -43h-215q-68 0 -68 43q0 31 25 37t98 6l-57 264h-377l-57 -264q75 0 99 -6t24 -37q0 -43 -68 -43h-217q-70 0 -70 43q0 29 25 41q12 2 98 2l260 1126q14 54 51 62q13 2 45 2t45 -2q31 -5 48 -64l260 -1124q84 0 96 -2q27 -10 27 -41z" />
    <glyph glyph-name="AE" unicode="&#xc6;" 
d="M561 475v690h-117l-139 -690h256zM543 0q-66 0 -66 43t84 43v301h-272l-62 -301q39 0 57 -1q45 -3 46 -42q0 -43 -64 -43h-151q-63 0 -64 43q1 21 15 31t30 11t54 1l219 1079q-33 0 -48 1q-15 2 -29 12t-13 30q0 43 63 43h594q39 0 51 -13t12 -52v-156q0 -66 -36 -65
q-39 0 -39 65v135h-285v-473h264q63 0 64 -45q0 -41 -64 -41h-264v-520h301v168q0 66 39 65q39 0 39 -65v-188q0 -38 -12 -52t-52 -14h-411z" />
    <glyph glyph-name="Ccedilla" unicode="&#xc7;" 
d="M985 334q0 -138 -103 -234t-198 -110v-49q20 1 65 -15t73 -34t50 -55q22 -36 23 -83q0 -98 -88 -139t-181 -48t-208 -7q-45 0 -45 45q0 37 48 42q17 1 91 1t176 24t103 82q0 39 -42 71q-43 32 -93 34t-62 16t-12 53v47q-210 11 -352 195t-142 458t144 460t346 186
q150 0 280 -113q39 72 43 88q20 25 41 25q43 0 43 -66v-293q0 -23 -2 -33t-14 -20q-13 -12 -35 -12t-35 9t-20 42q-23 133 -105 210t-188 77q-154 0 -275 -161t-121 -401t121 -402q121 -161 277 -161q96 0 189 66t104 213q4 41 54 41t50 -49z" />
    <glyph glyph-name="Egrave" unicode="&#xc8;" 
d="M739 1446q0 -22 -11 -45q-12 -23 -30 -22t-22 3l-295 131q-47 21 -47 49t15 43t33 15t36 -8l282 -127q39 -17 39 -39zM1024 66q0 -38 -12 -52t-51 -14h-838q-66 0 -66 43t66 43h86v1079h-86q-66 0 -66 43t66 43h790q39 0 51 -13t13 -52v-156q0 -39 -14 -52t-44 -13
t-38 17t-9 48v135h-561v-473h322q0 54 2 74t13 34t36 13q51 0 51 -65v-197q0 -39 -13 -52t-43 -13t-38 22q-8 23 -8 98h-322v-520h609v168q0 39 14 52t44 13t38 -16t8 -49v-188z" />
    <glyph glyph-name="Eacute" unicode="&#xc9;" 
d="M741 1562q0 -28 -47 -49l-295 -131l-14 -4q-27 0 -38 23t-11 45t39 39l282 127l31 8q23 0 38 -15t15 -43zM1024 66q0 -38 -12 -52t-51 -14h-838q-66 0 -66 43t66 43h86v1079h-86q-66 0 -66 43t66 43h790q39 0 51 -13t13 -52v-156q0 -39 -14 -52t-44 -13t-38 17t-9 48v135
h-561v-473h322q0 54 2 74t13 34t36 13q51 0 51 -65v-197q0 -39 -13 -52t-43 -13t-38 22q-8 23 -8 98h-322v-520h609v168q0 39 14 52t44 13t38 -16t8 -49v-188z" />
    <glyph glyph-name="Ecircumflex" unicode="&#xca;" 
d="M829 1403q0 -45 -49 -45q-14 0 -61 14l-182 62l-183 -62q-47 -14 -61 -14q-49 0 -49 45q0 29 45 45l223 82q27 8 53 0l219 -82q45 -16 45 -45zM1024 66q0 -38 -12 -52t-51 -14h-838q-66 0 -66 43t66 43h86v1079h-86q-66 0 -66 43t66 43h790q39 0 51 -13t13 -52v-156
q0 -39 -14 -52t-44 -13t-38 17t-9 48v135h-561v-473h322q0 54 2 74t13 34t36 13q51 0 51 -65v-197q0 -39 -13 -52t-43 -13t-38 22q-8 23 -8 98h-322v-520h609v168q0 39 14 52t44 13t38 -16t8 -49v-188z" />
    <glyph glyph-name="Edieresis" unicode="&#xcb;" 
d="M744 1505q30 0 52 -20t21 -52q1 -32 -21 -54q-22 -21 -53 -21t-53 22t-20 53q0 32 21 52q23 20 53 20zM332 1505q30 0 52 -20t22 -52t-22 -54q-22 -21 -52 -21t-52 22t-22 53q0 32 22 52t52 20zM1024 66q0 -38 -12 -52t-51 -14h-838q-66 0 -66 43t66 43h86v1079h-86
q-66 0 -66 43t66 43h790q39 0 51 -13t13 -52v-156q0 -39 -14 -52t-44 -13t-38 17t-9 48v135h-561v-473h322q0 54 2 74t13 34t36 13q51 0 51 -65v-197q0 -39 -13 -52t-43 -13t-38 22q-8 23 -8 98h-322v-520h609v168q0 39 14 52t44 13t38 -16t8 -49v-188z" />
    <glyph glyph-name="Igrave" unicode="&#xcc;" 
d="M739 1446q0 -22 -11 -45q-12 -23 -30 -22t-22 3l-295 131q-47 21 -47 49t15 43t33 15t36 -8l282 -127q39 -17 39 -39zM905 43q0 -43 -65 -43h-604q-66 0 -66 43t66 43h249v1079h-249q-66 0 -66 43t66 43h604q66 0 65 -45q0 -41 -65 -41h-250v-1079h250q65 0 65 -43z" />
    <glyph glyph-name="Iacute" unicode="&#xcd;" 
d="M741 1562q0 -28 -47 -49l-295 -131l-14 -4q-27 0 -38 23t-11 45t39 39l282 127l31 8q23 0 38 -15t15 -43zM905 43q0 -43 -65 -43h-604q-66 0 -66 43t66 43h249v1079h-249q-66 0 -66 43t66 43h604q66 0 65 -45q0 -41 -65 -41h-250v-1079h250q65 0 65 -43z" />
    <glyph glyph-name="Icircumflex" unicode="&#xce;" 
d="M829 1403q0 -45 -49 -45q-14 0 -61 14l-182 62l-183 -62q-47 -14 -61 -14q-49 0 -49 45q0 29 45 45l223 82q27 8 53 0l219 -82q45 -16 45 -45zM905 43q0 -43 -65 -43h-604q-66 0 -66 43t66 43h249v1079h-249q-66 0 -66 43t66 43h604q66 0 65 -45q0 -41 -65 -41h-250
v-1079h250q65 0 65 -43z" />
    <glyph glyph-name="Idieresis" unicode="&#xcf;" 
d="M744 1505q30 0 52 -20t21 -52q1 -32 -21 -54q-22 -21 -53 -21t-53 22t-20 53q0 32 21 52q23 20 53 20zM332 1505q30 0 52 -20t22 -52t-22 -54q-22 -21 -52 -21t-52 22t-22 53q0 32 22 52t52 20zM905 43q0 -43 -65 -43h-604q-66 0 -66 43t66 43h249v1079h-249
q-66 0 -66 43t66 43h604q66 0 65 -45q0 -41 -65 -41h-250v-1079h250q65 0 65 -43z" />
    <glyph glyph-name="Eth" unicode="&#xd0;" 
d="M504 86q176 0 278 160t103 371q-1 212 -103 380t-278 168h-223v-493h145q18 0 32 -14t13 -32q0 -20 -13 -32t-32 -12h-145v-496h223zM545 1251q197 1 319 -189t123 -445q0 -255 -124 -436t-318 -181h-436q-66 0 -66 43t66 43h67v496h-80q-18 0 -31 12t-13 32t12 32
q14 13 32 14h80v493h-67q-66 0 -66 43t66 43h436z" />
    <glyph glyph-name="Ntilde" unicode="&#xd1;" 
d="M889 1522q0 -29 -96 -99q-144 -113 -248 -28q-53 49 -73 63t-40 15q-57 0 -162 -99q-20 -16 -36 -16t-31 14q-14 14 -15 31q0 25 94 95t147 71q54 0 103 -37q4 -4 15 -12q76 -66 98 -68q53 0 162 98q37 37 67 4q15 -14 15 -32zM948 1251q64 0 64 -43t-64 -43h-76v-1099
q0 -42 -13 -54t-58 -12t-66 16q-20 16 -30 45l-410 1104h-19v-1079h74q63 0 64 -43q0 -43 -64 -43h-225q-63 0 -64 45q0 41 64 41h76v1079h-76q-63 0 -64 43q0 43 64 43h145q50 0 69 -17t30 -44l409 -1104h19v1079h-74q-63 0 -64 41q0 45 64 45h225z" />
    <glyph glyph-name="Ograve" unicode="&#xd2;" 
d="M739 1446q0 -22 -11 -45q-12 -23 -30 -22t-22 3l-295 131q-47 21 -47 49t15 43t33 15t36 -8l282 -127q39 -17 39 -39zM532 1188q-140 0 -200 -34t-84 -133q-23 -99 -23 -390q-1 -291 23 -391t84 -139q60 -38 207 -38q149 0 207 40q58 39 80 147t22 397t-26 385t-88 126
t-202 30zM931 1034q21 -100 21 -371q0 -273 -12 -387t-34 -155t-48 -74t-76 -45q-156 -38 -371 -21q-116 7 -171 45q-27 17 -58 65t-46 169t-15 304q0 182 3 310q7 280 116 352q57 36 139 42t171 6t149 -6q59 -6 111 -33t76 -64t45 -137z" />
    <glyph glyph-name="Oacute" unicode="&#xd3;" 
d="M741 1562q0 -28 -47 -49l-295 -131l-14 -4q-27 0 -38 23t-11 45t39 39l282 127l31 8q23 0 38 -15t15 -43zM532 1188q-140 0 -200 -34t-84 -133q-23 -99 -23 -390q-1 -291 23 -391t84 -139q60 -38 207 -38q149 0 207 40q58 39 80 147t22 397t-26 385t-88 126t-202 30z
M931 1034q21 -100 21 -371q0 -273 -12 -387t-34 -155t-48 -74t-76 -45q-156 -38 -371 -21q-116 7 -171 45q-27 17 -58 65t-46 169t-15 304q0 182 3 310q7 280 116 352q57 36 139 42t171 6t149 -6q59 -6 111 -33t76 -64t45 -137z" />
    <glyph glyph-name="Ocircumflex" unicode="&#xd4;" 
d="M829 1403q0 -45 -49 -45q-14 0 -61 14l-182 62l-183 -62q-47 -14 -61 -14q-49 0 -49 45q0 29 45 45l223 82q27 8 53 0l219 -82q45 -16 45 -45zM532 1188q-140 0 -200 -34t-84 -133q-23 -99 -23 -390q-1 -291 23 -391t84 -139q60 -38 207 -38q149 0 207 40q58 39 80 147
t22 397t-26 385t-88 126t-202 30zM931 1034q21 -100 21 -371q0 -273 -12 -387t-34 -155t-48 -74t-76 -45q-156 -38 -371 -21q-116 7 -171 45q-27 17 -58 65t-46 169t-15 304q0 182 3 310q7 280 116 352q57 36 139 42t171 6t149 -6q59 -6 111 -33t76 -64t45 -137z" />
    <glyph glyph-name="Otilde" unicode="&#xd5;" 
d="M889 1522q0 -29 -96 -99q-144 -113 -248 -28q-53 49 -73 63t-40 15q-57 0 -162 -99q-20 -16 -36 -16t-31 14q-14 14 -15 31q0 25 94 95t147 71q54 0 103 -37q4 -4 15 -12q76 -66 98 -68q53 0 162 98q37 37 67 4q15 -14 15 -32zM532 1188q-140 0 -200 -34t-84 -133
q-23 -99 -23 -390q-1 -291 23 -391t84 -139q60 -38 207 -38q149 0 207 40q58 39 80 147t22 397t-26 385t-88 126t-202 30zM931 1034q21 -100 21 -371q0 -273 -12 -387t-34 -155t-48 -74t-76 -45q-156 -38 -371 -21q-116 7 -171 45q-27 17 -58 65t-46 169t-15 304
q0 182 3 310q7 280 116 352q57 36 139 42t171 6t149 -6q59 -6 111 -33t76 -64t45 -137z" />
    <glyph glyph-name="Odieresis" unicode="&#xd6;" 
d="M744 1505q30 0 52 -20t21 -52q1 -32 -21 -54q-22 -21 -53 -21t-53 22t-20 53q0 32 21 52q23 20 53 20zM332 1505q30 0 52 -20t22 -52t-22 -54q-22 -21 -52 -21t-52 22t-22 53q0 32 22 52t52 20zM532 1188q-140 0 -200 -34t-84 -133q-23 -99 -23 -390q-1 -291 23 -391
t84 -139q60 -38 207 -38q149 0 207 40q58 39 80 147t22 397t-26 385t-88 126t-202 30zM931 1034q21 -100 21 -371q0 -273 -12 -387t-34 -155t-48 -74t-76 -45q-156 -38 -371 -21q-116 7 -171 45q-27 17 -58 65t-46 169t-15 304q0 182 3 310q7 280 116 352q57 36 139 42
t171 6t149 -6q59 -6 111 -33t76 -64t45 -137z" />
    <glyph glyph-name="multiply" unicode="&#xd7;" 
d="M858 305q-33 -33 -92 17l-229 231l-228 -229q-55 -50 -90 -18t14 95l230 226l-232 229q-49 59 -16 92t92 -16l230 -232l225 230q61 45 90 20q39 -37 -12 -96l-230 -227l232 -230q49 -59 16 -92z" />
    <glyph glyph-name="Oslash" unicode="&#xd8;" 
d="M494 1188q-104 0 -173 -31t-96 -130t-27 -354q1 -433 57 -514q19 -30 64 -65l351 1080q-40 12 -56 13t-120 1zM874 579q0 430 -56 514q-19 30 -64 64l-351 -1079q41 -12 57 -13t120 -1t173 30t95 130t26 355zM922 1082q30 -124 30 -407q0 -285 -12 -399t-34 -155t-48 -74
t-99 -51q-131 -32 -386 -14l-37 -113q-14 -49 -43 -49q-47 0 -47 43q2 16 41 135q-82 38 -112 102t-42 178t-12 292q0 176 3 304q7 280 116 352q57 36 139 42t166 6t155 -4l37 112q14 49 43 50q47 0 47 -43q-2 -16 -41 -138q106 -45 136 -169z" />
    <glyph glyph-name="Ugrave" unicode="&#xd9;" 
d="M739 1446q0 -22 -11 -45q-12 -23 -30 -22t-22 3l-295 131q-47 21 -47 49t15 43t33 15t36 -8l282 -127q39 -17 39 -39zM1061 1208q0 -43 -66 -43h-84v-753q0 -182 -110 -309q-111 -126 -265 -126t-264 126q-111 126 -110 309v753h-84q-66 0 -66 43t66 43h272q66 0 66 -43
t-66 -43h-84v-743q0 -170 84 -264t186 -94t187 94q84 94 84 264v743h-84q-66 0 -66 43t66 43h272q66 0 66 -43z" />
    <glyph glyph-name="Uacute" unicode="&#xda;" 
d="M741 1562q0 -28 -47 -49l-295 -131l-14 -4q-27 0 -38 23t-11 45t39 39l282 127l31 8q23 0 38 -15t15 -43zM1061 1208q0 -43 -66 -43h-84v-753q0 -182 -110 -309q-111 -126 -265 -126t-264 126q-111 126 -110 309v753h-84q-66 0 -66 43t66 43h272q66 0 66 -43t-66 -43h-84
v-743q0 -170 84 -264t186 -94t187 94q84 94 84 264v743h-84q-66 0 -66 43t66 43h272q66 0 66 -43z" />
    <glyph glyph-name="Ucircumflex" unicode="&#xdb;" 
d="M829 1403q0 -45 -49 -45q-14 0 -61 14l-182 62l-183 -62q-47 -14 -61 -14q-49 0 -49 45q0 29 45 45l223 82q27 8 53 0l219 -82q45 -16 45 -45zM1061 1208q0 -43 -66 -43h-84v-753q0 -182 -110 -309q-111 -126 -265 -126t-264 126q-111 126 -110 309v753h-84q-66 0 -66 43
t66 43h272q66 0 66 -43t-66 -43h-84v-743q0 -170 84 -264t186 -94t187 94q84 94 84 264v743h-84q-66 0 -66 43t66 43h272q66 0 66 -43z" />
    <glyph glyph-name="Udieresis" unicode="&#xdc;" 
d="M744 1505q30 0 52 -20t21 -52q1 -32 -21 -54q-22 -21 -53 -21t-53 22t-20 53q0 32 21 52q23 20 53 20zM332 1505q30 0 52 -20t22 -52t-22 -54q-22 -21 -52 -21t-52 22t-22 53q0 32 22 52t52 20zM1061 1208q0 -43 -66 -43h-84v-753q0 -182 -110 -309q-111 -126 -265 -126
t-264 126q-111 126 -110 309v753h-84q-66 0 -66 43t66 43h272q66 0 66 -43t-66 -43h-84v-743q0 -170 84 -264t186 -94t187 94q84 94 84 264v743h-84q-66 0 -66 43t66 43h272q66 0 66 -43z" />
    <glyph glyph-name="Yacute" unicode="&#xdd;" 
d="M741 1562q0 -28 -47 -49l-295 -131l-14 -4q-27 0 -38 23t-11 45t39 39l282 127l31 8q23 0 38 -15t15 -43zM967 1251q63 0 63 -43t-63 -43h-58l-319 -665v-414h74q63 0 63 -43t-63 -43h-252q-63 0 -64 45q0 41 64 41h73v414l-321 665h-58q-63 0 -63 43t63 43h222
q63 0 63 -43q0 -31 -28 -37t-82 -6l258 -573l252 573q-73 -1 -91 11t-18 32q0 43 63 43h222z" />
    <glyph glyph-name="Thorn" unicode="&#xde;" 
d="M852 627q0 104 -82 191t-233 87h-246v-557h246q151 0 233 88t82 191zM578 993q166 -1 272 -111t106 -256t-105 -256t-273 -110h-287v-174h74q63 0 63 -43t-63 -43h-252q-63 0 -64 43q0 43 64 43h73v1079h-73q-63 0 -64 41q0 45 64 45h252q63 0 63 -43t-63 -43h-74v-172
h287z" />
    <glyph glyph-name="germandbls" unicode="&#xdf;" 
d="M1010 350q0 -160 -111 -261t-256 -101q-92 0 -143 41t-51 84q0 78 65 80q31 -1 46 -21t15 -82q35 -16 68 -16q100 0 181 76t81 196t-69 257q-37 73 -114 123t-181 56q-33 10 -33 47t39 41q153 4 225 66t72 112t-74 90t-172 40t-164 -29t-79 -53q-13 -25 -13 -72v-958
q0 -38 -12 -52t-51 -14h-177q-63 0 -63 43t63 43h136v698h-136q-63 0 -63 43t63 43h136v170q0 66 36 113q84 107 320 111q146 0 250 -58t104 -151q0 -131 -196 -238q150 -104 204 -231t54 -236z" />
    <glyph glyph-name="agrave" unicode="&#xe0;" 
d="M739 1098q0 -18 -11 -41q-12 -23 -30 -23t-22 2l-295 131q-47 19 -47 49q0 58 53 58q12 0 31 -8l282 -127q39 -16 39 -41zM754 262v201q-250 -7 -390 -67t-141 -146q0 -72 67 -124q66 -52 178 -52t191 39q45 20 67 47t25 46t3 56zM1071 45q0 -19 -14 -31q-15 -12 -29 -13
t-54 -1t-71 2t-74 20t-67 54q-136 -88 -298 -88t-254 78q-91 78 -91 184q0 141 170 216t465 79q0 258 -291 258q-141 0 -141 -47q-2 -40 -26 -58t-52 -18t-48 20q-22 20 -22 56q0 133 287 133q199 0 298 -92t99 -215v-471q66 -25 140 -25t73 -41z" />
    <glyph glyph-name="aacute" unicode="&#xe1;" 
d="M741 1217q0 -29 -47 -50l-295 -131l-14 -2q-27 0 -38 23t-11 41q0 25 39 41l282 127l31 8q23 0 38 -14t15 -43zM754 262v201q-250 -7 -390 -67t-141 -146q0 -72 67 -124q66 -52 178 -52t191 39q45 20 67 47t25 46t3 56zM1071 45q0 -19 -14 -31q-15 -12 -29 -13t-54 -1
t-71 2t-74 20t-67 54q-136 -88 -298 -88t-254 78q-91 78 -91 184q0 141 170 216t465 79q0 258 -291 258q-141 0 -141 -47q-2 -40 -26 -58t-52 -18t-48 20q-22 20 -22 56q0 133 287 133q199 0 298 -92t99 -215v-471q66 -25 140 -25t73 -41z" />
    <glyph glyph-name="acircumflex" unicode="&#xe2;" 
d="M831 1081q0 -45 -49 -45q-10 0 -61 31l-182 111l-183 -111q-51 -31 -61 -31q-49 0 -49 45q0 16 45 45l211 136q35 23 69 0l215 -136q45 -29 45 -45zM754 262v201q-250 -7 -390 -67t-141 -146q0 -72 67 -124q66 -52 178 -52t191 39q45 20 67 47t25 46t3 56zM1071 45
q0 -19 -14 -31q-15 -12 -29 -13t-54 -1t-71 2t-74 20t-67 54q-136 -88 -298 -88t-254 78q-91 78 -91 184q0 141 170 216t465 79q0 258 -291 258q-141 0 -141 -47q-2 -40 -26 -58t-52 -18t-48 20q-22 20 -22 56q0 133 287 133q199 0 298 -92t99 -215v-471q66 -25 140 -25
t73 -41z" />
    <glyph glyph-name="atilde" unicode="&#xe3;" 
d="M889 1212q0 -28 -93 -96q-94 -68 -150 -68t-101 37q-3 3 -47 41t-66 39q-55 0 -162 -100q-20 -16 -36 -16t-31 14q-14 14 -15 31q0 26 94 96t147 70q54 0 103 -37q4 -3 48 -41t65 -39q53 0 162 98q37 37 67 4q15 -15 15 -33zM754 262v201q-250 -7 -390 -67t-141 -146
q0 -72 67 -124q66 -52 178 -52t191 39q45 20 67 47t25 46t3 56zM1071 45q0 -19 -14 -31q-15 -12 -29 -13t-54 -1t-71 2t-74 20t-67 54q-136 -88 -298 -88t-254 78q-91 78 -91 184q0 141 170 216t465 79q0 258 -291 258q-141 0 -141 -47q-2 -40 -26 -58t-52 -18t-48 20
q-22 20 -22 56q0 133 287 133q199 0 298 -92t99 -215v-471q66 -25 140 -25t73 -41z" />
    <glyph glyph-name="adieresis" unicode="&#xe4;" 
d="M713 1229q31 1 52 -21t21 -54t-22 -54t-52 -21q-30 0 -52 22q-22 21 -22 53t22 54t53 21zM362 1079q-30 0 -52 22q-22 21 -22 53t22 54t52 21q30 1 52 -21t22 -54t-22 -54t-52 -21zM754 262v201q-250 -7 -390 -67t-141 -146q0 -72 67 -124q66 -52 178 -52t191 39
q45 20 67 47t25 46t3 56zM1071 45q0 -19 -14 -31q-15 -12 -29 -13t-54 -1t-71 2t-74 20t-67 54q-136 -88 -298 -88t-254 78q-91 78 -91 184q0 141 170 216t465 79q0 258 -291 258q-141 0 -141 -47q-2 -40 -26 -58t-52 -18t-48 20q-22 20 -22 56q0 133 287 133q199 0 298 -92
t99 -215v-471q66 -25 140 -25t73 -41z" />
    <glyph glyph-name="aring" unicode="&#xe5;" 
d="M748 1154q0 -60 -60 -103t-149 -43q-88 0 -149 43q-60 43 -60 103t60 104t148 44t150 -44q60 -44 60 -104zM645 1154q0 34 -32 53q-33 19 -75 19t-74 -18q-32 -20 -32 -54t32 -52t75 -18t75 18t31 52zM754 262v201q-250 -7 -390 -67t-141 -146q0 -72 67 -124
q66 -52 178 -52t191 39q45 20 67 47t25 46t3 56zM1071 45q0 -19 -14 -31q-15 -12 -29 -13t-54 -1t-71 2t-74 20t-67 54q-136 -88 -298 -88t-254 78q-91 78 -91 184q0 141 170 216t465 79q0 258 -291 258q-141 0 -141 -47q-2 -40 -26 -58t-52 -18t-48 20q-22 20 -22 56
q0 133 287 133q199 0 298 -92t99 -215v-471q66 -25 140 -25t73 -41z" />
    <glyph glyph-name="ae" unicode="&#xe6;" 
d="M150 236q0 -66 42 -114t116 -48q75 0 131 46q57 46 57 140t4 141q-156 -6 -253 -52q-97 -47 -97 -113zM778 803q-68 0 -129 -93t-71 -221h372q-8 166 -56 240t-116 74zM162 680q-30 0 -52 20t-22 66t53 84q53 39 172 39q145 0 244 -174q100 174 219 174t186 -111t66 -305
q0 -41 -11 -55t-52 -15h-387q14 -153 85 -241t152 -88q45 0 81 34t54 103q18 37 39 37q16 0 28 -11q11 -12 11 -28q0 -53 -58 -137t-174 -84t-231 164q-100 -164 -272 -164q-98 0 -159 74q-60 75 -60 167q0 121 116 187q117 66 308 67v90q0 111 -52 170t-139 60
q-27 0 -51 -10t-25 -21l2 -18q-2 -30 -21 -52t-50 -22z" />
    <glyph glyph-name="ccedilla" unicode="&#xe7;" 
d="M895 -247q0 -97 -88 -138t-181 -48t-208 -7q-45 0 -45 45q0 37 48 42q17 1 91 1t176 24t103 82q0 39 -42 71q-43 32 -93 34t-62 16t-12 53v60q-188 16 -307 144q-117 128 -117 292t102 304q52 71 148 116t219 45q295 0 295 -133q0 -36 -22 -56t-52 -20q-70 0 -72 82
q0 16 -52 28t-97 13q-105 0 -183 -41q-78 -42 -114 -104q-65 -112 -68 -222q0 -152 104 -257t236 -105q131 0 188 63q31 35 62 94q16 21 62 16q9 -1 23 -10q13 -10 11 -28q-14 -91 -102 -149t-162 -66v-51q8 -2 22 -4t52 -16q76 -27 114 -88q22 -36 23 -82z" />
    <glyph glyph-name="egrave" unicode="&#xe8;" 
d="M739 1098q0 -18 -11 -41q-12 -23 -30 -23t-22 2l-295 131q-47 19 -47 49q0 58 53 58q12 0 31 -8l282 -127q39 -16 39 -41zM553 803q-119 0 -210 -86t-118 -228h613q-10 121 -58 195t-104 96q-55 22 -123 23zM119 438q0 186 127 318t311 133q185 0 285 -123t100 -305
q0 -49 -31 -55q-10 -2 -32 -3h-656q29 -157 137 -243t240 -86q178 0 246 151q8 23 52 23t44 -45t-80 -123q-38 -39 -112 -66t-164 -26q-197 0 -332 132t-135 318z" />
    <glyph glyph-name="eacute" unicode="&#xe9;" 
d="M741 1217q0 -29 -47 -50l-295 -131l-14 -2q-27 0 -38 23t-11 41q0 25 39 41l282 127l31 8q23 0 38 -14t15 -43zM553 803q-119 0 -210 -86t-118 -228h613q-10 121 -58 195t-104 96q-55 22 -123 23zM119 438q0 186 127 318t311 133q185 0 285 -123t100 -305q0 -49 -31 -55
q-10 -2 -32 -3h-656q29 -157 137 -243t240 -86q178 0 246 151q8 23 52 23t44 -45t-80 -123q-38 -39 -112 -66t-164 -26q-197 0 -332 132t-135 318z" />
    <glyph glyph-name="ecircumflex" unicode="&#xea;" 
d="M831 1081q0 -45 -49 -45q-10 0 -61 31l-182 111l-183 -111q-51 -31 -61 -31q-49 0 -49 45q0 16 45 45l211 136q35 23 69 0l215 -136q45 -29 45 -45zM553 803q-119 0 -210 -86t-118 -228h613q-10 121 -58 195t-104 96q-55 22 -123 23zM119 438q0 186 127 318t311 133
q185 0 285 -123t100 -305q0 -49 -31 -55q-10 -2 -32 -3h-656q29 -157 137 -243t240 -86q178 0 246 151q8 23 52 23t44 -45t-80 -123q-38 -39 -112 -66t-164 -26q-197 0 -332 132t-135 318z" />
    <glyph glyph-name="edieresis" unicode="&#xeb;" 
d="M713 1229q31 1 52 -21t21 -54t-22 -54t-52 -21q-30 0 -52 22q-22 21 -22 53t22 54t53 21zM362 1079q-30 0 -52 22q-22 21 -22 53t22 54t52 21q30 1 52 -21t22 -54t-22 -54t-52 -21zM553 803q-119 0 -210 -86t-118 -228h613q-10 121 -58 195t-104 96q-55 22 -123 23z
M119 438q0 186 127 318t311 133q185 0 285 -123t100 -305q0 -49 -31 -55q-10 -2 -32 -3h-656q29 -157 137 -243t240 -86q178 0 246 151q8 23 52 23t44 -45t-80 -123q-38 -39 -112 -66t-164 -26q-197 0 -332 132t-135 318z" />
    <glyph glyph-name="igrave" unicode="&#xec;" 
d="M739 1098q0 -18 -11 -41q-12 -23 -30 -23t-22 2l-295 131q-47 19 -47 49q0 58 53 58q12 0 31 -8l282 -127q39 -16 39 -41zM924 43q0 -43 -66 -43h-625q-66 0 -65 43q0 43 65 43h279v698h-262q-66 0 -66 43t66 43h301q39 0 51 -13t12 -52v-719h244q66 0 66 -43z" />
    <glyph glyph-name="iacute" unicode="&#xed;" 
d="M741 1217q0 -29 -47 -50l-295 -131l-14 -2q-27 0 -38 23t-11 41q0 25 39 41l282 127l31 8q23 0 38 -14t15 -43zM924 43q0 -43 -66 -43h-625q-66 0 -65 43q0 43 65 43h279v698h-262q-66 0 -66 43t66 43h301q39 0 51 -13t12 -52v-719h244q66 0 66 -43z" />
    <glyph glyph-name="icircumflex" unicode="&#xee;" 
d="M831 1081q0 -45 -49 -45q-10 0 -61 31l-182 111l-183 -111q-51 -31 -61 -31q-49 0 -49 45q0 16 45 45l211 136q35 23 69 0l215 -136q45 -29 45 -45zM924 43q0 -43 -66 -43h-625q-66 0 -65 43q0 43 65 43h279v698h-262q-66 0 -66 43t66 43h301q39 0 51 -13t12 -52v-719
h244q66 0 66 -43z" />
    <glyph glyph-name="idieresis" unicode="&#xef;" 
d="M713 1229q31 1 52 -21t21 -54t-22 -54t-52 -21q-30 0 -52 22q-22 21 -22 53t22 54t53 21zM362 1079q-30 0 -52 22q-22 21 -22 53t22 54t52 21q30 1 52 -21t22 -54t-22 -54t-52 -21zM924 43q0 -43 -66 -43h-625q-66 0 -65 43q0 43 65 43h279v698h-262q-66 0 -66 43t66 43
h301q39 0 51 -13t12 -52v-719h244q66 0 66 -43z" />
    <glyph glyph-name="eth" unicode="&#xf0;" 
d="M846 449q0 153 -92 253t-216 100t-217 -100t-93 -254t90 -264q92 -110 218 -110t218 110t92 265zM950 436q0 -190 -125 -319q-119 -129 -287 -129t-292 130q-123 130 -123 318t122 320t292 133q129 0 286 -121q-39 193 -114 305l-56 -59q-40 -31 -65 -2q-26 29 0 63
l55 58q-88 45 -162 45q-18 0 -31 13q-14 13 -14 31t14 30q14 13 31 14q119 0 221 -72l58 59q12 13 30 13t32 -12q28 -27 3 -62l-61 -59q186 -240 186 -697z" />
    <glyph glyph-name="ntilde" unicode="&#xf1;" 
d="M889 1212q0 -28 -93 -96q-94 -68 -150 -68t-101 37q-3 3 -47 41t-66 39q-55 0 -162 -100q-20 -16 -36 -16t-31 14q-14 14 -15 31q0 26 94 96t147 70q54 0 103 -37q4 -3 48 -41t65 -39q53 0 162 98q37 37 67 4q15 -15 15 -33zM1044 43q0 -43 -63 -43h-324q-66 0 -65 43
q0 43 65 43h105v502q0 111 -36 160t-134 49t-190 -79t-91 -235v-397h115q66 0 66 -43t-64 -43h-336q-63 0 -63 43t65 43h115v698h-117q-63 0 -63 43t65 43h154q45 0 54 -22t9 -107q145 141 299 142q254 0 254 -283v-514h115q65 0 65 -43z" />
    <glyph glyph-name="ograve" unicode="&#xf2;" 
d="M739 1098q0 -18 -11 -41q-12 -23 -30 -23t-22 2l-295 131q-47 19 -47 49q0 58 53 58q12 0 31 -8l282 -127q39 -16 39 -41zM846 449q0 153 -92 253t-216 100t-217 -100t-93 -254t90 -264q92 -110 218 -110t218 110t92 265zM950 436q0 -188 -123 -318t-291 -130t-290 130
q-123 130 -123 318t122 320t292 133q169 -1 291 -133t122 -320z" />
    <glyph glyph-name="oacute" unicode="&#xf3;" 
d="M741 1217q0 -29 -47 -50l-295 -131l-14 -2q-27 0 -38 23t-11 41q0 25 39 41l282 127l31 8q23 0 38 -14t15 -43zM846 449q0 153 -92 253t-216 100t-217 -100t-93 -254t90 -264q92 -110 218 -110t218 110t92 265zM950 436q0 -188 -123 -318t-291 -130t-290 130
q-123 130 -123 318t122 320t292 133q169 -1 291 -133t122 -320z" />
    <glyph glyph-name="ocircumflex" unicode="&#xf4;" 
d="M831 1081q0 -45 -49 -45q-10 0 -61 31l-182 111l-183 -111q-51 -31 -61 -31q-49 0 -49 45q0 16 45 45l211 136q35 23 69 0l215 -136q45 -29 45 -45zM846 449q0 153 -92 253t-216 100t-217 -100t-93 -254t90 -264q92 -110 218 -110t218 110t92 265zM950 436
q0 -188 -123 -318t-291 -130t-290 130q-123 130 -123 318t122 320t292 133q169 -1 291 -133t122 -320z" />
    <glyph glyph-name="otilde" unicode="&#xf5;" 
d="M889 1212q0 -28 -93 -96q-94 -68 -150 -68t-101 37q-3 3 -47 41t-66 39q-55 0 -162 -100q-20 -16 -36 -16t-31 14q-14 14 -15 31q0 26 94 96t147 70q54 0 103 -37q4 -3 48 -41t65 -39q53 0 162 98q37 37 67 4q15 -15 15 -33zM846 449q0 153 -92 253t-216 100t-217 -100
t-93 -254t90 -264q92 -110 218 -110t218 110t92 265zM950 436q0 -188 -123 -318t-291 -130t-290 130q-123 130 -123 318t122 320t292 133q169 -1 291 -133t122 -320z" />
    <glyph glyph-name="odieresis" unicode="&#xf6;" 
d="M713 1229q31 1 52 -21t21 -54t-22 -54t-52 -21q-30 0 -52 22q-22 21 -22 53t22 54t53 21zM362 1079q-30 0 -52 22q-22 21 -22 53t22 54t52 21q30 1 52 -21t22 -54t-22 -54t-52 -21zM846 449q0 153 -92 253t-216 100t-217 -100t-93 -254t90 -264q92 -110 218 -110t218 110
t92 265zM950 436q0 -188 -123 -318t-291 -130t-290 130q-123 130 -123 318t122 320t292 133q169 -1 291 -133t122 -320z" />
    <glyph glyph-name="divide" unicode="&#xf7;" 
d="M535 289q47 0 79 -33t33 -78q0 -45 -32 -79q-33 -33 -79 -33t-79 32t-33 78q0 45 32 79t79 34zM535 1186q47 0 79 -33t33 -78q0 -45 -32 -79q-33 -34 -79 -34t-79 34q-33 32 -33 77t32 79t79 34zM989 627q0 -53 -74 -54h-757q-74 -1 -74 53t86 54h733q86 0 86 -53z" />
    <glyph glyph-name="oslash" unicode="&#xf8;" 
d="M537 803q-150 0 -256 -108q-107 -107 -107 -263t143 -289l365 631q-82 29 -145 29zM899 442q0 158 -143 285l-361 -627q80 -27 142 -26q150 0 256 105t106 263zM979 1127q0 -17 -12 -37l-166 -289q174 -163 174 -357t-129 -325t-309 -131q-88 0 -185 41l-180 -310
q-12 -16 -30 -16t-32 11q-16 10 -16 26t33 76l149 256q-178 154 -178 352t128 332t311 133q80 0 188 -43l168 291q28 48 71 19q15 -12 15 -29z" />
    <glyph glyph-name="ugrave" unicode="&#xf9;" 
d="M739 1098q0 -18 -11 -41q-12 -23 -30 -23t-22 2l-295 131q-47 19 -47 49q0 58 53 58q12 0 31 -8l282 -127q39 -16 39 -41zM981 86q63 0 63 -43t-65 -43h-154q-20 0 -30 3q-11 3 -23 23t-12 62q-133 -100 -273 -100q-279 0 -278 233v563h-117q-63 0 -63 43t65 43h154
q39 0 51 -13t12 -52v-572q0 -39 3 -59q4 -20 20 -48q31 -52 166 -52q182 0 241 133q20 45 21 104v473h-117q-63 0 -63 43t65 43h154q39 0 51 -13t12 -52v-719h117z" />
    <glyph glyph-name="uacute" unicode="&#xfa;" 
d="M741 1217q0 -29 -47 -50l-295 -131l-14 -2q-27 0 -38 23t-11 41q0 25 39 41l282 127l31 8q23 0 38 -14t15 -43zM981 86q63 0 63 -43t-65 -43h-154q-20 0 -30 3q-11 3 -23 23t-12 62q-133 -100 -273 -100q-279 0 -278 233v563h-117q-63 0 -63 43t65 43h154q39 0 51 -13
t12 -52v-572q0 -39 3 -59q4 -20 20 -48q31 -52 166 -52q182 0 241 133q20 45 21 104v473h-117q-63 0 -63 43t65 43h154q39 0 51 -13t12 -52v-719h117z" />
    <glyph glyph-name="ucircumflex" unicode="&#xfb;" 
d="M831 1081q0 -45 -49 -45q-10 0 -61 31l-182 111l-183 -111q-51 -31 -61 -31q-49 0 -49 45q0 16 45 45l211 136q35 23 69 0l215 -136q45 -29 45 -45zM981 86q63 0 63 -43t-65 -43h-154q-20 0 -30 3q-11 3 -23 23t-12 62q-133 -100 -273 -100q-279 0 -278 233v563h-117
q-63 0 -63 43t65 43h154q39 0 51 -13t12 -52v-572q0 -39 3 -59q4 -20 20 -48q31 -52 166 -52q182 0 241 133q20 45 21 104v473h-117q-63 0 -63 43t65 43h154q39 0 51 -13t12 -52v-719h117z" />
    <glyph glyph-name="udieresis" unicode="&#xfc;" 
d="M713 1229q31 1 52 -21t21 -54t-22 -54t-52 -21q-30 0 -52 22q-22 21 -22 53t22 54t53 21zM362 1079q-30 0 -52 22q-22 21 -22 53t22 54t52 21q30 1 52 -21t22 -54t-22 -54t-52 -21zM981 86q63 0 63 -43t-65 -43h-154q-20 0 -30 3q-11 3 -23 23t-12 62
q-133 -100 -273 -100q-279 0 -278 233v563h-117q-63 0 -63 43t65 43h154q39 0 51 -13t12 -52v-572q0 -39 3 -59q4 -20 20 -48q31 -52 166 -52q182 0 241 133q20 45 21 104v473h-117q-63 0 -63 43t65 43h154q39 0 51 -13t12 -52v-719h117z" />
    <glyph glyph-name="yacute" unicode="&#xfd;" 
d="M741 1217q0 -29 -47 -50l-295 -131l-14 -2q-27 0 -38 23t-11 41q0 25 39 41l282 127l31 8q23 0 38 -14t15 -43zM956 870q64 0 64 -43t-64 -43h-77l-332 -979q-15 -39 -48 -98q-34 -59 -66 -96t-82 -66q-49 -29 -109 -29t-104 47q-44 46 -44 92q0 85 72 87q31 0 50 -20
t20 -50l-13 -41q12 -27 25 -26q108 1 160 103q42 82 88 218l14 47l-317 811h-72q-63 0 -64 41q0 45 64 45h248q63 0 63 -43t-63 -43h-84l270 -712l236 712h-82q-63 0 -64 43q0 43 64 43h247z" />
    <glyph glyph-name="thorn" unicode="&#xfe;" 
d="M891 432q0 152 -88 258t-205 106t-202 -78q-85 -79 -85 -179v-156q0 -101 71 -205q72 -104 194 -104t219 103q96 103 96 255zM993 434q0 -186 -123 -316t-290 -130q-131 0 -269 139v-510h115q66 0 66 -44t-64 -44h-336q-63 0 -63 44t65 44h115v1548h-117q-63 0 -63 43
t65 43h154q39 0 51 -13t12 -52v-434q145 131 298 131t269 -131q115 -132 115 -318z" />
    <glyph glyph-name="ydieresis" unicode="&#xff;" 
d="M713 1229q31 1 52 -21t21 -54t-22 -54t-52 -21q-30 0 -52 22q-22 21 -22 53t22 54t53 21zM362 1079q-30 0 -52 22q-22 21 -22 53t22 54t52 21q30 1 52 -21t22 -54t-22 -54t-52 -21zM956 870q64 0 64 -43t-64 -43h-77l-332 -979q-15 -39 -48 -98q-34 -59 -66 -96t-82 -66
q-49 -29 -109 -29t-104 47q-44 46 -44 92q0 85 72 87q31 0 50 -20t20 -50l-13 -41q12 -27 25 -26q108 1 160 103q42 82 88 218l14 47l-317 811h-72q-63 0 -64 41q0 45 64 45h248q63 0 63 -43t-63 -43h-84l270 -712l236 712h-82q-63 0 -64 43q0 43 64 43h247z" />
    <glyph glyph-name="Amacron" unicode="&#x100;" 
d="M854 1489q64 0 64 -45t-64 -45h-629q-66 0 -65 45q0 45 63 45h631zM702 436l-157 754h-15l-159 -754h331zM1014 43q0 -43 -72 -43h-215q-68 0 -68 43q0 31 25 37t98 6l-57 264h-377l-57 -264q75 0 99 -6t24 -37q0 -43 -68 -43h-217q-70 0 -70 43q0 29 25 41q12 2 98 2
l260 1126q14 54 51 62q13 2 45 2t45 -2q31 -5 48 -64l260 -1124q84 0 96 -2q27 -10 27 -41z" />
    <glyph glyph-name="amacron" unicode="&#x101;" 
d="M854 1200q64 0 64 -45t-64 -45h-629q-66 0 -65 45q0 45 63 45h631zM754 262v201q-250 -7 -390 -67t-141 -146q0 -72 67 -124q66 -52 178 -52t191 39q45 20 67 47t25 46t3 56zM1071 45q0 -19 -14 -31q-15 -12 -29 -13t-54 -1t-71 2t-74 20t-67 54q-136 -88 -298 -88
t-254 78q-91 78 -91 184q0 141 170 216t465 79q0 258 -291 258q-141 0 -141 -47q-2 -40 -26 -58t-52 -18t-48 20q-22 20 -22 56q0 133 287 133q199 0 298 -92t99 -215v-471q66 -25 140 -25t73 -41z" />
    <glyph glyph-name="Abreve" unicode="&#x102;" 
d="M846 1575q45 0 45 -44t-26 -75q-27 -31 -59 -45q-77 -33 -267 -33q-191 0 -269 33q-32 14 -58 45t-26 75t45 44q29 0 37 -23q23 -82 271 -82t270 82q8 23 37 23zM702 436l-157 754h-15l-159 -754h331zM1014 43q0 -43 -72 -43h-215q-68 0 -68 43q0 31 25 37t98 6l-57 264
h-377l-57 -264q75 0 99 -6t24 -37q0 -43 -68 -43h-217q-70 0 -70 43q0 29 25 41q12 2 98 2l260 1126q14 54 51 62q13 2 45 2t45 -2q31 -5 48 -64l260 -1124q84 0 96 -2q27 -10 27 -41z" />
    <glyph glyph-name="abreve" unicode="&#x103;" 
d="M891 1209q0 -45 -26 -75q-27 -30 -59 -44t-89 -22q-70 -10 -222 -11q-152 0 -225 33q-32 14 -58 45t-26 75t45 43q29 0 37 -22q23 -82 271 -82t270 82q8 23 37 22q45 0 45 -44zM754 262v201q-250 -7 -390 -67t-141 -146q0 -72 67 -124q66 -52 178 -52t191 39q45 20 67 47
t25 46t3 56zM1071 45q0 -19 -14 -31q-15 -12 -29 -13t-54 -1t-71 2t-74 20t-67 54q-136 -88 -298 -88t-254 78q-91 78 -91 184q0 141 170 216t465 79q0 258 -291 258q-141 0 -141 -47q-2 -40 -26 -58t-52 -18t-48 20q-22 20 -22 56q0 133 287 133q199 0 298 -92t99 -215
v-471q66 -25 140 -25t73 -41z" />
    <glyph glyph-name="Aogonek" unicode="&#x104;" 
d="M702 436l-159 754h-15l-157 -754h331zM1014 43q0 -43 -72 -43h-45q-205 -121 -205 -254q0 -45 38 -75q72 -57 149 -3q37 27 59 60q27 22 43 10t18 -28t-6 -23q-84 -117 -194 -117q-84 0 -136 56q-53 56 -53 126t41 126t142 122q-84 0 -109 6t-25 37t25 37t98 6l-57 264
h-377l-57 -264q75 0 99 -6t24 -37q0 -43 -68 -43h-217q-70 0 -70 43q0 29 25 41q12 2 98 2l260 1126q14 54 51 62q13 2 45 2t45 -2q31 -5 48 -64l260 -1124q84 0 96 -2q27 -10 27 -41z" />
    <glyph glyph-name="aogonek" unicode="&#x105;" 
d="M754 262v201q-250 -7 -390 -67t-141 -146q0 -72 67 -124q66 -52 178 -52t191 39q45 20 67 47t25 46t3 56zM874 -430q-84 0 -136 56t-52 124q0 131 191 254q-49 14 -72 28t-43 44q-136 -88 -298 -88t-254 78q-91 78 -91 184q0 141 170 216t465 79q0 258 -291 258
q-141 0 -141 -47q-2 -40 -26 -58t-52 -18t-48 20q-22 20 -22 56q0 133 287 133q199 0 298 -92t99 -215v-471q66 -25 140 -25t73 -41q0 -38 -44 -43q-15 -2 -48 -2q-209 -123 -209 -254q0 -45 37 -75q71 -58 147 -3q37 27 60 60q31 26 53 6t4 -47q-84 -117 -197 -117z" />
    <glyph glyph-name="Cacute" unicode="&#x106;" 
d="M797 1562q0 -28 -47 -49l-295 -131l-15 -4q-27 0 -38 23t-11 45t39 39l283 127l30 8q23 0 39 -15t15 -43zM985 334q0 -139 -118 -248t-287 -109q-204 1 -348 187t-144 462t144 462t346 186q150 0 280 -113q39 72 43 88q20 25 41 25q43 0 43 -66v-293q0 -23 -2 -33
t-14 -20q-13 -12 -35 -12t-35 9t-20 42q-23 133 -105 210t-188 77q-154 0 -275 -161t-121 -401t121 -402q121 -161 277 -161q96 0 189 66t104 213q4 41 54 41t50 -49z" />
    <glyph glyph-name="cacute" unicode="&#x107;" 
d="M797 1217q0 -29 -47 -50l-295 -131l-15 -2q-27 0 -38 23t-11 41q0 25 39 41l283 127l30 8q23 0 39 -14t15 -43zM948 209q0 -46 -68 -123q-36 -41 -110 -70t-168 -28q-188 0 -316 132t-128 300t102 308q52 71 148 116t219 45q295 0 295 -133q0 -36 -22 -56t-52 -20
q-72 0 -72 82q0 16 -52 28t-97 13q-105 0 -183 -41q-78 -42 -114 -104q-65 -112 -68 -222q0 -152 104 -257t236 -105q131 0 188 63q31 35 62 94q12 16 43 17q53 0 53 -39z" />
    <glyph glyph-name="Ccircumflex" unicode="&#x108;" 
d="M885 1403q0 -45 -49 -45q-14 0 -62 14l-182 62l-182 -62q-47 -14 -62 -14q-49 0 -49 45q0 29 45 45l223 82q27 8 54 0l219 -82q45 -16 45 -45zM985 334q0 -139 -118 -248t-287 -109q-204 1 -348 187t-144 462t144 462t346 186q150 0 280 -113q39 72 43 88q20 25 41 25
q43 0 43 -66v-293q0 -23 -2 -33t-14 -20q-13 -12 -35 -12t-35 9t-20 42q-23 133 -105 210t-188 77q-154 0 -275 -161t-121 -401t121 -402q121 -161 277 -161q96 0 189 66t104 213q4 41 54 41t50 -49z" />
    <glyph glyph-name="ccircumflex" unicode="&#x109;" 
d="M887 1081q0 -45 -49 -45q-10 0 -62 31l-182 111l-182 -111q-51 -31 -62 -31q-49 0 -49 45q0 16 45 45l211 136q35 23 70 0l215 -136q45 -29 45 -45zM948 209q0 -46 -68 -123q-36 -41 -110 -70t-168 -28q-188 0 -316 132t-128 300t102 308q52 71 148 116t219 45
q295 0 295 -133q0 -36 -22 -56t-52 -20q-72 0 -72 82q0 16 -52 28t-97 13q-105 0 -183 -41q-78 -42 -114 -104q-65 -112 -68 -222q0 -152 104 -257t236 -105q131 0 188 63q31 35 62 94q12 16 43 17q53 0 53 -39z" />
    <glyph glyph-name="Cdotaccent" unicode="&#x10a;" 
d="M678 1464q0 -36 -25 -60t-59 -24t-60 25q-24 25 -24 59t25 61q25 25 59 25t60 -26q24 -26 24 -60zM985 334q0 -139 -118 -248t-287 -109q-204 1 -348 187t-144 462t144 462t346 186q150 0 280 -113q39 72 43 88q20 25 41 25q43 0 43 -66v-293q0 -23 -2 -33t-14 -20
q-13 -12 -35 -12t-35 9t-20 42q-23 133 -105 210t-188 77q-154 0 -275 -161t-121 -401t121 -402q121 -161 277 -161q96 0 189 66t104 213q4 41 54 41t50 -49z" />
    <glyph glyph-name="cdotaccent" unicode="&#x10b;" 
d="M678 1154q0 -36 -25 -60t-59 -25q-34 0 -60 25q-24 24 -24 60t25 60t59 25q34 -1 60 -25q24 -24 24 -60zM948 209q0 -46 -68 -123q-36 -41 -110 -70t-168 -28q-188 0 -316 132t-128 300t102 308q52 71 148 116t219 45q295 0 295 -133q0 -36 -22 -56t-52 -20q-72 0 -72 82
q0 16 -52 28t-97 13q-105 0 -183 -41q-78 -42 -114 -104q-65 -112 -68 -222q0 -152 104 -257t236 -105q131 0 188 63q31 35 62 94q12 16 43 17q53 0 53 -39z" />
    <glyph glyph-name="Ccaron" unicode="&#x10c;" 
d="M885 1491q0 -29 -45 -45l-224 -82q-27 -8 -53 0l-219 82q-45 16 -45 45q0 45 49 45q14 0 62 -14l182 -62l182 62q47 14 62 14q49 0 49 -45zM985 334q0 -139 -118 -248t-287 -109q-204 1 -348 187t-144 462t144 462t346 186q150 0 280 -113q39 72 43 88q20 25 41 25
q43 0 43 -66v-293q0 -23 -2 -33t-14 -20q-13 -12 -35 -12t-35 9t-20 42q-23 133 -105 210t-188 77q-154 0 -275 -161t-121 -401t121 -402q121 -161 277 -161q96 0 189 66t104 213q4 41 54 41t50 -49z" />
    <glyph glyph-name="ccaron" unicode="&#x10d;" 
d="M887 1227q0 -16 -45 -45l-211 -135q-35 -23 -70 0l-215 135q-45 29 -45 45q0 45 49 45q10 0 62 -31l182 -111l182 111q51 31 62 31q49 0 49 -45zM948 209q0 -46 -68 -123q-36 -41 -110 -70t-168 -28q-188 0 -316 132t-128 300t102 308q52 71 148 116t219 45
q295 0 295 -133q0 -36 -22 -56t-52 -20q-72 0 -72 82q0 16 -52 28t-97 13q-105 0 -183 -41q-78 -42 -114 -104q-65 -112 -68 -222q0 -152 104 -257t236 -105q131 0 188 63q31 35 62 94q12 16 43 17q53 0 53 -39z" />
    <glyph glyph-name="Dcaron" unicode="&#x10e;" 
d="M700 1491q0 -29 -45 -45l-223 -82q-27 -8 -53 0l-219 82q-45 16 -45 45q0 45 49 45q14 0 61 -14l183 -62l182 62q47 14 61 14q49 0 49 -45zM504 86q176 0 278 160t103 371q-1 212 -103 380t-278 168h-223v-1079h223zM545 1251q197 1 319 -189t123 -445q0 -255 -124 -436
t-318 -181h-436q-66 0 -66 43t66 43h67v1079h-67q-66 0 -66 43t66 43h436z" />
    <glyph glyph-name="dcaron" unicode="&#x10f;" 
d="M1167 1114q1 -104 -71 -172t-121 -68q-11 0 -21 10t-10 24q0 13 19 18q147 49 147 182q-24 -12 -56 -12t-55 22t-23 57q0 33 22 55t63 22t73 -39q32 -38 33 -99zM762 389v152q0 98 -77 177t-193 79q-116 1 -213 -103t-97 -257t89 -258t211 -105t201 103t79 212zM981 86
q63 0 63 -43t-65 -43h-154q-45 0 -54 24t-9 113q-145 -149 -298 -149q-152 0 -268 130t-116 317t122 317t290 131q129 0 270 -121v403h-117q-63 0 -63 43t65 43h154q39 0 51 -13t12 -52v-1100h117z" />
    <glyph glyph-name="Dcroat" unicode="&#x110;" 
d="M504 86q176 0 278 160t103 371q-1 212 -103 380t-278 168h-223v-493h145q18 0 32 -14t13 -32q0 -20 -13 -32t-32 -12h-145v-496h223zM545 1251q197 1 319 -189t123 -445q0 -255 -124 -436t-318 -181h-436q-66 0 -66 43t66 43h67v496h-80q-18 0 -31 12t-13 32t12 32
q14 13 32 14h80v493h-67q-66 0 -66 43t66 43h436z" />
    <glyph glyph-name="dcroat" unicode="&#x111;" 
d="M762 389v152q0 98 -77 177t-193 79q-116 1 -213 -103t-97 -257t89 -258t211 -105t201 103t79 212zM981 86q63 0 63 -43t-65 -43h-154q-45 0 -54 24t-9 113q-145 -149 -298 -149q-152 0 -268 130t-116 317t122 317t290 131q129 0 270 -121v211h-336q-18 0 -31 12
q-12 13 -12 31t12 32t31 13h336v104h-117q-63 0 -63 43t65 43h154q39 0 51 -13t12 -52v-125h127q17 0 31 -13q14 -14 14 -32t-13 -30t-32 -13h-127v-887h117z" />
    <glyph glyph-name="Emacron" unicode="&#x112;" 
d="M854 1489q64 0 64 -45t-64 -45h-629q-66 0 -65 45q0 45 63 45h631zM1024 66q0 -38 -12 -52t-51 -14h-838q-66 0 -66 43t66 43h86v1079h-86q-66 0 -66 43t66 43h790q39 0 51 -13t13 -52v-156q0 -39 -14 -52t-44 -13t-38 17t-9 48v135h-561v-473h322q0 54 2 74t13 34t36 13
q51 0 51 -65v-197q0 -39 -13 -52t-43 -13t-38 22q-8 23 -8 98h-322v-520h609v168q0 39 14 52t44 13t38 -16t8 -49v-188z" />
    <glyph glyph-name="emacron" unicode="&#x113;" 
d="M854 1200q64 0 64 -45t-64 -45h-629q-66 0 -65 45q0 45 63 45h631zM553 803q-119 0 -210 -86t-118 -228h613q-10 121 -58 195t-104 96q-55 22 -123 23zM119 438q0 186 127 318t311 133q185 0 285 -123t100 -305q0 -49 -31 -55q-10 -2 -32 -3h-656q29 -157 137 -243
t240 -86q178 0 246 151q8 23 52 23t44 -45t-80 -123q-38 -39 -112 -66t-164 -26q-197 0 -332 132t-135 318z" />
    <glyph glyph-name="Ebreve" unicode="&#x114;" 
d="M846 1575q45 0 45 -44t-26 -75q-27 -31 -59 -45q-77 -33 -267 -33q-191 0 -269 33q-32 14 -58 45t-26 75t45 44q29 0 37 -23q23 -82 271 -82t270 82q8 23 37 23zM1024 66q0 -38 -12 -52t-51 -14h-838q-66 0 -66 43t66 43h86v1079h-86q-66 0 -66 43t66 43h790q39 0 51 -13
t13 -52v-156q0 -39 -14 -52t-44 -13t-38 17t-9 48v135h-561v-473h322q0 54 2 74t13 34t36 13q51 0 51 -65v-197q0 -39 -13 -52t-43 -13t-38 22q-8 23 -8 98h-322v-520h609v168q0 39 14 52t44 13t38 -16t8 -49v-188z" />
    <glyph glyph-name="ebreve" unicode="&#x115;" 
d="M891 1209q0 -45 -26 -75q-27 -30 -59 -44t-89 -22q-70 -10 -222 -11q-152 0 -225 33q-32 14 -58 45t-26 75t45 43q29 0 37 -22q23 -82 271 -82t270 82q8 23 37 22q45 0 45 -44zM553 803q-119 0 -210 -86t-118 -228h613q-10 121 -58 195t-104 96q-55 22 -123 23zM119 438
q0 186 127 318t311 133q185 0 285 -123t100 -305q0 -49 -31 -55q-10 -2 -32 -3h-656q29 -157 137 -243t240 -86q178 0 246 151q8 23 52 23t44 -45t-80 -123q-38 -39 -112 -66t-164 -26q-197 0 -332 132t-135 318z" />
    <glyph glyph-name="Edotaccent" unicode="&#x116;" 
d="M623 1464q0 -36 -25 -60q-26 -24 -60 -24t-59 25t-25 59t25 61q25 25 60 25t59 -26t25 -60zM1024 66q0 -38 -12 -52t-51 -14h-838q-66 0 -66 43t66 43h86v1079h-86q-66 0 -66 43t66 43h790q39 0 51 -13t13 -52v-156q0 -39 -14 -52t-44 -13t-38 17t-9 48v135h-561v-473
h322q0 54 2 74t13 34t36 13q51 0 51 -65v-197q0 -39 -13 -52t-43 -13t-38 22q-8 23 -8 98h-322v-520h609v168q0 39 14 52t44 13t38 -16t8 -49v-188z" />
    <glyph glyph-name="edotaccent" unicode="&#x117;" 
d="M539 1239q35 -1 59 -25t25 -60q0 -36 -25 -60q-26 -24 -60 -25q-34 0 -59 25q-25 24 -25 60t26 60q24 24 59 25zM553 803q-119 0 -210 -86t-118 -228h613q-10 121 -58 195t-104 96q-55 22 -123 23zM119 438q0 186 127 318t311 133q185 0 285 -123t100 -305q0 -49 -31 -55
q-10 -2 -32 -3h-656q29 -157 137 -243t240 -86q178 0 246 151q8 23 52 23t44 -45t-80 -123q-38 -39 -112 -66t-164 -26q-197 0 -332 132t-135 318z" />
    <glyph glyph-name="Eogonek" unicode="&#x118;" 
d="M1024 66q0 -38 -12 -52t-51 -14h-62q-207 -123 -207 -254q0 -45 38 -75q72 -57 149 -3q37 27 59 60q27 22 43 10t18 -28t-6 -23q-84 -117 -194 -117q-84 0 -136 56q-53 56 -53 125t42 126t143 123h-672q-66 0 -66 43t66 43h86v1079h-86q-66 0 -66 43t66 43h790
q39 0 51 -13t13 -52v-156q0 -39 -14 -52t-44 -13t-38 17t-9 48v135h-561v-473h322q0 54 2 74t13 34t36 13q51 0 51 -65v-197q0 -39 -13 -52t-43 -13t-38 22q-8 23 -8 98h-322v-520h609v168q0 39 14 52t44 13t38 -16t8 -49v-188z" />
    <glyph glyph-name="eogonek" unicode="&#x119;" 
d="M553 803q-119 0 -210 -86t-118 -228h613q-10 121 -58 195t-104 96q-55 22 -123 23zM629 -430q-84 0 -136 56q-53 56 -53 127t31 124t121 111q-221 20 -347 145t-126 308t127 315t311 133q185 0 285 -123t100 -305q0 -49 -31 -55q-10 -2 -32 -3h-656q29 -157 137 -243
t240 -86q178 0 246 151q8 23 51 23t45 -40t-57 -96t-107 -85q-252 -148 -254 -269q0 -57 38 -87q71 -56 147 -3q37 27 59 60q32 26 54 6t3 -47q-84 -117 -196 -117z" />
    <glyph glyph-name="Ecaron" unicode="&#x11a;" 
d="M829 1491q0 -29 -45 -45l-223 -82q-27 -8 -53 0l-219 82q-45 16 -45 45q0 45 49 45q14 0 61 -14l183 -62l182 62q47 14 61 14q49 0 49 -45zM1024 66q0 -38 -12 -52t-51 -14h-838q-66 0 -66 43t66 43h86v1079h-86q-66 0 -66 43t66 43h790q39 0 51 -13t13 -52v-156
q0 -39 -14 -52t-44 -13t-38 17t-9 48v135h-561v-473h322q0 54 2 74t13 34t36 13q51 0 51 -65v-197q0 -39 -13 -52t-43 -13t-38 22q-8 23 -8 98h-322v-520h609v168q0 39 14 52t44 13t38 -16t8 -49v-188z" />
    <glyph glyph-name="ecaron" unicode="&#x11b;" 
d="M831 1227q0 -16 -45 -45l-211 -135q-35 -23 -69 0l-215 135q-45 29 -45 45q0 45 49 45q10 0 61 -31l183 -111l182 111q51 31 61 31q49 0 49 -45zM553 803q-119 0 -210 -86t-118 -228h613q-10 121 -58 195t-104 96q-55 22 -123 23zM119 438q0 186 127 318t311 133
q185 0 285 -123t100 -305q0 -49 -31 -55q-10 -2 -32 -3h-656q29 -157 137 -243t240 -86q178 0 246 151q8 23 52 23t44 -45t-80 -123q-38 -39 -112 -66t-164 -26q-197 0 -332 132t-135 318z" />
    <glyph glyph-name="Gcircumflex" unicode="&#x11c;" 
d="M829 1403q0 -45 -49 -45q-14 0 -61 14l-182 62l-183 -62q-47 -14 -61 -14q-49 0 -49 45q0 29 45 45l223 82q27 8 53 0l219 -82q45 -16 45 -45zM1012 487q0 -35 -46 -43q-17 -2 -55 -2v-376q0 -66 -51 -66q-37 0 -45 24t-8 101q-127 -147 -272 -148q-187 1 -319 187
t-132 462t132 461q132 186 319 187q131 0 256 -109q31 70 43 89t34 20q43 0 43 -66v-293q0 -23 -2 -33t-14 -20q-12 -12 -46 -12t-40 33q-28 179 -120 250q-71 55 -146 55q-137 0 -247 -161t-110 -401t108 -401q108 -162 247 -162q98 1 171 93t93 286h-113q-63 0 -63 43
t63 43h254q66 0 66 -41z" />
    <glyph glyph-name="gcircumflex" unicode="&#x11d;" 
d="M758 1081q0 -45 -49 -45q-10 0 -62 31l-182 111l-182 -111q-51 -31 -62 -31q-49 0 -49 45q0 16 45 45l211 136q35 23 70 0l215 -136q45 -29 45 -45zM537 -399q163 0 277 63t114 136q0 141 -153 180q-117 28 -268 28t-188 -5t-77 -32q-96 -59 -97 -166q0 -78 114 -141
t278 -63zM700 563q0 96 -65 166q-66 70 -159 70t-160 -69q-66 -69 -66 -165t66 -166q66 -69 158 -69q93 0 160 68q66 69 66 165zM905 893q65 -1 99 -29t34 -62t-19 -50q-41 -35 -82 0q-19 16 -28 57q-90 -8 -170 -51q63 -106 64 -193q0 -133 -95 -226t-233 -93
q-102 0 -201 63q-45 -114 5 -176q25 -31 39 -37q24 -10 110 -10h150q313 0 398 -157q34 -62 34 -124q0 -127 -138 -209t-336 -81q-198 0 -335 82t-138 208q0 154 168 256q-59 78 -59 156t47 148q-72 93 -72 211q-1 118 95 212t219 94t221 -67q104 78 223 78z" />
    <glyph glyph-name="Gbreve" unicode="&#x11e;" 
d="M846 1575q45 0 45 -44t-26 -75q-27 -31 -59 -45q-77 -33 -267 -33q-191 0 -269 33q-32 14 -58 45t-26 75t45 44q29 0 37 -23q23 -82 271 -82t270 82q8 23 37 23zM1012 487q0 -35 -46 -43q-17 -2 -55 -2v-376q0 -66 -51 -66q-37 0 -45 24t-8 101q-127 -147 -272 -148
q-187 1 -319 187t-132 462t132 461q132 186 319 187q131 0 256 -109q31 70 43 89t34 20q43 0 43 -66v-293q0 -23 -2 -33t-14 -20q-12 -12 -46 -12t-40 33q-28 179 -120 250q-71 55 -146 55q-137 0 -247 -161t-110 -401t108 -401q108 -162 247 -162q98 1 171 93t93 286h-113
q-63 0 -63 43t63 43h254q66 0 66 -41z" />
    <glyph glyph-name="gbreve" unicode="&#x11f;" 
d="M817 1209q1 -45 -25 -75t-59 -44t-90 -22t-90 -10q-33 -1 -88 -1t-130 2t-123 24q-101 45 -99 125q0 45 45 45q29 0 37 -22q23 -82 271 -82t269 82q8 23 37 22q45 0 45 -44zM537 -399q163 0 277 63t114 136q0 141 -153 180q-117 28 -268 28t-188 -5t-77 -32
q-96 -59 -97 -166q0 -78 114 -141t278 -63zM700 563q0 96 -65 166q-66 70 -159 70t-160 -69q-66 -69 -66 -165t66 -166q66 -69 158 -69q93 0 160 68q66 69 66 165zM905 893q65 -1 99 -29t34 -62t-19 -50q-41 -35 -82 0q-19 16 -28 57q-90 -8 -170 -51q63 -106 64 -193
q0 -133 -95 -226t-233 -93q-102 0 -201 63q-45 -114 5 -176q25 -31 39 -37q24 -10 110 -10h150q313 0 398 -157q34 -62 34 -124q0 -127 -138 -209t-336 -81q-198 0 -335 82t-138 208q0 154 168 256q-59 78 -59 156t47 148q-72 93 -72 211q-1 118 95 212t219 94t221 -67
q104 78 223 78z" />
    <glyph glyph-name="Gdotaccent" unicode="&#x120;" 
d="M623 1464q0 -36 -25 -60q-26 -24 -60 -24t-59 25t-25 59t25 61q25 25 60 25t59 -26t25 -60zM1012 487q0 -35 -46 -43q-17 -2 -55 -2v-376q0 -66 -51 -66q-37 0 -45 24t-8 101q-127 -147 -272 -148q-187 1 -319 187t-132 462t132 461q132 186 319 187q131 0 256 -109
q31 70 43 89t34 20q43 0 43 -66v-293q0 -23 -2 -33t-14 -20q-12 -12 -46 -12t-40 33q-28 179 -120 250q-71 55 -146 55q-137 0 -247 -161t-110 -401t108 -401q108 -162 247 -162q98 1 171 93t93 286h-113q-63 0 -63 43t63 43h254q66 0 66 -41z" />
    <glyph glyph-name="gdotaccent" unicode="&#x121;" 
d="M549 1154q0 -36 -25 -60q-26 -24 -60 -25q-34 0 -58 25q-24 24 -25 60q0 36 25 60q26 24 60 25q34 -1 58 -25t25 -60zM537 -399q163 0 277 63t114 136q0 141 -153 180q-117 28 -268 28t-188 -5t-77 -32q-96 -59 -97 -166q0 -78 114 -141t278 -63zM700 563q0 96 -65 166
q-66 70 -159 70t-160 -69q-66 -69 -66 -165t66 -166q66 -69 158 -69q93 0 160 68q66 69 66 165zM905 893q65 -1 99 -29t34 -62t-19 -50q-41 -35 -82 0q-19 16 -28 57q-90 -8 -170 -51q63 -106 64 -193q0 -133 -95 -226t-233 -93q-102 0 -201 63q-45 -114 5 -176
q25 -31 39 -37q24 -10 110 -10h150q313 0 398 -157q34 -62 34 -124q0 -127 -138 -209t-336 -81q-198 0 -335 82t-138 208q0 154 168 256q-59 78 -59 156t47 148q-72 93 -72 211q-1 118 95 212t219 94t221 -67q104 78 223 78z" />
    <glyph glyph-name="Gcommaaccent" unicode="&#x122;" 
d="M649 -250q1 -104 -71 -172t-121 -67q-11 0 -21 10t-10 23t18 18q147 49 148 182q-24 -12 -56 -12t-55 22t-23 57q0 33 24 55q22 22 62 22t72 -39q32 -38 33 -99zM1012 487q0 -35 -46 -43q-17 -2 -55 -2v-376q0 -66 -51 -66q-37 0 -45 24t-8 101q-127 -147 -272 -148
q-187 1 -319 187t-132 462t132 461q132 186 319 187q131 0 256 -109q31 70 43 89t34 20q43 0 43 -66v-293q0 -23 -2 -33t-14 -20q-12 -12 -46 -12t-40 33q-28 179 -120 250q-71 55 -146 55q-137 0 -247 -161t-110 -401t108 -401q108 -162 247 -162q98 1 171 93t93 286h-113
q-63 0 -63 43t63 43h254q66 0 66 -41z" />
    <glyph glyph-name="gcommaaccent" unicode="&#x123;" 
d="M537 -399q163 0 277 63t114 136q0 141 -153 180q-117 28 -268 28t-188 -5t-77 -32q-96 -59 -97 -166q0 -78 114 -141t278 -63zM700 563q0 96 -65 166q-66 70 -159 70t-160 -69q-66 -69 -66 -165t66 -166q66 -69 158 -69q93 0 160 68q66 69 66 165zM905 893q65 -1 99 -29
t34 -62t-19 -50q-41 -35 -82 0q-19 16 -28 57q-90 -8 -170 -51q63 -106 64 -193q0 -133 -95 -226t-233 -93q-102 0 -201 63q-45 -114 5 -176q25 -31 39 -37q24 -10 110 -10h150q313 0 398 -157q34 -62 34 -124q0 -127 -138 -209t-336 -81q-198 0 -335 82t-138 208
q0 154 168 256q-59 78 -59 156t47 148q-72 93 -72 211q-1 118 95 212t219 94t221 -67q104 78 223 78zM545 1348q12 0 21 -10t9 -24q0 -13 -18 -18q-147 -49 -147 -182q24 12 56 12t54 -22t23 -56q0 -32 -22 -55q-23 -23 -63 -23t-73 39q-33 38 -33 99q0 104 72 172t121 68z
" />
    <glyph glyph-name="Hcircumflex" unicode="&#x124;" 
d="M829 1403q0 -45 -49 -45q-14 0 -61 14l-182 62l-183 -62q-47 -14 -61 -14q-49 0 -49 45q0 29 45 45l223 82q27 8 53 0l219 -82q45 -16 45 -45zM1024 43q0 -43 -63 -43h-252q-63 0 -64 45q0 41 64 41h73v522h-491v-522h74q63 0 63 -43t-63 -43h-252q-63 0 -64 43
q0 43 64 43h73v1079h-73q-63 0 -64 41q0 45 64 45h252q63 0 63 -43t-63 -43h-74v-471h491v471h-73q-63 0 -64 43q0 43 64 43h252q63 0 63 -43t-63 -43h-74v-1079h74q63 0 63 -43z" />
    <glyph glyph-name="hcircumflex" unicode="&#x125;" 
d="M829 1403q0 -45 -49 -45q-14 0 -61 14l-182 62l-183 -62q-47 -14 -61 -14q-49 0 -49 45q0 29 45 45l223 82q27 8 53 0l219 -82q45 -16 45 -45zM1044 43q0 -43 -63 -43h-324q-66 0 -65 43q0 43 65 43h105v502q0 111 -36 160t-134 49t-190 -79t-91 -235v-397h115
q66 0 66 -43t-64 -43h-336q-63 0 -63 43t65 43h115v1079h-117q-63 0 -63 43t65 43h154q39 0 51 -13t12 -52v-445q145 141 299 142q254 0 254 -283v-514h115q65 0 65 -43z" />
    <glyph glyph-name="Hbar" unicode="&#x126;" 
d="M782 694v209h-491v-209h491zM1024 43q0 -43 -63 -43h-252q-63 0 -64 45q0 41 64 41h73v522h-491v-522h74q63 0 63 -43t-63 -43h-252q-63 0 -64 43q0 43 64 43h73v817h-84q-18 0 -31 13q-13 14 -13 32t12 32q14 14 32 13h84v172h-73q-63 0 -64 41q0 45 64 45h252
q63 0 63 -43t-63 -43h-74v-172h491v172h-73q-63 0 -64 43q0 43 64 43h252q63 0 63 -43t-63 -43h-74v-172h84q18 0 31 -13q14 -14 14 -32t-14 -32t-31 -13h-84v-817h74q63 0 63 -43z" />
    <glyph glyph-name="hbar" unicode="&#x127;" 
d="M1044 43q0 -43 -63 -43h-324q-66 0 -65 43q0 43 65 43h105v502q0 111 -36 160t-134 49t-190 -79t-91 -235v-397h115q66 0 66 -43t-64 -43h-336q-63 0 -63 43t65 43h115v887h-127q-18 0 -32 12q-13 13 -13 31t13 32t32 13h127v104h-117q-63 0 -63 43t65 43h154
q39 0 51 -13t12 -52v-125h228q18 0 31 -13q14 -14 14 -32t-14 -30t-31 -13h-228v-232q145 141 299 142q254 0 254 -283v-514h115q65 0 65 -43z" />
    <glyph glyph-name="Itilde" unicode="&#x128;" 
d="M889 1522q0 -29 -96 -99q-144 -113 -248 -28q-53 49 -73 63t-40 15q-57 0 -162 -99q-20 -16 -36 -16t-31 14q-14 14 -15 31q0 25 94 95t147 71q54 0 103 -37q4 -4 15 -12q76 -66 98 -68q53 0 162 98q37 37 67 4q15 -14 15 -32zM905 43q0 -43 -65 -43h-604q-66 0 -66 43
t66 43h249v1079h-249q-66 0 -66 43t66 43h604q66 0 65 -45q0 -41 -65 -41h-250v-1079h250q65 0 65 -43z" />
    <glyph glyph-name="itilde" unicode="&#x129;" 
d="M889 1212q0 -28 -93 -96q-94 -68 -150 -68t-101 37q-3 3 -47 41t-66 39q-55 0 -162 -100q-20 -16 -36 -16t-31 14q-14 14 -15 31q0 26 94 96t147 70q54 0 103 -37q4 -3 48 -41t65 -39q53 0 162 98q37 37 67 4q15 -15 15 -33zM924 43q0 -43 -66 -43h-625q-66 0 -65 43
q0 43 65 43h279v698h-262q-66 0 -66 43t66 43h301q39 0 51 -13t12 -52v-719h244q66 0 66 -43z" />
    <glyph glyph-name="Imacron" unicode="&#x12a;" 
d="M854 1489q64 0 64 -45t-64 -45h-629q-66 0 -65 45q0 45 63 45h631zM905 43q0 -43 -65 -43h-604q-66 0 -66 43t66 43h249v1079h-249q-66 0 -66 43t66 43h604q66 0 65 -45q0 -41 -65 -41h-250v-1079h250q65 0 65 -43z" />
    <glyph glyph-name="imacron" unicode="&#x12b;" 
d="M854 1200q64 0 64 -45t-64 -45h-629q-66 0 -65 45q0 45 63 45h631zM924 43q0 -43 -66 -43h-625q-66 0 -65 43q0 43 65 43h279v698h-262q-66 0 -66 43t66 43h301q39 0 51 -13t12 -52v-719h244q66 0 66 -43z" />
    <glyph glyph-name="Ibreve" unicode="&#x12c;" 
d="M846 1575q45 0 45 -44t-26 -75q-27 -31 -59 -45q-77 -33 -267 -33q-191 0 -269 33q-32 14 -58 45t-26 75t45 44q29 0 37 -23q23 -82 271 -82t270 82q8 23 37 23zM905 43q0 -43 -65 -43h-604q-66 0 -66 43t66 43h249v1079h-249q-66 0 -66 43t66 43h604q66 0 65 -45
q0 -41 -65 -41h-250v-1079h250q65 0 65 -43z" />
    <glyph glyph-name="ibreve" unicode="&#x12d;" 
d="M891 1209q0 -45 -26 -75q-27 -30 -59 -44t-89 -22q-70 -10 -222 -11q-152 0 -225 33q-32 14 -58 45t-26 75t45 43q29 0 37 -22q23 -82 271 -82t270 82q8 23 37 22q45 0 45 -44zM924 43q0 -43 -66 -43h-625q-66 0 -65 43q0 43 65 43h279v698h-262q-66 0 -66 43t66 43h301
q39 0 51 -13t12 -52v-719h244q66 0 66 -43z" />
    <glyph glyph-name="Iogonek" unicode="&#x12e;" 
d="M905 43q0 -43 -65 -43h-213q-74 -43 -124 -111t-50 -128q1 -60 37 -90q70 -57 147 -3q37 27 59 60q31 25 54 4t2 -45q-84 -117 -195 -117q-84 0 -136 56t-52 124q0 135 147 250h-280q-66 0 -66 43t66 43h249v1079h-249q-66 0 -66 43t66 43h604q66 0 65 -45q0 -41 -65 -41
h-250v-1079h250q65 0 65 -43z" />
    <glyph glyph-name="iogonek" unicode="&#x12f;" 
d="M924 43q0 -43 -66 -43h-258q-76 -43 -125 -111t-49 -128t38 -90t77 -29q68 0 131 86q6 6 21 9t28 -3q25 -18 6 -47q-84 -117 -195 -117q-84 0 -136 56t-52 124q0 131 154 250h-265q-66 0 -65 43q0 43 65 43h279v698h-262q-66 0 -66 43t66 43h301q39 0 51 -13t12 -52v-719
h244q66 0 66 -43zM614 1169q0 -35 -24 -61t-60 -25q-36 0 -60 26q-24 27 -24 61t25 59t59 25t60 -25q24 -25 24 -60z" />
    <glyph glyph-name="Idotaccent" unicode="&#x130;" 
d="M623 1464q0 -36 -25 -60q-26 -24 -60 -24t-59 25t-25 59t25 61q25 25 60 25t59 -26t25 -60zM905 43q0 -43 -65 -43h-604q-66 0 -66 43t66 43h249v1079h-249q-66 0 -66 43t66 43h604q66 0 65 -45q0 -41 -65 -41h-250v-1079h250q65 0 65 -43z" />
    <glyph glyph-name="dotlessi" unicode="&#x131;" 
d="M924 43q0 -43 -66 -43h-625q-66 0 -65 43q0 43 65 43h279v698h-262q-66 0 -66 43t66 43h301q39 0 51 -13t12 -52v-719h244q66 0 66 -43z" />
    <glyph glyph-name="Jcircumflex" unicode="&#x134;" 
d="M1004 1403q0 -45 -50 -45q-14 0 -61 14l-182 62l-183 -62q-47 -14 -61 -14q-49 0 -49 45q0 29 45 45l223 82q27 8 53 0l219 -82q46 -16 46 -45zM973 1208q0 -43 -66 -43h-84v-903q0 -129 -100 -207q-99 -78 -243 -78q-144 1 -235 59t-91 152q0 37 21 58q23 20 53 20
t51 -21q20 -23 20 -49t-25 -59q82 -74 209 -74q57 1 118 25q118 48 118 186v891h-195q-66 0 -65 43q0 43 65 43h383q66 0 66 -43z" />
    <glyph glyph-name="jcircumflex" unicode="&#x135;" 
d="M946 1081q0 -45 -49 -45q-10 0 -61 31l-183 111l-182 -111q-51 -31 -61 -31q-49 0 -50 45q0 16 46 45l210 136q35 23 70 0l215 -136q45 -29 45 -45zM739 -115q0 -118 -70 -230q-38 -60 -114 -99t-178 -39q-272 0 -273 141q0 35 23 55q23 21 51 21t50 -20t22 -54l-10 -35
q50 -20 118 -20t92 3t62 23t66 62q59 82 59 203v888h-297q-63 0 -64 41q0 45 66 45h334q41 0 52 -13t11 -52v-920z" />
    <glyph glyph-name="Kcommaaccent" unicode="&#x136;" 
d="M649 -250q1 -104 -71 -172t-121 -67q-11 0 -21 10t-10 23t18 18q147 49 148 182q-24 -12 -56 -12t-55 22t-23 57q0 33 24 55q22 22 62 22t72 -39q32 -38 33 -99zM1010 43q0 -43 -68 -43h-158q-66 0 -65 45q0 29 22 35q23 6 78 6l-330 590l-221 -279v-311h68q66 0 65 -43
q0 -43 -65 -43h-213q-66 0 -66 43t66 43h63v1079h-63q-66 0 -66 43t66 43h213q66 0 65 -45q0 -41 -65 -41h-68v-645l512 645q-90 0 -103 18q-7 9 -7 23q0 45 65 45h187q66 0 65 -43q0 -34 -47 -41q-18 -2 -61 -2l-338 -426l366 -653q69 0 86 -12t17 -31z" />
    <glyph glyph-name="kcommaaccent" unicode="&#x137;" 
d="M649 -250q1 -104 -71 -172t-121 -67q-11 0 -21 10t-10 23t18 18q147 49 148 182q-24 -12 -56 -12t-55 22t-23 57q0 33 24 55q22 22 62 22t72 -39q32 -38 33 -99zM1036 43q0 -43 -65 -43h-250q-63 0 -64 43q1 27 21 33t63 6h52l-287 375l-195 -174v-197h125q63 0 64 -43
q0 -43 -64 -43h-325q-63 0 -64 45q0 41 64 41h110v1079h-110q-63 0 -64 43q0 43 64 43h137q39 0 51 -13t12 -52v-795l418 393h-131q-63 0 -63 43t63 43h326q66 0 65 -45q0 -41 -65 -41h-76l-281 -266l332 -432h72q65 0 65 -43z" />
    <glyph glyph-name="Lacute" unicode="&#x139;" 
d="M498 1562q0 -28 -47 -49l-295 -131l-15 -4q-27 0 -38 23t-11 45t39 39l283 127l30 8q22 0 38 -15t16 -43zM993 66q0 -38 -12 -52t-51 -14h-795q-63 0 -63 43t63 43h98v1079h-98q-63 0 -63 43t63 43h342q66 0 66 -43t-66 -43h-139v-1079h553v168q0 39 13 52t43 13t38 -16
t8 -49v-188z" />
    <glyph glyph-name="lacute" unicode="&#x13a;" 
d="M741 1562q0 -28 -47 -49l-295 -131l-14 -4q-27 0 -38 23t-11 45t39 39l282 127l31 8q23 0 38 -15t15 -43zM950 43q0 -43 -63 -43h-699q-63 0 -63 43t65 43h295v1079h-297q-63 0 -63 43t65 43h336q40 0 52 -13t12 -52v-1100h297q63 0 63 -43z" />
    <glyph glyph-name="Lcommaaccent" unicode="&#x13b;" 
d="M649 -250q1 -104 -71 -172t-121 -67q-11 0 -21 10t-10 23t18 18q147 49 148 182q-24 -12 -56 -12t-55 22t-23 57q0 33 24 55q22 22 62 22t72 -39q32 -38 33 -99zM993 66q0 -38 -12 -52t-51 -14h-795q-63 0 -63 43t63 43h98v1079h-98q-63 0 -63 43t63 43h342q66 0 66 -43
t-66 -43h-139v-1079h553v168q0 39 13 52t43 13t38 -16t8 -49v-188z" />
    <glyph glyph-name="lcommaaccent" unicode="&#x13c;" 
d="M649 -250q1 -104 -71 -172t-121 -67q-11 0 -21 10t-10 23t18 18q147 49 148 182q-24 -12 -56 -12t-55 22t-23 57q0 33 24 55q22 22 62 22t72 -39q32 -38 33 -99zM950 43q0 -43 -63 -43h-699q-63 0 -63 43t65 43h295v1079h-297q-63 0 -63 43t65 43h336q40 0 52 -13t12 -52
v-1100h297q63 0 63 -43z" />
    <glyph glyph-name="Lcaron" unicode="&#x13d;" 
d="M885 1114q0 -104 -72 -172t-121 -68q-12 0 -21 10t-9 24q0 13 18 18q147 49 147 182q-25 -12 -57 -12t-54 22t-22 57q0 33 22 55t62 22t74 -39q33 -38 33 -99zM993 66q0 -38 -12 -52t-51 -14h-795q-63 0 -63 43t63 43h98v1079h-98q-63 0 -63 43t63 43h342q66 0 66 -43
t-66 -43h-139v-1079h553v168q0 39 13 52t43 13t38 -16t8 -49v-188z" />
    <glyph glyph-name="lcaron" unicode="&#x13e;" 
d="M893 1114q0 -104 -72 -172t-121 -68q-12 0 -21 10t-9 24q0 13 18 18q147 49 148 182q-25 -12 -57 -12q-33 0 -55 22t-22 57q0 33 22 55t62 22t74 -39q33 -38 33 -99zM950 43q0 -43 -63 -43h-699q-63 0 -63 43t65 43h295v1079h-297q-63 0 -63 43t65 43h336q40 0 52 -13
t12 -52v-1100h297q63 0 63 -43z" />
    <glyph glyph-name="Ldot" unicode="&#x13f;" 
d="M907 648q-1 -36 -25 -60t-59 -25q-35 0 -59 25q-24 24 -25 60q0 36 25 61q26 25 60 25t59 -25q24 -25 24 -61zM993 66q0 -38 -12 -52t-51 -14h-795q-63 0 -63 43t63 43h98v1079h-98q-63 0 -63 43t63 43h342q66 0 66 -43t-66 -43h-139v-1079h553v168q0 39 13 52t43 13
t38 -16t8 -49v-188z" />
    <glyph glyph-name="ldot" unicode="&#x140;" 
d="M1159 648q-1 -36 -25 -60t-59 -25q-35 0 -59 25q-24 24 -25 60q0 36 25 61q26 25 60 25t59 -25q24 -25 24 -61zM950 43q0 -43 -63 -43h-699q-63 0 -63 43t65 43h295v1079h-297q-63 0 -63 43t65 43h336q40 0 52 -13t12 -52v-1100h297q63 0 63 -43z" />
    <glyph glyph-name="Lslash" unicode="&#x141;" 
d="M993 66q0 -38 -12 -52t-51 -14h-795q-63 0 -63 43t63 43h98v487l-106 -73q-35 -25 -57 9t10 58l153 107v491h-98q-63 0 -63 43t63 43h342q66 0 66 -43t-66 -43h-139v-422l391 267q31 20 55 -15t-10 -57l-436 -293v-559h553v168q0 39 13 52t43 13t38 -16t8 -49v-188z" />
    <glyph glyph-name="lslash" unicode="&#x142;" 
d="M950 43q0 -43 -63 -43h-699q-63 0 -63 43t65 43h295v584l-247 -170q-35 -25 -58 10t10 57l295 201v397h-297q-63 0 -63 43t65 43h336q40 0 52 -13t12 -52v-344l248 168q31 20 55 -13q10 -14 8 -31t-16 -28l-295 -199v-653h297q63 0 63 -43z" />
    <glyph glyph-name="Nacute" unicode="&#x143;" 
d="M741 1562q0 -28 -47 -49l-295 -131l-14 -4q-27 0 -38 23t-11 45t39 39l282 127l31 8q23 0 38 -15t15 -43zM948 1251q64 0 64 -43t-64 -43h-76v-1099q0 -42 -13 -54t-58 -12t-66 16q-20 16 -30 45l-410 1104h-19v-1079h74q63 0 64 -43q0 -43 -64 -43h-225q-63 0 -64 45
q0 41 64 41h76v1079h-76q-63 0 -64 43q0 43 64 43h145q50 0 69 -17t30 -44l409 -1104h19v1079h-74q-63 0 -64 41q0 45 64 45h225z" />
    <glyph glyph-name="nacute" unicode="&#x144;" 
d="M741 1217q0 -29 -47 -50l-295 -131l-14 -2q-27 0 -38 23t-11 41q0 25 39 41l282 127l31 8q23 0 38 -14t15 -43zM1044 43q0 -43 -63 -43h-324q-66 0 -65 43q0 43 65 43h105v502q0 111 -36 160t-134 49t-190 -79t-91 -235v-397h115q66 0 66 -43t-64 -43h-336q-63 0 -63 43
t65 43h115v698h-117q-63 0 -63 43t65 43h154q45 0 54 -22t9 -107q145 141 299 142q254 0 254 -283v-514h115q65 0 65 -43z" />
    <glyph glyph-name="Ncommaaccent" unicode="&#x145;" 
d="M649 -250q1 -104 -71 -172t-121 -67q-11 0 -21 10t-10 23t18 18q147 49 148 182q-24 -12 -56 -12t-55 22t-23 57q0 33 24 55q22 22 62 22t72 -39q32 -38 33 -99zM948 1251q64 0 64 -43t-64 -43h-76v-1099q0 -42 -13 -54t-58 -12t-66 16q-20 16 -30 45l-410 1104h-19
v-1079h74q63 0 64 -43q0 -43 -64 -43h-225q-63 0 -64 45q0 41 64 41h76v1079h-76q-63 0 -64 43q0 43 64 43h145q50 0 69 -17t30 -44l409 -1104h19v1079h-74q-63 0 -64 41q0 45 64 45h225z" />
    <glyph glyph-name="ncommaaccent" unicode="&#x146;" 
d="M649 -250q1 -104 -71 -172t-121 -67q-11 0 -21 10t-10 23t18 18q147 49 148 182q-24 -12 -56 -12t-55 22t-23 57q0 33 24 55q22 22 62 22t72 -39q32 -38 33 -99zM1044 43q0 -43 -63 -43h-324q-66 0 -65 43q0 43 65 43h105v502q0 111 -36 160t-134 49t-190 -79t-91 -235
v-397h115q66 0 66 -43t-64 -43h-336q-63 0 -63 43t65 43h115v698h-117q-63 0 -63 43t65 43h154q45 0 54 -22t9 -107q145 141 299 142q254 0 254 -283v-514h115q65 0 65 -43z" />
    <glyph glyph-name="Ncaron" unicode="&#x147;" 
d="M829 1491q0 -29 -45 -45l-223 -82q-27 -8 -53 0l-219 82q-45 16 -45 45q0 45 49 45q14 0 61 -14l183 -62l182 62q47 14 61 14q49 0 49 -45zM948 1251q64 0 64 -43t-64 -43h-76v-1099q0 -42 -13 -54t-58 -12t-66 16q-20 16 -30 45l-410 1104h-19v-1079h74q63 0 64 -43
q0 -43 -64 -43h-225q-63 0 -64 45q0 41 64 41h76v1079h-76q-63 0 -64 43q0 43 64 43h145q50 0 69 -17t30 -44l409 -1104h19v1079h-74q-63 0 -64 41q0 45 64 45h225z" />
    <glyph glyph-name="ncaron" unicode="&#x148;" 
d="M831 1227q0 -16 -45 -45l-211 -135q-35 -23 -69 0l-215 135q-45 29 -45 45q0 45 49 45q10 0 61 -31l183 -111l182 111q51 31 61 31q49 0 49 -45zM1044 43q0 -43 -63 -43h-324q-66 0 -65 43q0 43 65 43h105v502q0 111 -36 160t-134 49t-190 -79t-91 -235v-397h115
q66 0 66 -43t-64 -43h-336q-63 0 -63 43t65 43h115v698h-117q-63 0 -63 43t65 43h154q45 0 54 -22t9 -107q145 141 299 142q254 0 254 -283v-514h115q65 0 65 -43z" />
    <glyph glyph-name="Eng" unicode="&#x14a;" 
d="M997 665q0 -130 -4 -260t-30 -202q-25 -72 -54 -123q-59 -103 -186 -103q-29 0 -51 22q-22 23 -21 51q0 28 22 50q23 22 51 21q28 0 54 -25q72 52 94 188t21 292q0 156 -15 247q-35 213 -143 299q-59 47 -155 47t-176 -82q-79 -82 -93 -200v-801h115q66 0 66 -43t-64 -43
h-336q-63 0 -63 43t65 43h115v1079h-117q-63 0 -63 43t65 43h154q41 0 52 -20t11 -90q141 133 279 133t231 -97q94 -97 135 -239t41 -273z" />
    <glyph glyph-name="eng" unicode="&#x14b;" 
d="M938 109q0 -268 -49 -416q-66 -186 -221 -187q-23 0 -38 16t-16 38q0 23 16 38t38 15q111 0 142 166q24 128 26 330v479q0 111 -36 160t-134 49t-188 -79t-91 -235v-397h113q66 0 65 -43q0 -43 -63 -43h-336q-63 0 -64 43q0 43 66 43h115v698h-117q-63 0 -64 41
q0 45 66 45h156q45 0 54 -22t9 -107q141 141 297 142q254 0 254 -283v-491z" />
    <glyph glyph-name="Omacron" unicode="&#x14c;" 
d="M854 1489q64 0 64 -45t-64 -45h-629q-66 0 -65 45q0 45 63 45h631zM532 1188q-140 0 -200 -34t-84 -133q-23 -99 -23 -390q-1 -291 23 -391t84 -139q60 -38 207 -38q149 0 207 40q58 39 80 147t22 397t-26 385t-88 126t-202 30zM931 1034q21 -100 21 -371
q0 -273 -12 -387t-34 -155t-48 -74t-76 -45q-156 -38 -371 -21q-116 7 -171 45q-27 17 -58 65t-46 169t-15 304q0 182 3 310q7 280 116 352q57 36 139 42t171 6t149 -6q59 -6 111 -33t76 -64t45 -137z" />
    <glyph glyph-name="omacron" unicode="&#x14d;" 
d="M854 1200q64 0 64 -45t-64 -45h-629q-66 0 -65 45q0 45 63 45h631zM846 449q0 153 -92 253t-216 100t-217 -100t-93 -254t90 -264q92 -110 218 -110t218 110t92 265zM950 436q0 -188 -123 -318t-291 -130t-290 130q-123 130 -123 318t122 320t292 133q169 -1 291 -133
t122 -320z" />
    <glyph glyph-name="Obreve" unicode="&#x14e;" 
d="M846 1575q45 0 45 -44t-26 -75q-27 -31 -59 -45q-77 -33 -267 -33q-191 0 -269 33q-32 14 -58 45t-26 75t45 44q29 0 37 -23q23 -82 271 -82t270 82q8 23 37 23zM532 1188q-140 0 -200 -34t-84 -133q-23 -99 -23 -390q-1 -291 23 -391t84 -139q60 -38 207 -38
q149 0 207 40q58 39 80 147t22 397t-26 385t-88 126t-202 30zM931 1034q21 -100 21 -371q0 -273 -12 -387t-34 -155t-48 -74t-76 -45q-156 -38 -371 -21q-116 7 -171 45q-27 17 -58 65t-46 169t-15 304q0 182 3 310q7 280 116 352q57 36 139 42t171 6t149 -6q59 -6 111 -33
t76 -64t45 -137z" />
    <glyph glyph-name="obreve" unicode="&#x14f;" 
d="M891 1209q0 -45 -26 -75q-27 -30 -59 -44t-89 -22q-70 -10 -222 -11q-152 0 -225 33q-32 14 -58 45t-26 75t45 43q29 0 37 -22q23 -82 271 -82t270 82q8 23 37 22q45 0 45 -44zM846 449q0 153 -92 253t-216 100t-217 -100t-93 -254t90 -264q92 -110 218 -110t218 110
t92 265zM950 436q0 -188 -123 -318t-291 -130t-290 130q-123 130 -123 318t122 320t292 133q169 -1 291 -133t122 -320z" />
    <glyph glyph-name="Ohungarumlaut" unicode="&#x150;" 
d="M883 1582q0 -20 -54 -69l-98 -92q-43 -43 -63 -43t-38 20t-20 38q0 16 21 37l133 126q33 29 65 35q20 0 37 -16t17 -36zM471 1582q0 -20 -53 -69l-99 -92q-43 -43 -63 -43t-38 20t-19 38q0 16 20 37l133 126q33 29 66 35q20 0 36 -16t17 -36zM532 1188q-140 0 -200 -34
t-84 -133q-23 -99 -23 -390q-1 -291 23 -391t84 -139q60 -38 207 -38q149 0 207 40q58 39 80 147t22 397t-26 385t-88 126t-202 30zM931 1034q21 -100 21 -371q0 -273 -12 -387t-34 -155t-48 -74t-76 -45q-156 -38 -371 -21q-116 7 -171 45q-27 17 -58 65t-46 169t-15 304
q0 182 3 310q7 280 116 352q57 36 139 42t171 6t149 -6q59 -6 111 -33t76 -64t45 -137z" />
    <glyph glyph-name="ohungarumlaut" unicode="&#x151;" 
d="M883 1230q0 -20 -54 -69l-98 -92q-43 -43 -63 -43t-38 20t-20 37q0 16 21 37l133 127q33 29 65 35q20 0 37 -16t17 -36zM471 1230q0 -20 -53 -69l-99 -92q-43 -43 -63 -43t-38 20t-19 37q0 16 20 37l133 127q33 29 66 35q20 0 36 -16t17 -36zM846 449q0 153 -92 253
t-216 100t-217 -100t-93 -254t90 -264q92 -110 218 -110t218 110t92 265zM950 436q0 -188 -123 -318t-291 -130t-290 130q-123 130 -123 318t122 320t292 133q169 -1 291 -133t122 -320z" />
    <glyph glyph-name="OE" unicode="&#x152;" 
d="M557 342v567q0 175 -34 227t-130 52t-132 -20t-53 -38q-51 -50 -59 -190t-8 -275t2 -257t17 -170q37 -115 74 -134q73 -39 164 -40q91 -2 125 52t34 226zM1024 66q0 -38 -12 -52t-51 -14h-351q-52 0 -108 -11t-111 -12q-156 0 -216 41t-86 155t-26 458t33 479
q20 94 87 129t208 35q57 0 113 -11t106 -12h336q39 0 51 -13t13 -52v-156q0 -66 -39 -65q-39 0 -39 65v135h-297v-473h278q63 0 64 -45q0 -41 -64 -41h-278v-520h313v168q0 66 37 65q39 0 39 -65v-188z" />
    <glyph glyph-name="oe" unicode="&#x153;" 
d="M539 450q0 156 -65 254q-64 98 -144 98t-146 -98q-66 -100 -66 -254t66 -266q66 -110 145 -110t145 110t65 266zM803 803q-61 0 -117 -89t-70 -225h336q-6 119 -32 194q-27 75 -57 97t-60 23zM991 248q39 0 39 -46q0 -22 -16 -68t-68 -96t-121 -50q-145 0 -247 215
q-109 -215 -248 -215q-121 0 -204 129t-83 321t83 322q83 129 212 129t237 -209q102 209 228 209q103 0 165 -110t62 -306q0 -41 -12 -55t-51 -15h-353q14 -145 79 -237t141 -92q42 0 74 37t46 104q6 33 37 33z" />
    <glyph glyph-name="Racute" unicode="&#x154;" 
d="M741 1562q0 -28 -47 -49l-295 -131l-14 -4q-27 0 -38 23t-11 45t39 39l282 127l31 8q23 0 38 -15t15 -43zM465 670q145 0 227 77t82 170t-82 171t-227 77h-174v-495h174zM1065 176q0 -68 -41 -134t-129 -65q-88 0 -137 78q-29 49 -35 101t-6 150t-9 138t-44 74
q-74 63 -187 64h-186v-496h74q63 0 63 -43t-63 -43h-252q-63 0 -64 43q0 43 64 43h73v1079h-73q-63 0 -64 41q0 45 64 45h374q170 0 280 -99t110 -234q0 -182 -197 -293q94 -73 118 -129t23 -201q0 -231 80 -232q29 1 45 45t17 72q2 43 52 43t50 -47z" />
    <glyph glyph-name="racute" unicode="&#x155;" 
d="M741 1217q0 -29 -47 -50l-295 -131l-14 -2q-27 0 -38 23t-11 41q0 25 39 41l282 127l31 8q23 0 38 -14t15 -43zM991 777q0 -36 -19 -55q-19 -20 -49 -20t-50 26q-19 26 -19 69q-204 0 -314 -126t-110 -298v-287h256q66 0 66 -43t-66 -43h-551q-63 0 -63 43t63 43h193v698
h-193q-63 0 -63 43t63 43h232q39 0 51 -13t12 -52v-129q182 207 381 207q102 0 141 -35t39 -71z" />
    <glyph glyph-name="Rcommaaccent" unicode="&#x156;" 
d="M649 -250q1 -104 -71 -172t-121 -67q-11 0 -21 10t-10 23t18 18q147 49 148 182q-24 -12 -56 -12t-55 22t-23 57q0 33 24 55q22 22 62 22t72 -39q32 -38 33 -99zM465 670q145 0 227 77t82 170t-82 171t-227 77h-174v-495h174zM1065 176q0 -68 -41 -134t-129 -65
q-88 0 -137 78q-29 49 -35 101t-6 150t-9 138t-44 74q-74 63 -187 64h-186v-496h74q63 0 63 -43t-63 -43h-252q-63 0 -64 43q0 43 64 43h73v1079h-73q-63 0 -64 41q0 45 64 45h374q170 0 280 -99t110 -234q0 -182 -197 -293q94 -73 118 -129t23 -201q0 -231 80 -232
q29 1 45 45t17 72q2 43 52 43t50 -47z" />
    <glyph glyph-name="rcommaaccent" unicode="&#x157;" 
d="M496 -250q0 -104 -72 -172t-121 -67q-12 0 -21 10q-10 10 -10 23t19 18q147 49 147 182q-24 -12 -56 -12t-54 22t-23 57q0 33 22 55q23 22 63 22t73 -39q33 -38 33 -99zM991 777q0 -36 -19 -55q-19 -20 -49 -20t-50 26q-19 26 -19 69q-204 0 -314 -126t-110 -298v-287
h256q66 0 66 -43t-66 -43h-551q-63 0 -63 43t63 43h193v698h-193q-63 0 -63 43t63 43h232q39 0 51 -13t12 -52v-129q182 207 381 207q102 0 141 -35t39 -71z" />
    <glyph glyph-name="Rcaron" unicode="&#x158;" 
d="M829 1491q0 -29 -45 -45l-223 -82q-27 -8 -53 0l-219 82q-45 16 -45 45q0 45 49 45q14 0 61 -14l183 -62l182 62q47 14 61 14q49 0 49 -45zM465 670q145 0 227 77t82 170t-82 171t-227 77h-174v-495h174zM1065 176q0 -68 -41 -134t-129 -65q-88 0 -137 78q-29 49 -35 101
t-6 150t-9 138t-44 74q-74 63 -187 64h-186v-496h74q63 0 63 -43t-63 -43h-252q-63 0 -64 43q0 43 64 43h73v1079h-73q-63 0 -64 41q0 45 64 45h374q170 0 280 -99t110 -234q0 -182 -197 -293q94 -73 118 -129t23 -201q0 -231 80 -232q29 1 45 45t17 72q2 43 52 43t50 -47z
" />
    <glyph glyph-name="rcaron" unicode="&#x159;" 
d="M831 1227q0 -16 -45 -45l-211 -135q-35 -23 -69 0l-215 135q-45 29 -45 45q0 45 49 45q10 0 61 -31l183 -111l182 111q51 31 61 31q49 0 49 -45zM991 777q0 -36 -19 -55q-19 -20 -49 -20t-50 26q-19 26 -19 69q-204 0 -314 -126t-110 -298v-287h256q66 0 66 -43t-66 -43
h-551q-63 0 -63 43t63 43h193v698h-193q-63 0 -63 43t63 43h232q39 0 51 -13t12 -52v-129q182 207 381 207q102 0 141 -35t39 -71z" />
    <glyph glyph-name="Sacute" unicode="&#x15a;" 
d="M741 1562q0 -28 -47 -49l-295 -131l-14 -4q-27 0 -38 23t-11 45t39 39l282 127l31 8q23 0 38 -15t15 -43zM961 326q1 -136 -105 -242t-272 -107q-215 0 -363 111q-17 -70 -29 -90t-36 -21q-43 0 -43 66v279q0 65 53 65q41 0 47 -28q2 -9 4 -25q6 -135 109 -201
q102 -70 244 -70t218 79t76 177q0 205 -252 261l-241 57q-121 35 -190 121t-69 204t106 214q105 98 273 98t304 -115q18 71 29 93t36 22q43 0 43 -66v-278q0 -39 -14 -52q-14 -14 -47 -14t-41 31q-31 151 -99 215q-31 30 -88 54t-131 24q-119 0 -197 -70t-77 -155
q0 -85 53 -144t131 -82l172 -39q135 -30 187 -52t112 -79q97 -104 97 -241z" />
    <glyph glyph-name="sacute" unicode="&#x15b;" 
d="M741 1217q0 -29 -47 -50l-295 -131l-14 -2q-27 0 -38 23t-11 41q0 25 39 41l282 127l31 8q23 0 38 -14t15 -43zM932 244q0 -85 -71 -163q-38 -42 -119 -68t-191 -25q-158 0 -287 94q-31 -94 -65 -94q-43 0 -43 65v205q0 39 14 52q14 14 43 14t43 -25q43 -133 120 -179
q76 -46 200 -46t197 49t73 121q0 131 -291 178q-194 25 -278 67t-106 95q-15 35 -15 73q0 37 14 71q67 160 367 161q129 0 239 -53q8 31 18 42t33 11q41 0 41 -66v-145q0 -39 -14 -52q-14 -14 -47 -14t-39 31q-10 76 -56 118t-188 42t-212 -44t-70 -100t71 -91
q72 -34 152 -46l145 -24q322 -51 322 -254z" />
    <glyph glyph-name="Scircumflex" unicode="&#x15c;" 
d="M829 1403q0 -45 -49 -45q-14 0 -61 14l-182 62l-183 -62q-47 -14 -61 -14q-49 0 -49 45q0 29 45 45l223 82q27 8 53 0l219 -82q45 -16 45 -45zM961 326q1 -136 -105 -242t-272 -107q-215 0 -363 111q-17 -70 -29 -90t-36 -21q-43 0 -43 66v279q0 65 53 65q41 0 47 -28
q2 -9 4 -25q6 -135 109 -201q102 -70 244 -70t218 79t76 177q0 205 -252 261l-241 57q-121 35 -190 121t-69 204t106 214q105 98 273 98t304 -115q18 71 29 93t36 22q43 0 43 -66v-278q0 -39 -14 -52q-14 -14 -47 -14t-41 31q-31 151 -99 215q-31 30 -88 54t-131 24
q-119 0 -197 -70t-77 -155q0 -85 53 -144t131 -82l172 -39q135 -30 187 -52t112 -79q97 -104 97 -241z" />
    <glyph glyph-name="scircumflex" unicode="&#x15d;" 
d="M831 1081q0 -45 -49 -45q-10 0 -61 31l-182 111l-183 -111q-51 -31 -61 -31q-49 0 -49 45q0 16 45 45l211 136q35 23 69 0l215 -136q45 -29 45 -45zM932 244q0 -85 -71 -163q-38 -42 -119 -68t-191 -25q-158 0 -287 94q-31 -94 -65 -94q-43 0 -43 65v205q0 39 14 52
q14 14 43 14t43 -25q43 -133 120 -179q76 -46 200 -46t197 49t73 121q0 131 -291 178q-194 25 -278 67t-106 95q-15 35 -15 73q0 37 14 71q67 160 367 161q129 0 239 -53q8 31 18 42t33 11q41 0 41 -66v-145q0 -39 -14 -52q-14 -14 -47 -14t-39 31q-10 76 -56 118t-188 42
t-212 -44t-70 -100t71 -91q72 -34 152 -46l145 -24q322 -51 322 -254z" />
    <glyph glyph-name="Scedilla" unicode="&#x15e;" 
d="M961 333q1 -131 -89 -231t-243 -125v-59q109 -20 159 -72t52 -107q1 -104 -84 -145q-88 -41 -182 -49t-212 -8q-45 0 -45 43q0 32 28 38q28 7 106 7q79 0 181 24t103 83q0 42 -43 72t-119 32q-37 3 -45 36q-2 11 -2 32v76q-186 18 -305 108q-17 -70 -29 -90t-36 -21
q-43 0 -43 66v279q0 65 53 65q41 0 47 -28q2 -9 4 -25q6 -135 109 -201q102 -70 244 -70t218 79t76 177q0 205 -252 261l-241 57q-121 35 -190 121t-69 204t106 214q105 98 273 98t304 -115q18 71 29 93t36 22q43 0 43 -66v-278q0 -39 -14 -52q-14 -14 -47 -14t-41 31
q-31 151 -99 215q-31 30 -88 54t-131 24q-119 0 -197 -70t-77 -155q0 -85 53 -144t131 -82l172 -39q135 -30 187 -52t112 -79q97 -104 97 -234z" />
    <glyph glyph-name="scedilla" unicode="&#x15f;" 
d="M526 -72v60q-150 12 -262 94q-31 -94 -65 -94q-43 0 -43 65v205q0 39 14 52q14 14 43 14t43 -25q43 -133 120 -179q76 -46 200 -46t197 49t73 121q0 131 -291 178q-194 25 -278 67t-106 95q-15 35 -15 73q0 37 14 71q67 160 367 161q129 0 239 -53q8 31 18 42t33 11
q41 0 41 -66v-145q0 -39 -14 -52q-14 -14 -47 -14t-39 31q-10 76 -56 118t-188 42t-212 -44t-70 -100t71 -91q72 -34 152 -46l145 -24q322 -51 322 -254q0 -110 -86 -176t-217 -76v-51q93 -5 166 -78q45 -45 45 -101t-20 -90q-29 -50 -126 -81q-96 -31 -332 -31
q-45 0 -45 45q0 37 49 42q16 1 90 1t176 24t103 82q0 39 -42 71t-120 36q-47 0 -47 67z" />
    <glyph glyph-name="Scaron" unicode="&#x160;" 
d="M829 1491q0 -29 -45 -45l-223 -82q-27 -8 -53 0l-219 82q-45 16 -45 45q0 45 49 45q14 0 61 -14l183 -62l182 62q47 14 61 14q49 0 49 -45zM961 326q1 -136 -105 -242t-272 -107q-215 0 -363 111q-17 -70 -29 -90t-36 -21q-43 0 -43 66v279q0 65 53 65q41 0 47 -28
q2 -9 4 -25q6 -135 109 -201q102 -70 244 -70t218 79t76 177q0 205 -252 261l-241 57q-121 35 -190 121t-69 204t106 214q105 98 273 98t304 -115q18 71 29 93t36 22q43 0 43 -66v-278q0 -39 -14 -52q-14 -14 -47 -14t-41 31q-31 151 -99 215q-31 30 -88 54t-131 24
q-119 0 -197 -70t-77 -155q0 -85 53 -144t131 -82l172 -39q135 -30 187 -52t112 -79q97 -104 97 -241z" />
    <glyph glyph-name="scaron" unicode="&#x161;" 
d="M831 1227q0 -16 -45 -45l-211 -135q-35 -23 -69 0l-215 135q-45 29 -45 45q0 45 49 45q10 0 61 -31l183 -111l182 111q51 31 61 31q49 0 49 -45zM932 244q0 -85 -71 -163q-38 -42 -119 -68t-191 -25q-158 0 -287 94q-31 -94 -65 -94q-43 0 -43 65v205q0 39 14 52
q14 14 43 14t43 -25q43 -133 120 -179q76 -46 200 -46t197 49t73 121q0 131 -291 178q-194 25 -278 67t-106 95q-15 35 -15 73q0 37 14 71q67 160 367 161q129 0 239 -53q8 31 18 42t33 11q41 0 41 -66v-145q0 -39 -14 -52q-14 -14 -47 -14t-39 31q-10 76 -56 118t-188 42
t-212 -44t-70 -100t71 -91q72 -34 152 -46l145 -24q322 -51 322 -254z" />
    <glyph glyph-name="Tcedilla" unicode="&#x162;" 
d="M963 965q-52 0 -52 65v135h-321v-1079h131q63 0 63 -43t-63 -43h-133q2 -16 2 -63q106 -21 158 -73t51 -108q0 -56 -25 -97q-25 -42 -139 -81q-78 -24 -311 -24q-45 0 -45 45q0 37 48 42q17 1 89 1t176 24t104 82q0 39 -42 71t-97 35t-63 19t-9 49v78h-131q-63 0 -63 43
t63 43h131v1079h-323v-135q0 -40 -14 -52q-14 -13 -44 -13t-38 17t-9 48v156q-1 39 13 52t53 13h829q40 0 52 -13t12 -52v-156q0 -40 -14 -52q-14 -13 -39 -13z" />
    <glyph glyph-name="tcedilla" unicode="&#x163;" 
d="M911 246q-1 -108 -73 -174t-179 -80q2 -14 3 -55q106 -21 157 -73t51 -108q0 -107 -86 -147q-86 -41 -182 -48q-95 -7 -207 -7q-45 0 -45 45q0 36 48 42q17 1 90 1q72 0 176 24t104 82q0 39 -42 71t-98 35t-63 19q-8 16 -8 49v68q-101 12 -165 74t-64 182v538h-209
q-63 0 -64 41q0 45 66 45h207v195q0 39 13 52t43 13t38 -17t8 -48v-195h369q63 0 63 -43t-63 -43h-369v-526q0 -97 42 -141t142 -43q37 0 75 10t78 53t40 107t51 63q45 0 51 -31q2 -10 2 -30z" />
    <glyph glyph-name="Tcaron" unicode="&#x164;" 
d="M829 1491q0 -29 -45 -45l-223 -82q-27 -8 -53 0l-219 82q-45 16 -45 45q0 45 49 45q14 0 61 -14l183 -62l182 62q47 14 61 14q49 0 49 -45zM963 965q-52 0 -52 65v135h-321v-1079h131q63 0 63 -43t-63 -43h-367q-63 0 -63 43t63 43h131v1079h-323v-135q0 -40 -14 -52
q-14 -13 -44 -13t-38 17t-9 48v156q-1 39 13 52t53 13h829q40 0 52 -13t12 -52v-156q0 -40 -14 -52q-14 -13 -39 -13z" />
    <glyph glyph-name="tcaron" unicode="&#x165;" 
d="M733 1200q1 -104 -71 -172t-121 -67q-11 0 -21 10t-10 23t18 18q147 49 148 182q-24 -12 -56 -12t-55 22t-23 57q0 33 22 55t63 22t73 -39q32 -38 33 -99zM911 246q0 -123 -93 -191q-93 -67 -213 -67q-121 0 -199 63t-78 195v538h-209q-63 0 -64 41q0 45 66 45h207v195
q0 39 13 52t43 13t38 -17t8 -48v-195h369q63 0 63 -43t-63 -43h-369v-526q0 -97 42 -141t142 -43q37 0 75 10t78 53t40 107t51 63q45 0 51 -31q2 -10 2 -30z" />
    <glyph glyph-name="Utilde" unicode="&#x168;" 
d="M889 1522q0 -29 -96 -99q-144 -113 -248 -28q-53 49 -73 63t-40 15q-57 0 -162 -99q-20 -16 -36 -16t-31 14q-14 14 -15 31q0 25 94 95t147 71q54 0 103 -37q4 -4 15 -12q76 -66 98 -68q53 0 162 98q37 37 67 4q15 -14 15 -32zM1061 1208q0 -43 -66 -43h-84v-753
q0 -182 -110 -309q-111 -126 -265 -126t-264 126q-111 126 -110 309v753h-84q-66 0 -66 43t66 43h272q66 0 66 -43t-66 -43h-84v-743q0 -170 84 -264t186 -94t187 94q84 94 84 264v743h-84q-66 0 -66 43t66 43h272q66 0 66 -43z" />
    <glyph glyph-name="utilde" unicode="&#x169;" 
d="M889 1212q0 -28 -93 -96q-94 -68 -150 -68t-101 37q-3 3 -47 41t-66 39q-55 0 -162 -100q-20 -16 -36 -16t-31 14q-14 14 -15 31q0 26 94 96t147 70q54 0 103 -37q4 -3 48 -41t65 -39q53 0 162 98q37 37 67 4q15 -15 15 -33zM981 86q63 0 63 -43t-65 -43h-154
q-20 0 -30 3q-11 3 -23 23t-12 62q-133 -100 -273 -100q-279 0 -278 233v563h-117q-63 0 -63 43t65 43h154q39 0 51 -13t12 -52v-572q0 -39 3 -59q4 -20 20 -48q31 -52 166 -52q182 0 241 133q20 45 21 104v473h-117q-63 0 -63 43t65 43h154q39 0 51 -13t12 -52v-719h117z
" />
    <glyph glyph-name="Umacron" unicode="&#x16a;" 
d="M854 1489q64 0 64 -45t-64 -45h-629q-66 0 -65 45q0 45 63 45h631zM1061 1208q0 -43 -66 -43h-84v-753q0 -182 -110 -309q-111 -126 -265 -126t-264 126q-111 126 -110 309v753h-84q-66 0 -66 43t66 43h272q66 0 66 -43t-66 -43h-84v-743q0 -170 84 -264t186 -94t187 94
q84 94 84 264v743h-84q-66 0 -66 43t66 43h272q66 0 66 -43z" />
    <glyph glyph-name="umacron" unicode="&#x16b;" 
d="M854 1200q64 0 64 -45t-64 -45h-629q-66 0 -65 45q0 45 63 45h631zM981 86q63 0 63 -43t-65 -43h-154q-20 0 -30 3q-11 3 -23 23t-12 62q-133 -100 -273 -100q-279 0 -278 233v563h-117q-63 0 -63 43t65 43h154q39 0 51 -13t12 -52v-572q0 -39 3 -59q4 -20 20 -48
q31 -52 166 -52q182 0 241 133q20 45 21 104v473h-117q-63 0 -63 43t65 43h154q39 0 51 -13t12 -52v-719h117z" />
    <glyph glyph-name="Ubreve" unicode="&#x16c;" 
d="M846 1575q45 0 45 -44t-26 -75q-27 -31 -59 -45q-77 -33 -267 -33q-191 0 -269 33q-32 14 -58 45t-26 75t45 44q29 0 37 -23q23 -82 271 -82t270 82q8 23 37 23zM1061 1208q0 -43 -66 -43h-84v-753q0 -182 -110 -309q-111 -126 -265 -126t-264 126q-111 126 -110 309v753
h-84q-66 0 -66 43t66 43h272q66 0 66 -43t-66 -43h-84v-743q0 -170 84 -264t186 -94t187 94q84 94 84 264v743h-84q-66 0 -66 43t66 43h272q66 0 66 -43z" />
    <glyph glyph-name="ubreve" unicode="&#x16d;" 
d="M891 1209q0 -45 -26 -75q-27 -30 -59 -44t-89 -22q-70 -10 -222 -11q-152 0 -225 33q-32 14 -58 45t-26 75t45 43q29 0 37 -22q23 -82 271 -82t270 82q8 23 37 22q45 0 45 -44zM981 86q63 0 63 -43t-65 -43h-154q-20 0 -30 3q-11 3 -23 23t-12 62q-133 -100 -273 -100
q-279 0 -278 233v563h-117q-63 0 -63 43t65 43h154q39 0 51 -13t12 -52v-572q0 -39 3 -59q4 -20 20 -48q31 -52 166 -52q182 0 241 133q20 45 21 104v473h-117q-63 0 -63 43t65 43h154q39 0 51 -13t12 -52v-719h117z" />
    <glyph glyph-name="Uring" unicode="&#x16e;" 
d="M330 1422q0 60 60 104t148 45q88 -1 150 -45q60 -44 60 -104t-60 -103t-149 -43q-88 0 -149 43q-60 43 -60 103zM539 1352q43 0 75 18t31 52q0 34 -32 54q-33 20 -75 19q-42 0 -74 -19q-32 -20 -32 -54t32 -52t75 -18zM1061 1208q0 -43 -66 -43h-84v-753
q0 -182 -110 -309q-111 -126 -265 -126t-264 126q-111 126 -110 309v753h-84q-66 0 -66 43t66 43h272q66 0 66 -43t-66 -43h-84v-743q0 -170 84 -264t186 -94t187 94q84 94 84 264v743h-84q-66 0 -66 43t66 43h272q66 0 66 -43z" />
    <glyph glyph-name="uring" unicode="&#x16f;" 
d="M748 1154q0 -60 -60 -103t-149 -43q-88 0 -149 43q-60 43 -60 103t60 104t148 44t150 -44q60 -44 60 -104zM645 1154q0 34 -32 53q-33 19 -75 19t-74 -18q-32 -20 -32 -54t32 -52t75 -18t75 18t31 52zM981 86q63 0 63 -43t-65 -43h-154q-20 0 -30 3q-11 3 -23 23t-12 62
q-133 -100 -273 -100q-279 0 -278 233v563h-117q-63 0 -63 43t65 43h154q39 0 51 -13t12 -52v-572q0 -39 3 -59q4 -20 20 -48q31 -52 166 -52q182 0 241 133q20 45 21 104v473h-117q-63 0 -63 43t65 43h154q39 0 51 -13t12 -52v-719h117z" />
    <glyph glyph-name="Uhungarumlaut" unicode="&#x170;" 
d="M883 1582q0 -20 -54 -69l-98 -92q-43 -43 -63 -43t-38 20t-20 38q0 16 21 37l133 126q33 29 65 35q20 0 37 -16t17 -36zM471 1582q0 -20 -53 -69l-99 -92q-43 -43 -63 -43t-38 20t-19 38q0 16 20 37l133 126q33 29 66 35q20 0 36 -16t17 -36zM1061 1208q0 -43 -66 -43
h-84v-753q0 -182 -110 -309q-111 -126 -265 -126t-264 126q-111 126 -110 309v753h-84q-66 0 -66 43t66 43h272q66 0 66 -43t-66 -43h-84v-743q0 -170 84 -264t186 -94t187 94q84 94 84 264v743h-84q-66 0 -66 43t66 43h272q66 0 66 -43z" />
    <glyph glyph-name="uhungarumlaut" unicode="&#x171;" 
d="M883 1230q0 -20 -54 -69l-98 -92q-43 -43 -63 -43t-38 20t-20 37q0 16 21 37l133 127q33 29 65 35q20 0 37 -16t17 -36zM471 1230q0 -20 -53 -69l-99 -92q-43 -43 -63 -43t-38 20t-19 37q0 16 20 37l133 127q33 29 66 35q20 0 36 -16t17 -36zM981 86q63 0 63 -43t-65 -43
h-154q-20 0 -30 3q-11 3 -23 23t-12 62q-133 -100 -273 -100q-279 0 -278 233v563h-117q-63 0 -63 43t65 43h154q39 0 51 -13t12 -52v-572q0 -39 3 -59q4 -20 20 -48q31 -52 166 -52q182 0 241 133q20 45 21 104v473h-117q-63 0 -63 43t65 43h154q39 0 51 -13t12 -52v-719
h117z" />
    <glyph glyph-name="Uogonek" unicode="&#x172;" 
d="M1061 1208q0 -43 -66 -43h-84v-753q0 -162 -80 -273t-213 -143q-61 -43 -101 -112t-40 -126t38 -87t77 -29q68 0 131 86q6 6 21 9t28 -3q25 -18 6 -47q-84 -117 -194 -117q-84 0 -137 56q-52 56 -52 124q0 123 123 232q-166 26 -261 142t-95 288v753h-84q-66 0 -66 43
t66 43h272q66 0 66 -43t-66 -43h-84v-743q0 -170 84 -264t186 -94t187 94q84 94 84 264v743h-84q-66 0 -66 43t66 43h272q66 0 66 -43z" />
    <glyph glyph-name="uogonek" unicode="&#x173;" 
d="M889 -430q-84 0 -136 56t-53 124q0 127 160 250q-68 0 -83 13t-17 75q-133 -100 -273 -100q-279 0 -278 233v563h-117q-63 0 -63 43t65 43h154q39 0 51 -13t12 -52v-572q0 -39 3 -59q4 -20 20 -48q31 -52 166 -52q182 0 241 133q20 45 21 104v473h-117q-63 0 -63 43
t65 43h154q39 0 51 -13t12 -52v-719h117q63 0 63 -43t-65 -43h-21q-76 -43 -126 -111t-50 -143q0 -45 38 -75q71 -56 147 -3q37 27 59 60q31 26 53 6t4 -47q-84 -117 -194 -117z" />
    <glyph glyph-name="Wcircumflex" unicode="&#x174;" 
d="M829 1403q0 -45 -49 -45q-14 0 -61 14l-182 62l-183 -62q-47 -14 -61 -14q-49 0 -49 45q0 29 45 45l223 82q27 8 53 0l219 -82q45 -16 45 -45zM981 1251q66 0 66 -43t-78 -43l-154 -1126q-7 -55 -71 -55t-72 36l-133 619l-140 -627q-17 -28 -75 -28t-66 55l-154 1126h-20
q-57 0 -57 43t65 43h168q63 0 64 -45q0 -41 -64 -41h-70l138 -1095h8l133 632q9 33 69 33t68 -35l129 -630h8l140 1095h-70q-63 0 -63 43t63 43h168z" />
    <glyph glyph-name="wcircumflex" unicode="&#x175;" 
d="M831 1081q0 -45 -49 -45q-10 0 -61 31l-182 111l-183 -111q-51 -31 -61 -31q-49 0 -49 45q0 16 45 45l211 136q35 23 69 0l215 -136q45 -29 45 -45zM1036 827q0 -33 -43 -41q-16 -2 -57 -2l-131 -729q-4 -23 -9 -33q-14 -29 -68 -30q-54 0 -75 24l-104 404h-12l-99 -371
q-8 -35 -27 -46t-63 -11t-59 14q-14 14 -21 49l-131 729q-85 0 -95 18q-5 9 -5 25q0 43 67 43h244q68 0 68 -43t-68 -43h-121l123 -706h12l113 393q11 35 69 35t68 -37l101 -391h12l121 706h-121q-68 0 -68 43t68 43h244q67 0 67 -43z" />
    <glyph glyph-name="Ycircumflex" unicode="&#x176;" 
d="M829 1403q0 -45 -49 -45q-14 0 -61 14l-182 62l-183 -62q-47 -14 -61 -14q-49 0 -49 45q0 29 45 45l223 82q27 8 53 0l219 -82q45 -16 45 -45zM967 1251q63 0 63 -43t-63 -43h-58l-319 -665v-414h74q63 0 63 -43t-63 -43h-252q-63 0 -64 45q0 41 64 41h73v414l-321 665
h-58q-63 0 -63 43t63 43h222q63 0 63 -43q0 -31 -28 -37t-82 -6l258 -573l252 573q-73 -1 -91 11t-18 32q0 43 63 43h222z" />
    <glyph glyph-name="ycircumflex" unicode="&#x177;" 
d="M831 1081q0 -45 -49 -45q-10 0 -61 31l-182 111l-183 -111q-51 -31 -61 -31q-49 0 -49 45q0 16 45 45l211 136q35 23 69 0l215 -136q45 -29 45 -45zM956 870q64 0 64 -43t-64 -43h-77l-332 -979q-15 -39 -48 -98q-34 -59 -66 -96t-82 -66q-49 -29 -109 -29t-104 47
q-44 46 -44 92q0 85 72 87q31 0 50 -20t20 -50l-13 -41q12 -27 25 -26q108 1 160 103q42 82 88 218l14 47l-317 811h-72q-63 0 -64 41q0 45 64 45h248q63 0 63 -43t-63 -43h-84l270 -712l236 712h-82q-63 0 -64 43q0 43 64 43h247z" />
    <glyph glyph-name="Ydieresis" unicode="&#x178;" 
d="M744 1505q30 0 52 -20t21 -52q1 -32 -21 -54q-22 -21 -53 -21t-53 22t-20 53q0 32 21 52q23 20 53 20zM332 1505q30 0 52 -20t22 -52t-22 -54q-22 -21 -52 -21t-52 22t-22 53q0 32 22 52t52 20zM967 1251q63 0 63 -43t-63 -43h-58l-319 -665v-414h74q63 0 63 -43t-63 -43
h-252q-63 0 -64 45q0 41 64 41h73v414l-321 665h-58q-63 0 -63 43t63 43h222q63 0 63 -43q0 -31 -28 -37t-82 -6l258 -573l252 573q-73 -1 -91 11t-18 32q0 43 63 43h222z" />
    <glyph glyph-name="Zacute" unicode="&#x179;" 
d="M741 1562q0 -28 -47 -49l-295 -131l-14 -4q-27 0 -38 23t-11 45t39 39l282 127l31 8q23 0 38 -15t15 -43zM979 66q0 -38 -12 -52t-52 -14h-745q-64 0 -66 51q0 27 19 53l719 1061h-609v-135q0 -39 -14 -52t-39 -13q-51 0 -51 65v156q0 39 13 52t55 13h706q64 0 66 -51
q0 -27 -19 -53l-719 -1061h643v174q0 38 14 52t45 14q30 0 38 -18t8 -48v-194z" />
    <glyph glyph-name="zacute" unicode="&#x17a;" 
d="M741 1217q0 -29 -47 -50l-295 -131l-14 -2q-27 0 -38 23t-11 41q0 25 39 41l282 127l31 8q23 0 38 -14t15 -43zM967 66q0 -55 -29 -66h-799q-65 0 -65 51q0 23 6 34t33 36l698 663h-600v-77q0 -66 -53 -66q-35 0 -43 17t-9 49v98q0 39 12 52t54 13h721q65 0 65 -51
q0 -19 -6 -31t-34 -38l-699 -664h643v102q0 66 53 66q35 0 43 -17t9 -49v-122z" />
    <glyph glyph-name="Zdotaccent" unicode="&#x17b;" 
d="M623 1464q0 -36 -25 -60q-26 -24 -60 -24t-59 25t-25 59t25 61q25 25 60 25t59 -26t25 -60zM979 66q0 -38 -12 -52t-52 -14h-745q-64 0 -66 51q0 27 19 53l719 1061h-609v-135q0 -39 -14 -52t-39 -13q-51 0 -51 65v156q0 39 13 52t55 13h706q64 0 66 -51q0 -27 -19 -53
l-719 -1061h643v174q0 38 14 52t45 14q30 0 38 -18t8 -48v-194z" />
    <glyph glyph-name="zdotaccent" unicode="&#x17c;" 
d="M539 1239q35 -1 59 -25t25 -60q0 -36 -25 -60q-26 -24 -60 -25q-34 0 -59 25q-25 24 -25 60t26 60q24 24 59 25zM967 66q0 -55 -29 -66h-799q-65 0 -65 51q0 23 6 34t33 36l698 663h-600v-77q0 -66 -53 -66q-35 0 -43 17t-9 49v98q0 39 12 52t54 13h721q65 0 65 -51
q0 -19 -6 -31t-34 -38l-699 -664h643v102q0 66 53 66q35 0 43 -17t9 -49v-122z" />
    <glyph glyph-name="Zcaron" unicode="&#x17d;" 
d="M829 1491q0 -29 -45 -45l-223 -82q-27 -8 -53 0l-219 82q-45 16 -45 45q0 45 49 45q14 0 61 -14l183 -62l182 62q47 14 61 14q49 0 49 -45zM979 66q0 -38 -12 -52t-52 -14h-745q-64 0 -66 51q0 27 19 53l719 1061h-609v-135q0 -39 -14 -52t-39 -13q-51 0 -51 65v156
q0 39 13 52t55 13h706q64 0 66 -51q0 -27 -19 -53l-719 -1061h643v174q0 38 14 52t45 14q30 0 38 -18t8 -48v-194z" />
    <glyph glyph-name="zcaron" unicode="&#x17e;" 
d="M831 1227q0 -16 -45 -45l-211 -135q-35 -23 -69 0l-215 135q-45 29 -45 45q0 45 49 45q10 0 61 -31l183 -111l182 111q51 31 61 31q49 0 49 -45zM967 66q0 -55 -29 -66h-799q-65 0 -65 51q0 23 6 34t33 36l698 663h-600v-77q0 -66 -53 -66q-35 0 -43 17t-9 49v98
q0 39 12 52t54 13h721q65 0 65 -51q0 -19 -6 -31t-34 -38l-699 -664h643v102q0 66 53 66q35 0 43 -17t9 -49v-122z" />
    <glyph glyph-name="longs" unicode="&#x17f;" 
d="M887 1159q0 -33 -23 -53t-49 -21q-72 0 -72 93q-138 0 -192 -44q-55 -44 -55 -143v-905h235q66 0 66 -43t-66 -43h-573q-66 0 -66 43t66 43h235v698h-235q-63 0 -64 41q0 45 66 45h233v134q0 124 92 192t220 68q182 -1 182 -105z" />
    <glyph glyph-name="Ereversed" unicode="&#x18e;" 
d="M1024 43q0 -43 -66 -43h-837q-39 0 -51 13t-13 53v188q-1 39 13 52t48 13q44 0 44 -65v-168h608v520h-321q1 -88 -13 -104t-44 -16t-38 16q-8 18 -8 49v197q0 65 51 65q35 -1 43 -23t9 -98h321v473h-561v-135q0 -65 -51 -65q-43 0 -52 33q-2 11 -2 32v156q0 39 12 52
t52 13h790q66 0 66 -43t-66 -43h-86v-1079h86q66 0 66 -43z" />
    <glyph glyph-name="florin" unicode="&#x192;" 
d="M887 1159q0 -33 -23 -53q-22 -20 -54 -20t-49 30q-17 31 -18 62q-138 0 -192 -44q-55 -44 -55 -143v-121h280q63 0 64 -45q0 -41 -64 -41h-280v-698h235q66 0 66 -43t-66 -43h-573q-66 0 -66 43t66 43h235v698h-235q-63 0 -64 41q0 45 66 45h233v134q0 124 92 192t220 68
q182 -1 182 -105z" />
    <glyph glyph-name="Ohorn" unicode="&#x1a0;" 
d="M844 634q0 374 -47 460q-33 59 -99 76q-66 18 -162 18t-163 -18q-66 -18 -99 -76q-49 -86 -49 -460t49 -468q52 -102 262 -102t259 98t49 472zM1010 1335q0 -125 -113 -186q53 -139 53 -556t-67 -519q-29 -45 -93 -68q-64 -24 -115 -26q-168 -8 -249 -2q-185 14 -238 96
q-68 102 -68 552t68 552q29 46 94 68q66 22 114 25t139 3q221 0 303 -49q43 6 82 65q-80 27 -80 88q0 33 23 58q24 25 61 26q86 -2 86 -127z" />
    <glyph glyph-name="ohorn" unicode="&#x1a1;" 
d="M844 446q0 150 -90 252q-92 102 -218 102t-218 -102t-91 -252q0 -150 90 -258q87 -112 217 -112t220 110t90 260zM948 430q0 -182 -123 -311q-119 -131 -289 -131t-290 131q-123 129 -123 317t123 318q117 133 289 133q102 0 202 -60q77 7 98 43q7 12 13 39
q-78 27 -78 86q0 33 24 58t60 26q84 0 84 -127t-119 -190q129 -150 129 -332z" />
    <glyph glyph-name="Uhorn" unicode="&#x1af;" 
d="M1073 1341q0 -65 -45 -115t-117 -61v-753q0 -176 -108 -308q-113 -127 -269 -127t-268 127q-106 131 -106 308v753h-111q-33 0 -37 41q0 45 37 45h326q39 0 39 -45q-4 -41 -39 -41h-109v-753q0 -147 80 -250q82 -98 190 -98t189 98q80 102 80 250v753h-109q-35 0 -39 41
q0 45 39 45h176q55 0 105 35q-74 39 -74 92q0 33 24 58t60 26q86 -2 86 -121z" />
    <glyph glyph-name="uhorn" unicode="&#x1b0;" 
d="M496 -12q-289 0 -289 223v569h-144q-33 0 -35 44t35 44h209q16 0 26 -11t11 -28v-618q0 -72 43 -100q44 -35 152 -35t182 62t74 151v491h-142q-32 0 -34 44t34 44h209q61 0 113 37q-72 25 -72 90q0 33 25 59t65 26t60 -37q20 -36 20 -94t-48 -107t-126 -62v-694h140
q40 0 40 -45q-4 -41 -40 -41h-205q-16 0 -28 11q-11 11 -11 28v57q-35 -32 -115 -70t-149 -38z" />
    <glyph glyph-name="eturned" unicode="&#x1dd;" 
d="M836 387h-613q11 -121 59 -195t103 -96q55 -23 123 -22q119 0 210 86t118 227zM942 438q0 -186 -127 -318t-311 -132t-285 123q-100 123 -100 305q0 49 31 55q10 2 32 2h656q-29 156 -137 243t-240 87q-178 0 -246 -152q-8 -23 -52 -23t-44 46q0 45 80 123q39 39 113 65
t163 27q197 -1 332 -133t135 -318z" />
    <glyph glyph-name="Gcaron" unicode="&#x1e6;" 
d="M829 1491q0 -29 -45 -45l-223 -82q-27 -8 -53 0l-219 82q-45 16 -45 45q0 45 49 45q14 0 61 -14l183 -62l182 62q47 14 61 14q49 0 49 -45zM1012 487q0 -35 -46 -43q-17 -2 -55 -2v-376q0 -66 -51 -66q-37 0 -45 24t-8 101q-127 -147 -272 -148q-187 1 -319 187t-132 462
t132 461q132 186 319 187q131 0 256 -109q31 70 43 89t34 20q43 0 43 -66v-293q0 -23 -2 -33t-14 -20q-12 -12 -46 -12t-40 33q-28 179 -120 250q-71 55 -146 55q-137 0 -247 -161t-110 -401t108 -401q108 -162 247 -162q98 1 171 93t93 286h-113q-63 0 -63 43t63 43h254
q66 0 66 -41z" />
    <glyph glyph-name="gcaron" unicode="&#x1e7;" 
d="M758 1227q0 -16 -45 -45l-211 -135q-35 -23 -70 0l-215 135q-45 29 -45 45q0 45 49 45q10 0 62 -31l182 -111l182 111q51 31 62 31q49 0 49 -45zM537 -399q163 0 277 63t114 136q0 141 -153 180q-117 28 -268 28t-188 -5t-77 -32q-96 -59 -97 -166q0 -78 114 -141
t278 -63zM700 563q0 96 -65 166q-66 70 -159 70t-160 -69q-66 -69 -66 -165t66 -166q66 -69 158 -69q93 0 160 68q66 69 66 165zM905 893q65 -1 99 -29t34 -62t-19 -50q-41 -35 -82 0q-19 16 -28 57q-90 -8 -170 -51q63 -106 64 -193q0 -133 -95 -226t-233 -93
q-102 0 -201 63q-45 -114 5 -176q25 -31 39 -37q24 -10 110 -10h150q313 0 398 -157q34 -62 34 -124q0 -127 -138 -209t-336 -81q-198 0 -335 82t-138 208q0 154 168 256q-59 78 -59 156t47 148q-72 93 -72 211q-1 118 95 212t219 94t221 -67q104 78 223 78z" />
    <glyph glyph-name="Oogonek" unicode="&#x1ea;" 
d="M532 1188q-140 0 -200 -34t-84 -133q-23 -99 -23 -390q-1 -291 23 -391t84 -139q60 -38 207 -38q149 0 207 40q58 39 80 147t22 397t-26 385t-88 126t-202 30zM952 615q0 -171 -8 -275t-26 -183t-62 -113t-102 -49q-57 -15 -158 -18q-135 -109 -135 -231q0 -45 38 -75
q71 -56 146 -3q37 27 60 60q23 18 51 6q20 -25 6 -47q-84 -117 -197 -117q-84 0 -136 56t-52 124q0 106 133 225q-142 4 -200 25q-58 22 -84 40q-99 71 -103 350q-2 120 -2 238q0 350 29 454q29 103 88 142t141 44q82 6 171 6t149 -6q59 -6 111 -33t76 -64t41 -117t21 -175
q4 -94 4 -264z" />
    <glyph glyph-name="oogonek" unicode="&#x1eb;" 
d="M846 449q0 153 -92 253t-216 100t-217 -100t-93 -254t90 -264q92 -110 218 -110t218 110t92 265zM537 889q169 -1 291 -133t122 -313t-105 -305t-239 -142q-68 -41 -112 -110t-43 -127t37 -88q70 -57 147 -3q37 27 59 60q27 22 43 10q17 -12 19 -28t-6 -23
q-84 -117 -195 -117q-84 0 -136 56t-52 124q0 123 143 240q-178 31 -283 151q-104 121 -104 302t122 313t292 133z" />
    <glyph glyph-name="Gacute" unicode="&#x1f4;" 
d="M741 1562q0 -28 -47 -49l-295 -131l-14 -4q-27 0 -38 23t-11 45t39 39l282 127l31 8q23 0 38 -15t15 -43zM1012 487q0 -35 -46 -43q-17 -2 -55 -2v-376q0 -66 -51 -66q-37 0 -45 24t-8 101q-127 -147 -272 -148q-187 1 -319 187t-132 462t132 461q132 186 319 187
q131 0 256 -109q31 70 43 89t34 20q43 0 43 -66v-293q0 -23 -2 -33t-14 -20q-12 -12 -46 -12t-40 33q-28 179 -120 250q-71 55 -146 55q-137 0 -247 -161t-110 -401t108 -401q108 -162 247 -162q98 1 171 93t93 286h-113q-63 0 -63 43t63 43h254q66 0 66 -41z" />
    <glyph glyph-name="gacute" unicode="&#x1f5;" 
d="M668 1217q0 -29 -47 -50l-295 -131l-15 -2q-27 0 -38 23t-11 41q0 25 39 41l283 127l30 8q22 0 38 -14t16 -43zM537 -399q163 0 277 63t114 136q0 141 -153 180q-117 28 -268 28t-188 -5t-77 -32q-96 -59 -97 -166q0 -78 114 -141t278 -63zM700 563q0 96 -65 166
q-66 70 -159 70t-160 -69q-66 -69 -66 -165t66 -166q66 -69 158 -69q93 0 160 68q66 69 66 165zM905 893q65 -1 99 -29t34 -62t-19 -50q-41 -35 -82 0q-19 16 -28 57q-90 -8 -170 -51q63 -106 64 -193q0 -133 -95 -226t-233 -93q-102 0 -201 63q-45 -114 5 -176
q25 -31 39 -37q24 -10 110 -10h150q313 0 398 -157q34 -62 34 -124q0 -127 -138 -209t-336 -81q-198 0 -335 82t-138 208q0 154 168 256q-59 78 -59 156t47 148q-72 93 -72 211q-1 118 95 212t219 94t221 -67q104 78 223 78z" />
    <glyph glyph-name="Aringacute" unicode="&#x1fa;" 
d="M741 1795q0 -28 -47 -48l-295 -131l-14 -4q-27 0 -38 22t-11 44t39 40l282 127l31 8q23 0 38 -15t15 -43zM330 1422q0 60 60 104t148 45q88 -1 150 -45q60 -44 60 -104t-60 -103t-149 -43q-88 0 -149 43q-60 43 -60 103zM539 1352q43 0 75 18t31 52q0 34 -32 54
q-33 20 -75 19q-42 0 -74 -19q-32 -20 -32 -54t32 -52t75 -18zM702 436l-157 754h-15l-159 -754h331zM1014 43q0 -43 -72 -43h-215q-68 0 -68 43q0 31 25 37t98 6l-57 264h-377l-57 -264q75 0 99 -6t24 -37q0 -43 -68 -43h-217q-70 0 -70 43q0 29 25 41q12 2 98 2l260 1126
q14 54 51 62q13 2 45 2t45 -2q31 -5 48 -64l260 -1124q84 0 96 -2q27 -10 27 -41z" />
    <glyph glyph-name="aringacute" unicode="&#x1fb;" 
d="M741 1527q0 -28 -47 -48l-295 -131l-14 -5q-27 0 -38 23q-11 24 -11 44t39 40l282 127l31 8q23 0 38 -15t15 -43zM748 1154q0 -60 -60 -103t-149 -43q-88 0 -149 43q-60 43 -60 103t60 104t148 44t150 -44q60 -44 60 -104zM645 1154q0 34 -32 53q-33 19 -75 19t-74 -18
q-32 -20 -32 -54t32 -52t75 -18t75 18t31 52zM754 262v201q-250 -7 -390 -67t-141 -146q0 -72 67 -124q66 -52 178 -52t191 39q45 20 67 47t25 46t3 56zM1071 45q0 -19 -14 -31q-15 -12 -29 -13t-54 -1t-71 2t-74 20t-67 54q-136 -88 -298 -88t-254 78q-91 78 -91 184
q0 141 170 216t465 79q0 258 -291 258q-141 0 -141 -47q-2 -40 -26 -58t-52 -18t-48 20q-22 20 -22 56q0 133 287 133q199 0 298 -92t99 -215v-471q66 -25 140 -25t73 -41z" />
    <glyph glyph-name="AEacute" unicode="&#x1fc;" 
d="M741 1562q0 -28 -47 -49l-295 -131l-14 -4q-27 0 -38 23t-11 45t39 39l282 127l31 8q23 0 38 -15t15 -43zM561 475v690h-117l-139 -690h256zM543 0q-66 0 -66 43t84 43v301h-272l-62 -301q39 0 57 -1q45 -3 46 -42q0 -43 -64 -43h-151q-63 0 -64 43q1 21 15 31t30 11
t54 1l219 1079q-33 0 -48 1q-15 2 -29 12t-13 30q0 43 63 43h594q39 0 51 -13t12 -52v-156q0 -66 -36 -65q-39 0 -39 65v135h-285v-473h264q63 0 64 -45q0 -41 -64 -41h-264v-520h301v168q0 66 39 65q39 0 39 -65v-188q0 -38 -12 -52t-52 -14h-411z" />
    <glyph glyph-name="aeacute" unicode="&#x1fd;" 
d="M741 1217q0 -29 -47 -50l-295 -131l-14 -2q-27 0 -38 23t-11 41q0 25 39 41l282 127l31 8q23 0 38 -14t15 -43zM150 236q0 -66 42 -114t116 -48q75 0 131 46q57 46 57 140t4 141q-156 -6 -253 -52q-97 -47 -97 -113zM778 803q-68 0 -129 -93t-71 -221h372q-8 166 -56 240
t-116 74zM162 680q-30 0 -52 20t-22 66t53 84q53 39 172 39q145 0 244 -174q100 174 219 174t186 -111t66 -305q0 -41 -11 -55t-52 -15h-387q14 -153 85 -241t152 -88q45 0 81 34t54 103q18 37 39 37q16 0 28 -11q11 -12 11 -28q0 -53 -58 -137t-174 -84t-231 164
q-100 -164 -272 -164q-98 0 -159 74q-60 75 -60 167q0 121 116 187q117 66 308 67v90q0 111 -52 170t-139 60q-27 0 -51 -10t-25 -21l2 -18q-2 -30 -21 -52t-50 -22z" />
    <glyph glyph-name="Oslashacute" unicode="&#x1fe;" 
d="M715 1562q0 -28 -47 -49l-295 -131l-15 -4q-46 0 -48 68q0 22 38 39l283 127l31 8q23 0 38 -15t15 -43zM494 1188q-104 0 -173 -31t-96 -130t-27 -354q1 -433 57 -514q19 -30 64 -65l351 1080q-40 12 -56 13t-120 1zM874 579q0 430 -56 514q-19 30 -64 64l-351 -1079
q41 -12 57 -13t120 -1t173 30t95 130t26 355zM922 1082q30 -124 30 -407q0 -285 -12 -399t-34 -155t-48 -74t-99 -51q-131 -32 -386 -14l-37 -113q-14 -49 -43 -49q-47 0 -47 43q2 16 41 135q-82 38 -112 102t-42 178t-12 292q0 176 3 304q7 280 116 352q57 36 139 42t166 6
t155 -4l37 112q14 49 43 50q47 0 47 -43q-2 -16 -41 -138q106 -45 136 -169z" />
    <glyph glyph-name="oslashacute" unicode="&#x1ff;" 
d="M731 1217q0 -29 -47 -50l-295 -131l-14 -2q-27 0 -38 23t-11 41q0 25 39 41l282 127l31 8q23 0 38 -14t15 -43zM537 803q-150 0 -256 -108q-107 -107 -107 -263t143 -289l365 631q-82 29 -145 29zM899 442q0 158 -143 285l-361 -627q80 -27 142 -26q150 0 256 105
t106 263zM979 1127q0 -17 -12 -37l-166 -289q174 -163 174 -357t-129 -325t-309 -131q-88 0 -185 41l-180 -310q-12 -16 -30 -16t-32 11q-16 10 -16 26t33 76l149 256q-178 154 -178 352t128 332t311 133q80 0 188 -43l168 291q28 48 71 19q15 -12 15 -29z" />
    <glyph glyph-name="Adblgrave" unicode="&#x200;" 
d="M406 1436q0 -16 -18 -36t-40 -22q-20 0 -63 43l-99 92q-53 49 -53 69q1 20 17 36t36 16q33 -6 66 -35l133 -126q21 -21 21 -37zM817 1436q0 -16 -18 -36q-19 -20 -39 -22q-20 0 -64 43l-98 92q-53 49 -53 69t16 36t37 16q33 -6 66 -35l133 -126q20 -21 20 -37zM702 436
l-157 754h-15l-159 -754h331zM1014 43q0 -43 -72 -43h-215q-68 0 -68 43q0 31 25 37t98 6l-57 264h-377l-57 -264q75 0 99 -6t24 -37q0 -43 -68 -43h-217q-70 0 -70 43q0 29 25 41q12 2 98 2l260 1126q14 54 51 62q13 2 45 2t45 -2q31 -5 48 -64l260 -1124q84 0 96 -2
q27 -10 27 -41z" />
    <glyph glyph-name="adblgrave" unicode="&#x201;" 
d="M465 1083q-1 -16 -19 -36q-18 -21 -38 -21t-64 43l-98 92q-53 49 -53 69t16 36t37 16q33 -6 65 -35l133 -127q21 -21 21 -37zM877 1083q-1 -16 -19 -36q-18 -21 -38 -21t-64 43l-99 92q-53 49 -53 69t16 36t37 16q33 -6 66 -35l133 -127q21 -21 21 -37zM754 262v201
q-250 -7 -390 -67t-141 -146q0 -72 67 -124q66 -52 178 -52t191 39q45 20 67 47t25 46t3 56zM1071 45q0 -19 -14 -31q-15 -12 -29 -13t-54 -1t-71 2t-74 20t-67 54q-136 -88 -298 -88t-254 78q-91 78 -91 184q0 141 170 216t465 79q0 258 -291 258q-141 0 -141 -47
q-2 -40 -26 -58t-52 -18t-48 20q-22 20 -22 56q0 133 287 133q199 0 298 -92t99 -215v-471q66 -25 140 -25t73 -41z" />
    <glyph glyph-name="Edblgrave" unicode="&#x204;" 
d="M465 1436q-1 -16 -19 -36t-38 -22q-20 0 -64 43l-98 92q-53 49 -53 69t16 36t37 16q33 -6 65 -35l133 -126q21 -21 21 -37zM877 1436q-1 -16 -19 -36t-38 -22q-20 0 -64 43l-99 92q-53 49 -53 69t16 36t37 16q33 -6 66 -35l133 -126q21 -21 21 -37zM1024 66
q0 -38 -12 -52t-51 -14h-838q-66 0 -66 43t66 43h86v1079h-86q-66 0 -66 43t66 43h790q39 0 51 -13t13 -52v-156q0 -39 -14 -52t-44 -13t-38 17t-9 48v135h-561v-473h322q0 54 2 74t13 34t36 13q51 0 51 -65v-197q0 -39 -13 -52t-43 -13t-38 22q-8 23 -8 98h-322v-520h609
v168q0 39 14 52t44 13t38 -16t8 -49v-188z" />
    <glyph glyph-name="edblgrave" unicode="&#x205;" 
d="M465 1083q-1 -16 -19 -36q-18 -21 -38 -21t-64 43l-98 92q-53 49 -53 69t16 36t37 16q33 -6 65 -35l133 -127q21 -21 21 -37zM877 1083q-1 -16 -19 -36q-18 -21 -38 -21t-64 43l-99 92q-53 49 -53 69t16 36t37 16q33 -6 66 -35l133 -127q21 -21 21 -37zM553 803
q-119 0 -210 -86t-118 -228h613q-10 121 -58 195t-104 96q-55 22 -123 23zM119 438q0 186 127 318t311 133q185 0 285 -123t100 -305q0 -49 -31 -55q-10 -2 -32 -3h-656q29 -157 137 -243t240 -86q178 0 246 151q8 23 52 23t44 -45t-80 -123q-38 -39 -112 -66t-164 -26
q-197 0 -332 132t-135 318z" />
    <glyph glyph-name="Idblgrave" unicode="&#x208;" 
d="M465 1436q-1 -16 -19 -36t-38 -22q-20 0 -64 43l-98 92q-53 49 -53 69t16 36t37 16q33 -6 65 -35l133 -126q21 -21 21 -37zM877 1436q-1 -16 -19 -36t-38 -22q-20 0 -64 43l-99 92q-53 49 -53 69t16 36t37 16q33 -6 66 -35l133 -126q21 -21 21 -37zM905 43q0 -43 -65 -43
h-604q-66 0 -66 43t66 43h249v1079h-249q-66 0 -66 43t66 43h604q66 0 65 -45q0 -41 -65 -41h-250v-1079h250q65 0 65 -43z" />
    <glyph glyph-name="idblgrave" unicode="&#x209;" 
d="M465 1083q-1 -16 -19 -36q-18 -21 -38 -21t-64 43l-98 92q-53 49 -53 69t16 36t37 16q33 -6 65 -35l133 -127q21 -21 21 -37zM877 1083q-1 -16 -19 -36q-18 -21 -38 -21t-64 43l-99 92q-53 49 -53 69t16 36t37 16q33 -6 66 -35l133 -127q21 -21 21 -37zM924 43
q0 -43 -66 -43h-625q-66 0 -65 43q0 43 65 43h279v698h-262q-66 0 -66 43t66 43h301q39 0 51 -13t12 -52v-719h244q66 0 66 -43z" />
    <glyph glyph-name="Odblgrave" unicode="&#x20c;" 
d="M465 1436q-1 -16 -19 -36t-38 -22q-20 0 -64 43l-98 92q-53 49 -53 69t16 36t37 16q33 -6 65 -35l133 -126q21 -21 21 -37zM877 1436q-1 -16 -19 -36t-38 -22q-20 0 -64 43l-99 92q-53 49 -53 69t16 36t37 16q33 -6 66 -35l133 -126q21 -21 21 -37zM532 1188
q-140 0 -200 -34t-84 -133q-23 -99 -23 -390q-1 -291 23 -391t84 -139q60 -38 207 -38q149 0 207 40q58 39 80 147t22 397t-26 385t-88 126t-202 30zM931 1034q21 -100 21 -371q0 -273 -12 -387t-34 -155t-48 -74t-76 -45q-156 -38 -371 -21q-116 7 -171 45q-27 17 -58 65
t-46 169t-15 304q0 182 3 310q7 280 116 352q57 36 139 42t171 6t149 -6q59 -6 111 -33t76 -64t45 -137z" />
    <glyph glyph-name="odblgrave" unicode="&#x20d;" 
d="M465 1083q-1 -16 -19 -36q-18 -21 -38 -21t-64 43l-98 92q-53 49 -53 69t16 36t37 16q33 -6 65 -35l133 -127q21 -21 21 -37zM877 1083q-1 -16 -19 -36q-18 -21 -38 -21t-64 43l-99 92q-53 49 -53 69t16 36t37 16q33 -6 66 -35l133 -127q21 -21 21 -37zM846 449
q0 153 -92 253t-216 100t-217 -100t-93 -254t90 -264q92 -110 218 -110t218 110t92 265zM950 436q0 -188 -123 -318t-291 -130t-290 130q-123 130 -123 318t122 320t292 133q169 -1 291 -133t122 -320z" />
    <glyph glyph-name="Rdblgrave" unicode="&#x210;" 
d="M406 1436q0 -16 -18 -36t-40 -22q-20 0 -63 43l-99 92q-53 49 -53 69q1 20 17 36t36 16q33 -6 66 -35l133 -126q21 -21 21 -37zM817 1436q0 -16 -18 -36q-19 -20 -39 -22q-20 0 -64 43l-98 92q-53 49 -53 69t16 36t37 16q33 -6 66 -35l133 -126q20 -21 20 -37zM465 670
q145 0 227 77t82 170t-82 171t-227 77h-174v-495h174zM1065 176q0 -68 -41 -134t-129 -65q-88 0 -137 78q-29 49 -35 101t-6 150t-9 138t-44 74q-74 63 -187 64h-186v-496h74q63 0 63 -43t-63 -43h-252q-63 0 -64 43q0 43 64 43h73v1079h-73q-63 0 -64 41q0 45 64 45h374
q170 0 280 -99t110 -234q0 -182 -197 -293q94 -73 118 -129t23 -201q0 -231 80 -232q29 1 45 45t17 72q2 43 52 43t50 -47z" />
    <glyph glyph-name="rdblgrave" unicode="&#x211;" 
d="M465 1083q-1 -16 -19 -36q-18 -21 -38 -21t-64 43l-98 92q-53 49 -53 69t16 36t37 16q33 -6 65 -35l133 -127q21 -21 21 -37zM877 1083q-1 -16 -19 -36q-18 -21 -38 -21t-64 43l-99 92q-53 49 -53 69t16 36t37 16q33 -6 66 -35l133 -127q21 -21 21 -37zM991 777
q0 -36 -19 -55q-19 -20 -49 -20t-50 26q-19 26 -19 69q-204 0 -314 -126t-110 -298v-287h256q66 0 66 -43t-66 -43h-551q-63 0 -63 43t63 43h193v698h-193q-63 0 -63 43t63 43h232q39 0 51 -13t12 -52v-129q182 207 381 207q102 0 141 -35t39 -71z" />
    <glyph glyph-name="Udblgrave" unicode="&#x214;" 
d="M465 1436q-1 -16 -19 -36t-38 -22q-20 0 -64 43l-98 92q-53 49 -53 69t16 36t37 16q33 -6 65 -35l133 -126q21 -21 21 -37zM877 1436q-1 -16 -19 -36t-38 -22q-20 0 -64 43l-99 92q-53 49 -53 69t16 36t37 16q33 -6 66 -35l133 -126q21 -21 21 -37zM1061 1208
q0 -43 -66 -43h-84v-753q0 -182 -110 -309q-111 -126 -265 -126t-264 126q-111 126 -110 309v753h-84q-66 0 -66 43t66 43h272q66 0 66 -43t-66 -43h-84v-743q0 -170 84 -264t186 -94t187 94q84 94 84 264v743h-84q-66 0 -66 43t66 43h272q66 0 66 -43z" />
    <glyph glyph-name="udblgrave" unicode="&#x215;" 
d="M465 1083q-1 -16 -19 -36q-18 -21 -38 -21t-64 43l-98 92q-53 49 -53 69t16 36t37 16q33 -6 65 -35l133 -127q21 -21 21 -37zM877 1083q-1 -16 -19 -36q-18 -21 -38 -21t-64 43l-99 92q-53 49 -53 69t16 36t37 16q33 -6 66 -35l133 -127q21 -21 21 -37zM981 86
q63 0 63 -43t-65 -43h-154q-20 0 -30 3q-11 3 -23 23t-12 62q-133 -100 -273 -100q-279 0 -278 233v563h-117q-63 0 -63 43t65 43h154q39 0 51 -13t12 -52v-572q0 -39 3 -59q4 -20 20 -48q31 -52 166 -52q182 0 241 133q20 45 21 104v473h-117q-63 0 -63 43t65 43h154
q39 0 51 -13t12 -52v-719h117z" />
    <glyph glyph-name="uni0218" unicode="&#x218;" 
d="M649 -250q1 -104 -71 -172t-121 -67q-11 0 -21 10t-10 23t18 18q147 49 148 182q-24 -12 -56 -12t-55 22t-23 57q0 33 24 55q22 22 62 22t72 -39q32 -38 33 -99zM961 326q1 -136 -105 -242t-272 -107q-215 0 -363 111q-17 -70 -29 -90t-36 -21q-43 0 -43 66v279
q0 65 53 65q41 0 47 -28q2 -9 4 -25q6 -135 109 -201q102 -70 244 -70t218 79t76 177q0 205 -252 261l-241 57q-121 35 -190 121t-69 204t106 214q105 98 273 98t304 -115q18 71 29 93t36 22q43 0 43 -66v-278q0 -39 -14 -52q-14 -14 -47 -14t-41 31q-31 151 -99 215
q-31 30 -88 54t-131 24q-119 0 -197 -70t-77 -155q0 -85 53 -144t131 -82l172 -39q135 -30 187 -52t112 -79q97 -104 97 -241z" />
    <glyph glyph-name="uni0219" unicode="&#x219;" 
d="M649 -250q1 -104 -71 -172t-121 -67q-11 0 -21 10t-10 23t18 18q147 49 148 182q-24 -12 -56 -12t-55 22t-23 57q0 33 24 55q22 22 62 22t72 -39q32 -38 33 -99zM932 244q0 -85 -71 -163q-38 -42 -119 -68t-191 -25q-158 0 -287 94q-31 -94 -65 -94q-43 0 -43 65v205
q0 39 14 52q14 14 43 14t43 -25q43 -133 120 -179q76 -46 200 -46t197 49t73 121q0 131 -291 178q-194 25 -278 67t-106 95q-15 35 -15 73q0 37 14 71q67 160 367 161q129 0 239 -53q8 31 18 42t33 11q41 0 41 -66v-145q0 -39 -14 -52q-14 -14 -47 -14t-39 31
q-10 76 -56 118t-188 42t-212 -44t-70 -100t71 -91q72 -34 152 -46l145 -24q322 -51 322 -254z" />
    <glyph glyph-name="uni021A" unicode="&#x21a;" 
d="M649 -250q1 -104 -71 -172t-121 -67q-11 0 -21 10t-10 23t18 18q147 49 148 182q-24 -12 -56 -12t-55 22t-23 57q0 33 24 55q22 22 62 22t72 -39q32 -38 33 -99zM963 965q-52 0 -52 65v135h-321v-1079h131q63 0 63 -43t-63 -43h-367q-63 0 -63 43t63 43h131v1079h-323
v-135q0 -40 -14 -52q-14 -13 -44 -13t-38 17t-9 48v156q-1 39 13 52t53 13h829q40 0 52 -13t12 -52v-156q0 -40 -14 -52q-14 -13 -39 -13z" />
    <glyph glyph-name="uni021B" unicode="&#x21b;" 
d="M649 -250q1 -104 -71 -172t-121 -67q-11 0 -21 10t-10 23t18 18q147 49 148 182q-24 -12 -56 -12t-55 22t-23 57q0 33 24 55q22 22 62 22t72 -39q32 -38 33 -99zM911 246q0 -123 -93 -191q-93 -67 -213 -67q-121 0 -199 63t-78 195v538h-209q-63 0 -64 41q0 45 66 45h207
v195q0 39 13 52t43 13t38 -17t8 -48v-195h369q63 0 63 -43t-63 -43h-369v-526q0 -97 42 -141t142 -43q37 0 75 10t78 53t40 107t51 63q45 0 51 -31q2 -10 2 -30z" />
    <glyph glyph-name="ereversed" unicode="&#x258;" 
d="M508 803q-68 0 -123 -23q-55 -22 -103 -96t-59 -195h613q-27 141 -118 227t-210 87zM942 438q0 -186 -135 -318t-332 -132q-234 0 -336 165q-20 34 -20 56q0 39 44 39t52 -23q68 -152 246 -151q133 0 241 87t136 242h-656q-22 1 -32 3q-30 8 -31 55q0 182 100 305
q101 123 285 123q184 -1 311 -133t127 -318z" />
    <glyph glyph-name="schwa" unicode="&#x259;" 
d="M836 387h-613q11 -121 59 -195t103 -96q55 -23 123 -22q119 0 210 86t118 227zM942 438q0 -186 -127 -318t-311 -132t-285 123q-100 123 -100 305q0 49 31 55q10 2 32 2h656q-29 156 -137 243t-240 87q-178 0 -246 -152q-8 -23 -52 -23t-44 46q0 45 80 123q39 39 113 65
t163 27q197 -1 332 -133t135 -318z" />
    <glyph glyph-name="ringhalfright" unicode="&#x2be;" 
d="M834 851q0 -130 -88 -238t-261 -107q-115 0 -170 33t-55 69t20 54t46 18q63 0 63 -72q0 -16 84 -16q157 0 215 98q47 81 47 169q0 89 -71 161q-72 72 -176 72t-154 -107q-12 -18 -52 -18t-40 37t39 83q77 91 219 91t238 -98t96 -229z" />
    <glyph glyph-name="ringhalfleft" unicode="&#x2bf;" 
d="M242 832q0 130 87 238t261 108q113 0 180 -39q45 -27 45 -63t-19 -54t-46 -18q-63 0 -64 71q0 17 -84 17q-157 1 -215 -99q-47 -81 -47 -169t72 -160t176 -72t153 106q13 18 53 18t40 -36q0 -37 -40 -83q-80 -93 -221 -92t-236 99t-95 228z" />
    <glyph glyph-name="circumflex" unicode="&#x2c6;" 
d="M831 1081q0 -45 -49 -45q-10 0 -61 31l-182 111l-183 -111q-51 -31 -61 -31q-49 0 -49 45q0 16 45 45l211 136q35 23 69 0l215 -136q45 -29 45 -45z" />
    <glyph glyph-name="caron" unicode="&#x2c7;" 
d="M831 1227q0 -16 -45 -45l-211 -135q-35 -23 -69 0l-215 135q-45 29 -45 45q0 45 49 45q10 0 61 -31l183 -111l182 111q51 31 61 31q49 0 49 -45z" />
    <glyph glyph-name="breve" unicode="&#x2d8;" 
d="M891 1209q0 -45 -26 -75q-27 -30 -59 -44t-89 -22q-70 -10 -222 -11q-152 0 -225 33q-32 14 -58 45t-26 75t45 43q29 0 37 -22q23 -82 271 -82t270 82q8 23 37 22q45 0 45 -44z" />
    <glyph glyph-name="dotaccent" unicode="&#x2d9;" 
d="M539 1239q35 -1 59 -25t25 -60q0 -36 -25 -60q-26 -24 -60 -25q-34 0 -59 25q-25 24 -25 60t26 60q24 24 59 25z" />
    <glyph glyph-name="ring" unicode="&#x2da;" 
d="M748 1154q0 -60 -60 -103t-149 -43q-88 0 -149 43q-60 43 -60 103t60 104t148 44t150 -44q60 -44 60 -104zM645 1154q0 34 -32 53q-33 19 -75 19t-74 -18q-32 -20 -32 -54t32 -52t75 -18t75 18t31 52z" />
    <glyph glyph-name="ogonek" unicode="&#x2db;" 
d="M532 -430q-84 0 -136 56t-52 122t42 126t103 103h56q-119 -84 -119 -231q0 -45 38 -75t77 -29q68 0 131 86q6 6 21 9t28 -3q24 -18 6 -47q-84 -117 -195 -117z" />
    <glyph glyph-name="tilde" unicode="&#x2dc;" 
d="M889 1212q0 -28 -93 -96q-94 -68 -150 -68t-101 37q-3 3 -47 41t-66 39q-55 0 -162 -100q-20 -16 -36 -16t-31 14q-14 14 -15 31q0 26 94 96t147 70q54 0 103 -37q4 -3 48 -41t65 -39q53 0 162 98q37 37 67 4q15 -15 15 -33z" />
    <glyph glyph-name="hungarumlaut" unicode="&#x2dd;" 
d="M883 1230q0 -20 -54 -69l-98 -92q-43 -43 -63 -43t-38 20t-20 37q0 16 21 37l133 127q33 29 65 35q20 0 37 -16t17 -36zM471 1230q0 -20 -53 -69l-99 -92q-43 -43 -63 -43t-38 20t-19 37q0 16 20 37l133 127q33 29 66 35q20 0 36 -16t17 -36z" />
    <glyph glyph-name="uni0300" unicode="&#x300;" horiz-adv-x="0" 
d="M-336 1098q0 -18 -11 -41t-29 -23t-23 2l-295 131q-47 19 -47 49q0 58 53 58q12 0 31 -8l282 -127q39 -16 39 -41z" />
    <glyph glyph-name="uni0301" unicode="&#x301;" horiz-adv-x="0" 
d="M-334 1217q0 -29 -47 -50l-295 -131l-14 -2q-27 0 -38 23t-11 41q0 25 39 41l282 127l31 8q23 0 38 -14t15 -43z" />
    <glyph glyph-name="uni0302" unicode="&#x302;" horiz-adv-x="0" 
d="M-244 1081q0 -45 -49 -45q-10 0 -61 31l-183 111l-182 -111q-51 -31 -61 -31q-49 0 -49 45q0 16 45 45l211 136q35 23 69 0l215 -136q45 -29 45 -45z" />
    <glyph glyph-name="uni0303" unicode="&#x303;" horiz-adv-x="0" 
d="M-186 1212q0 -28 -94 -96t-149 -68q-56 0 -101 37q-4 3 -48 41t-65 39q-55 0 -162 -100q-21 -16 -37 -16t-30 14t-14 35t95 96q91 66 145 66t103 -37q3 -3 47 -41t66 -39q53 0 162 98q37 37 67 4q15 -15 15 -33z" />
    <glyph glyph-name="uni0304" unicode="&#x304;" horiz-adv-x="0" 
d="M-221 1200q63 0 63 -45t-63 -45h-629q-66 0 -65 45q0 45 63 45h631z" />
    <glyph glyph-name="uni0306" unicode="&#x306;" horiz-adv-x="0" 
d="M-184 1209q0 -45 -26 -75t-76 -51t-123 -24q-73 -2 -128 -2t-130 2t-123 24q-99 44 -99 125q0 45 45 45q29 0 37 -22q23 -82 271 -82t270 82q8 23 37 22q45 0 45 -44z" />
    <glyph glyph-name="uni0307" unicode="&#x307;" horiz-adv-x="0" 
d="M-537 1069q-35 0 -59 25q-24 24 -25 60q0 36 25 60q26 24 60 25q34 -1 58 -25t25 -60q-1 -36 -25 -60t-59 -25z" />
    <glyph glyph-name="uni0308" unicode="&#x308;" horiz-adv-x="0" 
d="M-362 1229q31 1 52 -21t21 -54q1 -32 -21 -54t-52 -21q-30 0 -53 22q-21 21 -21 53t22 54t52 21zM-713 1079q-31 0 -53 22q-22 21 -20 53q0 32 22 54t52 21q30 1 52 -21t21 -54q1 -32 -21 -54t-53 -21z" />
    <glyph glyph-name="uni0309" unicode="&#x309;" horiz-adv-x="0" 
d="M-645 1235q0 -47 -40 -47t-40 39q0 65 51 107t130 42q78 0 136 -38t58 -109q0 -70 -64 -103q-102 -55 -102 -118v-39q0 -13 -10 -25t-27 -12q-39 0 -39 37v39q0 106 143 186l23 29q0 79 -127 77q-37 0 -65 -22t-27 -43z" />
    <glyph glyph-name="uni030A" unicode="&#x30a;" horiz-adv-x="0" 
d="M-328 1154q0 -60 -60 -103t-148 -43t-149 43q-60 43 -60 103t60 104t148 44q89 0 149 -44t60 -104zM-430 1154q0 34 -32 53t-75 19t-75 -18q-32 -20 -31 -54q0 -34 32 -52q33 -18 75 -18t74 18t32 52z" />
    <glyph glyph-name="uni030B" unicode="&#x30b;" horiz-adv-x="0" 
d="M-193 1230q0 -20 -53 -69l-98 -92q-44 -43 -64 -43t-38 20t-18 37q0 16 20 37l133 127q33 29 65 35q20 0 36 -16t17 -36zM-604 1230q0 -20 -53 -69l-99 -92q-43 -43 -63 -43q-21 0 -39 20t-18 37q0 16 20 37l133 127q33 29 66 35q21 0 37 -16t16 -36z" />
    <glyph glyph-name="uni030C" unicode="&#x30c;" horiz-adv-x="0" 
d="M-244 1227q0 -16 -45 -45l-211 -135q-35 -23 -69 0l-215 135q-45 29 -45 45q0 45 49 45q10 0 61 -31l182 -111l183 111q51 31 61 31q49 0 49 -45z" />
    <glyph glyph-name="uni030F" unicode="&#x30f;" horiz-adv-x="0" 
d="M-610 1083q0 -16 -18 -36q-18 -21 -40 -21q-20 0 -63 43l-98 92q-53 49 -53 69t16 36t37 16q33 -6 65 -35l133 -127q21 -21 21 -37zM-199 1083q0 -16 -18 -36q-19 -21 -39 -21t-63 43l-99 92q-53 49 -53 69t16 36t37 16q33 -6 66 -35l133 -127q20 -21 20 -37z" />
    <glyph glyph-name="uni0311" unicode="&#x311;" horiz-adv-x="0" 
d="M-184 1101q0 -44 -45 -44q-29 0 -37 22q-23 82 -271 82t-270 -82q-8 -23 -37 -22q-45 0 -45 44t26 75q27 31 59 45t89 22q71 10 221 10t226 -32q32 -14 58 -45t26 -75z" />
    <glyph glyph-name="uni0323" unicode="&#x323;" horiz-adv-x="0" 
d="M-537 -424q-35 0 -59 25t-25 61q0 36 25 60q26 24 60 24t58 -24t25 -61q-1 -37 -25 -61t-59 -24z" />
    <glyph glyph-name="uni0326" unicode="&#x326;" horiz-adv-x="0" 
d="M-426 -250q0 -104 -72 -172t-120 -67q-12 0 -22 10t-9 23q0 13 18 18q147 49 148 182q-25 -12 -57 -12t-54 22t-22 57q0 33 22 55t62 22t73 -39q33 -38 33 -99z" />
    <glyph glyph-name="uni032E" unicode="&#x32e;" horiz-adv-x="0" 
d="M-184 -253q0 -44 -26 -75q-59 -71 -208 -75t-194 -2q-46 2 -103 10t-90 22t-59 45t-25 75q0 44 45 44q29 0 37 -22q23 -82 271 -82t270 82q8 23 37 22q45 0 45 -44z" />
    <glyph glyph-name="uni032F" unicode="&#x32f;" horiz-adv-x="0" 
d="M-184 -361q0 -44 -45 -45q-29 0 -37 23q-23 82 -271 82t-270 -82q-8 -23 -37 -23q-45 0 -45 44t26 76q27 30 59 44t89 22t90 10q33 1 88 1t88 -1t91 -9q58 -9 90 -23t58 -44t26 -75z" />
    <glyph glyph-name="uni0330" unicode="&#x330;" horiz-adv-x="0" 
d="M-186 -248q0 -29 -97 -98q-84 -66 -143 -66t-104 37q-54 49 -74 63t-39 15q-57 0 -162 -98q-39 -32 -67 -2q-14 15 -14 35t95 96q91 66 145 66t103 -38q88 -79 113 -79q53 0 162 98q18 18 36 18q18 -1 32 -15t14 -32z" />
    <glyph glyph-name="uni0331" unicode="&#x331;" horiz-adv-x="0" 
d="M-221 -262q63 0 63 -45t-63 -45h-629q-66 0 -65 45q0 45 63 45h631z" />
    <glyph glyph-name="uni0332" unicode="&#x332;" horiz-adv-x="0" 
d="M-221 -262q63 0 63 -45t-63 -45h-629q-66 0 -65 45q0 45 63 45h631z" />
    <glyph glyph-name="Gamma" unicode="&#x393;" 
d="M993 1030q0 -39 -14 -52t-39 -13q-49 0 -49 65v135h-553v-1079h139q66 0 66 -43t-66 -43h-342q-63 0 -63 43t63 43h98v1079h-98q-63 0 -63 43t63 43h795q41 0 52 -13t11 -52v-156z" />
    <glyph glyph-name="Delta" unicode="&#x394;" 
d="M868 100l-327 1090h-9l-327 -1090h663zM997 25q0 -25 -51 -25h-819q-51 0 -51 25v2l364 1196q14 45 57 51q13 2 50 2t55 -10t31 -52l364 -1187v-2z" />
    <glyph glyph-name="Theta" unicode="&#x398;" 
d="M676 741q47 0 47 -65v-101q0 -65 -53 -65q-47 0 -52 65h-163q-3 -31 -13 -46t-18 -17t-27 -2q-47 0 -47 65v101q0 40 14 52q14 13 39 13q47 0 52 -65h163q2 31 12 46t19 17q8 2 27 2zM225 638q-1 -272 19 -384q20 -111 80 -151t212 -40q154 0 210 38q56 37 79 139t23 374
t-20 384q-20 110 -78 150q-59 40 -212 40t-210 -38t-80 -139t-23 -373zM931 1034q21 -100 21 -371q0 -273 -12 -387t-34 -155t-48 -74t-76 -45q-156 -38 -371 -21q-116 7 -171 45q-27 17 -58 65t-46 169t-15 304q0 182 3 310q7 280 116 352q57 36 139 42t171 6t149 -6
q59 -6 111 -33t76 -64t45 -137z" />
    <glyph glyph-name="Lambda" unicode="&#x39b;" 
d="M1010 43q0 -43 -68 -43h-227q-66 0 -66 43t66 43h69l-243 1104h-11l-243 -1104h71q66 0 66 -43t-66 -43h-229q-66 0 -66 43q0 33 30 38t87 5l262 1135q12 55 84 55h21q25 0 37 -2q32 -5 49 -60l260 -1128q98 0 107 -14q10 -14 10 -29z" />
    <glyph glyph-name="Xi" unicode="&#x39e;" 
d="M999 66q0 -38 -12 -52t-51 -14h-797q-41 0 -53 12t-12 54v51q0 66 49 65q37 0 45 -20t8 -80h721q0 41 2 57q5 43 53 43q47 0 47 -65v-51zM233 702q0 64 54 64q29 0 40 -15t11 -59h397q0 42 11 58t47 16q47 0 47 -64v-102q0 -23 -2 -33t-14 -20t-40 -10q-27 0 -38 15
t-11 58h-397q0 -43 -11 -58t-38 -15t-39 10t-14 20t-3 33v102zM991 1145q0 -64 -51 -66q-35 -1 -43 19t-8 71h-705q0 -61 -13 -75t-43 -14t-38 16q-8 18 -8 49v41q0 39 12 52t53 13h781q39 0 51 -13t12 -52v-41z" />
    <glyph glyph-name="Pi" unicode="&#x3a0;" 
d="M1024 43q0 -43 -63 -43h-252q-63 0 -64 45q0 41 64 41h73v1079h-491v-1079h74q63 0 63 -43t-63 -43h-252q-63 0 -64 43q0 43 64 43h73v1079h-73q-63 0 -64 41q0 45 64 45h848q63 0 63 -43t-63 -43h-74v-1079h74q63 0 63 -43z" />
    <glyph glyph-name="Sigma" unicode="&#x3a3;" 
d="M985 66q0 -38 -12 -52t-51 -14h-768q-66 0 -66 39q0 6 2 10l334 576l-322 542q-14 20 -14 39q0 45 66 45h768q41 0 52 -13t11 -52v-156q0 -39 -14 -52t-44 -13t-38 17t-8 48v135h-656l312 -532q0 -16 -17 -45l-287 -498h648v135q0 66 53 66q51 0 51 -66v-159z" />
    <glyph glyph-name="Upsilon" unicode="&#x3a5;" 
d="M989 1022q0 -45 -51 -45t-51 49q0 72 -30 126t-89 54t-98 -54q-80 -111 -80 -419v-647h94q66 0 66 -43t-66 -43h-293q-66 0 -65 43q0 43 65 43h94v647q0 131 -20 248q-38 225 -158 225q-59 0 -90 -54t-31 -130q0 -45 -51 -45t-51 45q0 92 61 172t155 80t152 -80
q60 -80 87 -274q31 202 84 278t148 76t157 -80t61 -172z" />
    <glyph glyph-name="Phi" unicode="&#x3a6;" 
d="M190 626q0 -76 79 -136t216 -78v428q-133 -18 -214 -78t-81 -136zM881 625q0 78 -80 137t-211 78v-428q127 18 209 76t82 137zM985 627q1 -111 -109 -196t-286 -105v-240h108q66 0 66 -43t-66 -43h-321q-66 0 -66 43t66 43h108v240q-173 16 -285 101t-112 198t110 197
t287 104v239h-108q-66 0 -66 43t66 43h321q66 0 66 -43t-66 -43h-108v-239q176 -18 286 -103t109 -196z" />
    <glyph glyph-name="Psi" unicode="&#x3a8;" 
d="M989 936q0 -37 -39 -43q-23 -6 -34 -51t-11 -84q-4 -377 -315 -430v-242h94q66 0 66 -43t-66 -43h-293q-66 0 -65 43q0 43 65 43h94v242q-185 32 -256 166q-61 113 -61 249q0 137 -45 150q-39 6 -39 43q0 45 56 45t88 -38t38 -78t6 -100q0 -210 101 -293q45 -38 112 -58
v751h-94q-66 0 -65 41q0 45 65 45h293q66 0 66 -43t-66 -43h-94v-751q211 66 211 348q0 158 56 197q30 22 81 22t51 -45z" />
    <glyph glyph-name="Omega" unicode="&#x3a9;" 
d="M1001 66q0 -38 -12 -52t-51 -14h-217q-39 0 -52 14t-14 39q0 127 111 385q59 138 87 226t28 174q-1 150 -103 250t-241 100t-243 -100t-104 -250q0 -84 35 -186t140 -349q53 -141 53 -250q0 -25 -13 -39t-51 -14h-217q-39 0 -52 12t-13 54v55q0 66 37 65q27 0 33 -24
t5 -76h181q-20 135 -130 372t-110 380q0 184 132 310t316 126t317 -126q132 -126 132 -310q0 -147 -119 -402q-59 -124 -84 -192t-37 -158h181q0 80 12 90t27 10q37 0 36 -65v-55z" />
    <glyph glyph-name="baht" unicode="&#xe3f;" 
d="M477 86v522h-178v-522h178zM877 334q0 94 -82 184t-217 90h-15v-522h27q137 0 212 77t75 171zM477 694v471h-178v-471h178zM834 941q0 81 -62 153t-207 71v-471q139 16 204 91t65 156zM981 332q0 -128 -93 -230t-251 -102h-74v-152q0 -18 -11 -31q-10 -13 -30 -13t-32 12
q-12 14 -13 32v152h-362q-63 0 -64 43q0 43 66 43h80v1079h-80q-66 0 -66 43t64 43h360v152q0 17 13 31q12 14 32 14t32 -13t13 -32v-152h29q156 0 249 -94t93 -213q0 -203 -262 -291q307 -73 307 -321z" />
    <glyph glyph-name="Ddotbelow" unicode="&#x1e0c;" 
d="M410 -254q36 0 60 -24t24 -61t-25 -61t-59 -24t-60 25q-24 25 -24 61t24 60t60 24zM504 86q176 0 278 160t103 371q-1 212 -103 380t-278 168h-223v-1079h223zM545 1251q197 1 319 -189t123 -445q0 -255 -124 -436t-318 -181h-436q-66 0 -66 43t66 43h67v1079h-67
q-66 0 -66 43t66 43h436z" />
    <glyph glyph-name="ddotbelow" unicode="&#x1e0d;" 
d="M539 -254q35 0 59 -24t25 -61q0 -37 -25 -61q-26 -24 -60 -24t-59 25t-25 61t26 60q24 24 59 24zM762 389v152q0 98 -77 177t-193 79q-116 1 -213 -103t-97 -257t89 -258t211 -105t201 103t79 212zM981 86q63 0 63 -43t-65 -43h-154q-45 0 -54 24t-9 113
q-145 -149 -298 -149q-152 0 -268 130t-116 317t122 317t290 131q129 0 270 -121v403h-117q-63 0 -63 43t65 43h154q39 0 51 -13t12 -52v-1100h117z" />
    <glyph glyph-name="Dlinebelow" unicode="&#x1e0e;" 
d="M725 -262q63 0 63 -45t-63 -45h-629q-66 0 -65 45q0 45 63 45h631zM504 86q176 0 278 160t103 371q-1 212 -103 380t-278 168h-223v-1079h223zM545 1251q197 1 319 -189t123 -445q0 -255 -124 -436t-318 -181h-436q-66 0 -66 43t66 43h67v1079h-67q-66 0 -66 43t66 43
h436z" />
    <glyph glyph-name="dlinebelow" unicode="&#x1e0f;" 
d="M854 -262q64 0 64 -45t-64 -45h-629q-66 0 -65 45q0 45 63 45h631zM762 389v152q0 98 -77 177t-193 79q-116 1 -213 -103t-97 -257t89 -258t211 -105t201 103t79 212zM981 86q63 0 63 -43t-65 -43h-154q-45 0 -54 24t-9 113q-145 -149 -298 -149q-152 0 -268 130
t-116 317t122 317t290 131q129 0 270 -121v403h-117q-63 0 -63 43t65 43h154q39 0 51 -13t12 -52v-1100h117z" />
    <glyph glyph-name="Hdotbelow" unicode="&#x1e24;" 
d="M539 -254q35 0 59 -24t25 -61q0 -37 -25 -61q-26 -24 -60 -24t-59 25t-25 61t26 60q24 24 59 24zM1024 43q0 -43 -63 -43h-252q-63 0 -64 45q0 41 64 41h73v522h-491v-522h74q63 0 63 -43t-63 -43h-252q-63 0 -64 43q0 43 64 43h73v1079h-73q-63 0 -64 41q0 45 64 45h252
q63 0 63 -43t-63 -43h-74v-471h491v471h-73q-63 0 -64 43q0 43 64 43h252q63 0 63 -43t-63 -43h-74v-1079h74q63 0 63 -43z" />
    <glyph glyph-name="hdotbelow" unicode="&#x1e25;" 
d="M539 -254q35 0 59 -24t25 -61q0 -37 -25 -61q-26 -24 -60 -24t-59 25t-25 61t26 60q24 24 59 24zM1044 43q0 -43 -63 -43h-324q-66 0 -65 43q0 43 65 43h105v502q0 111 -36 160t-134 49t-190 -79t-91 -235v-397h115q66 0 66 -43t-64 -43h-336q-63 0 -63 43t65 43h115
v1079h-117q-63 0 -63 43t65 43h154q39 0 51 -13t12 -52v-445q145 141 299 142q254 0 254 -283v-514h115q65 0 65 -43z" />
    <glyph glyph-name="Hdieresis" unicode="&#x1e26;" 
d="M744 1505q30 0 52 -20t21 -52q1 -32 -21 -54q-22 -21 -53 -21t-53 22t-20 53q0 32 21 52q23 20 53 20zM332 1505q30 0 52 -20t22 -52t-22 -54q-22 -21 -52 -21t-52 22t-22 53q0 32 22 52t52 20zM1024 43q0 -43 -63 -43h-252q-63 0 -64 45q0 41 64 41h73v522h-491v-522h74
q63 0 63 -43t-63 -43h-252q-63 0 -64 43q0 43 64 43h73v1079h-73q-63 0 -64 41q0 45 64 45h252q63 0 63 -43t-63 -43h-74v-471h491v471h-73q-63 0 -64 43q0 43 64 43h252q63 0 63 -43t-63 -43h-74v-1079h74q63 0 63 -43z" />
    <glyph glyph-name="hdieresis" unicode="&#x1e27;" 
d="M744 1505q30 0 52 -20t21 -52q1 -32 -21 -54q-22 -21 -53 -21t-53 22t-20 53q0 32 21 52q23 20 53 20zM332 1505q30 0 52 -20t22 -52t-22 -54q-22 -21 -52 -21t-52 22t-22 53q0 32 22 52t52 20zM1044 43q0 -43 -63 -43h-324q-66 0 -65 43q0 43 65 43h105v502
q0 111 -36 160t-134 49t-190 -79t-91 -235v-397h115q66 0 66 -43t-64 -43h-336q-63 0 -63 43t65 43h115v1079h-117q-63 0 -63 43t65 43h154q39 0 51 -13t12 -52v-445q145 141 299 142q254 0 254 -283v-514h115q65 0 65 -43z" />
    <glyph glyph-name="Hbrevebelow" unicode="&#x1e2a;" 
d="M891 -253q0 -44 -26 -75q-27 -31 -59 -45t-89 -22q-177 -25 -357 0q-57 8 -90 22q-32 14 -58 45t-26 75t45 44q29 0 37 -22q23 -82 271 -82t270 82q8 23 37 22q45 0 45 -44zM1024 43q0 -43 -63 -43h-252q-63 0 -64 45q0 41 64 41h73v522h-491v-522h74q63 0 63 -43
t-63 -43h-252q-63 0 -64 43q0 43 64 43h73v1079h-73q-63 0 -64 41q0 45 64 45h252q63 0 63 -43t-63 -43h-74v-471h491v471h-73q-63 0 -64 43q0 43 64 43h252q63 0 63 -43t-63 -43h-74v-1079h74q63 0 63 -43z" />
    <glyph glyph-name="hbrevebelow" unicode="&#x1e2b;" 
d="M891 -253q0 -44 -26 -75q-27 -31 -59 -45t-89 -22q-177 -25 -357 0q-57 8 -90 22q-32 14 -58 45t-26 75t45 44q29 0 37 -22q23 -82 271 -82t270 82q8 23 37 22q45 0 45 -44zM1044 43q0 -43 -63 -43h-324q-66 0 -65 43q0 43 65 43h105v502q0 111 -36 160t-134 49t-190 -79
t-91 -235v-397h115q66 0 66 -43t-64 -43h-336q-63 0 -63 43t65 43h115v1079h-117q-63 0 -63 43t65 43h154q39 0 51 -13t12 -52v-445q145 141 299 142q254 0 254 -283v-514h115q65 0 65 -43z" />
    <glyph glyph-name="Ldotbelow" unicode="&#x1e36;" 
d="M539 -254q35 0 59 -24t25 -61q0 -37 -25 -61q-26 -24 -60 -24t-59 25t-25 61t26 60q24 24 59 24zM993 66q0 -38 -12 -52t-51 -14h-795q-63 0 -63 43t63 43h98v1079h-98q-63 0 -63 43t63 43h342q66 0 66 -43t-66 -43h-139v-1079h553v168q0 39 13 52t43 13t38 -16t8 -49
v-188z" />
    <glyph glyph-name="ldotbelow" unicode="&#x1e37;" 
d="M539 -254q35 0 59 -24t25 -61q0 -37 -25 -61q-26 -24 -60 -24t-59 25t-25 61t26 60q24 24 59 24zM950 43q0 -43 -63 -43h-699q-63 0 -63 43t65 43h295v1079h-297q-63 0 -63 43t65 43h336q40 0 52 -13t12 -52v-1100h297q63 0 63 -43z" />
    <glyph glyph-name="Ldotbelowmacron" unicode="&#x1e38;" 
d="M625 1489q63 0 63 -45t-63 -45h-629q-66 0 -66 45t64 45h631zM539 -254q35 0 59 -24t25 -61q0 -37 -25 -61q-26 -24 -60 -24t-59 25t-25 61t26 60q24 24 59 24zM993 66q0 -38 -12 -52t-51 -14h-795q-63 0 -63 43t63 43h98v1079h-98q-63 0 -63 43t63 43h342q66 0 66 -43
t-66 -43h-139v-1079h553v168q0 39 13 52t43 13t38 -16t8 -49v-188z" />
    <glyph glyph-name="ldotbelowmacron" unicode="&#x1e39;" 
d="M752 1489q63 0 63 -45t-63 -45h-629q-66 0 -66 45t64 45h631zM539 -254q35 0 59 -24t25 -61q0 -37 -25 -61q-26 -24 -60 -24t-59 25t-25 61t26 60q24 24 59 24zM950 43q0 -43 -63 -43h-699q-63 0 -63 43t65 43h295v1079h-297q-63 0 -63 43t65 43h336q40 0 52 -13t12 -52
v-1100h297q63 0 63 -43z" />
    <glyph glyph-name="Mdotbelow" unicode="&#x1e42;" 
d="M539 -254q35 0 59 -24t25 -61q0 -37 -25 -61q-26 -24 -60 -24t-59 25t-25 61t26 60q24 24 59 24zM1034 43q0 -43 -63 -43h-174q-63 0 -64 43q0 33 29 38t84 5v1079h-15l-227 -698q-10 -35 -64 -35t-65 27l-231 706h-15v-1079q92 0 101 -13q10 -13 10 -30q0 -43 -64 -43
h-174q-63 0 -63 43q0 33 29 38t84 5v1079q-94 -1 -104 13q-9 14 -9 30q0 43 63 43h119q78 0 90 -37l224 -696h4l213 664q12 37 31 53t69 16h119q63 0 63 -43q0 -31 -28 -37t-84 -6v-1079q95 0 103 -14q9 -14 9 -29z" />
    <glyph glyph-name="mdotbelow" unicode="&#x1e43;" 
d="M539 -254q35 0 59 -24t25 -61q0 -37 -25 -61q-26 -24 -60 -24t-59 25t-25 61t26 60q24 24 59 24zM1053 43q0 -43 -66 -43h-158q-66 0 -65 43q0 21 13 31t27 11t48 1v516q0 111 -25 153t-69 42q-78 0 -135 -82t-58 -228v-401q69 0 93 -6t24 -37q0 -43 -66 -43h-157
q-66 0 -66 43q-1 21 13 31t28 11t47 1v516q0 111 -24 153q-25 42 -70 42q-76 0 -132 -82t-56 -228v-401q69 0 93 -6t23 -37q0 -43 -65 -43h-187q-66 0 -65 43q0 31 24 37t93 6v698q-69 0 -93 6t-24 37q0 43 65 43h68q21 0 31 -3t22 -23t15 -62q109 100 201 100t151 -130
q94 131 215 131q57 0 95 -33q39 -33 57 -103t18 -126v-535q70 0 94 -6t23 -37z" />
    <glyph glyph-name="Ndotaccent" unicode="&#x1e44;" 
d="M623 1442q0 -35 -25 -60q-26 -24 -60 -24t-59 24t-24 60q1 34 25 60t59 26t59 -26t25 -60zM948 1251q64 0 64 -43t-64 -43h-76v-1099q0 -42 -13 -54t-58 -12t-66 16q-20 16 -30 45l-410 1104h-19v-1079h74q63 0 64 -43q0 -43 -64 -43h-225q-63 0 -64 45q0 41 64 41h76
v1079h-76q-63 0 -64 43q0 43 64 43h145q50 0 69 -17t30 -44l409 -1104h19v1079h-74q-63 0 -64 41q0 45 64 45h225z" />
    <glyph glyph-name="ndotaccent" unicode="&#x1e45;" 
d="M539 1239q35 -1 59 -25t25 -60q0 -36 -25 -60q-26 -24 -60 -25q-34 0 -59 25q-25 24 -25 60t26 60q24 24 59 25zM1044 43q0 -43 -63 -43h-324q-66 0 -65 43q0 43 65 43h105v502q0 111 -36 160t-134 49t-190 -79t-91 -235v-397h115q66 0 66 -43t-64 -43h-336q-63 0 -63 43
t65 43h115v698h-117q-63 0 -63 43t65 43h154q45 0 54 -22t9 -107q145 141 299 142q254 0 254 -283v-514h115q65 0 65 -43z" />
    <glyph glyph-name="Ndotbelow" unicode="&#x1e46;" 
d="M539 -254q35 0 59 -24t25 -61q0 -37 -25 -61q-26 -24 -60 -24t-59 25t-25 61t26 60q24 24 59 24zM948 1251q64 0 64 -43t-64 -43h-76v-1099q0 -42 -13 -54t-58 -12t-66 16q-20 16 -30 45l-410 1104h-19v-1079h74q63 0 64 -43q0 -43 -64 -43h-225q-63 0 -64 45q0 41 64 41
h76v1079h-76q-63 0 -64 43q0 43 64 43h145q50 0 69 -17t30 -44l409 -1104h19v1079h-74q-63 0 -64 41q0 45 64 45h225z" />
    <glyph glyph-name="ndotbelow" unicode="&#x1e47;" 
d="M539 -254q35 0 59 -24t25 -61q0 -37 -25 -61q-26 -24 -60 -24t-59 25t-25 61t26 60q24 24 59 24zM1044 43q0 -43 -63 -43h-324q-66 0 -65 43q0 43 65 43h105v502q0 111 -36 160t-134 49t-190 -79t-91 -235v-397h115q66 0 66 -43t-64 -43h-336q-63 0 -63 43t65 43h115v698
h-117q-63 0 -63 43t65 43h154q45 0 54 -22t9 -107q145 141 299 142q254 0 254 -283v-514h115q65 0 65 -43z" />
    <glyph glyph-name="Rdotaccent" unicode="&#x1e58;" 
d="M623 1464q0 -36 -25 -60q-26 -24 -60 -24t-59 25t-25 59t25 61q25 25 60 25t59 -26t25 -60zM465 670q145 0 227 77t82 170t-82 171t-227 77h-174v-495h174zM1065 176q0 -68 -41 -134t-129 -65q-88 0 -137 78q-29 49 -35 101t-6 150t-9 138t-44 74q-74 63 -187 64h-186
v-496h74q63 0 63 -43t-63 -43h-252q-63 0 -64 43q0 43 64 43h73v1079h-73q-63 0 -64 41q0 45 64 45h374q170 0 280 -99t110 -234q0 -182 -197 -293q94 -73 118 -129t23 -201q0 -231 80 -232q29 1 45 45t17 72q2 43 52 43t50 -47z" />
    <glyph glyph-name="rdotaccent" unicode="&#x1e59;" 
d="M539 1239q35 -1 59 -25t25 -60q0 -36 -25 -60q-26 -24 -60 -25q-34 0 -59 25q-25 24 -25 60t26 60q24 24 59 25zM991 777q0 -36 -19 -55q-19 -20 -49 -20t-50 26q-19 26 -19 69q-204 0 -314 -126t-110 -298v-287h256q66 0 66 -43t-66 -43h-551q-63 0 -63 43t63 43h193
v698h-193q-63 0 -63 43t63 43h232q39 0 51 -13t12 -52v-129q182 207 381 207q102 0 141 -35t39 -71z" />
    <glyph glyph-name="Rdotbelow" unicode="&#x1e5a;" 
d="M539 -254q35 0 59 -24t25 -61q0 -37 -25 -61q-26 -24 -60 -24t-59 25t-25 61t26 60q24 24 59 24zM465 670q145 0 227 77t82 170t-82 171t-227 77h-174v-495h174zM1065 176q0 -68 -41 -134t-129 -65q-88 0 -137 78q-29 49 -35 101t-6 150t-9 138t-44 74q-74 63 -187 64
h-186v-496h74q63 0 63 -43t-63 -43h-252q-63 0 -64 43q0 43 64 43h73v1079h-73q-63 0 -64 41q0 45 64 45h374q170 0 280 -99t110 -234q0 -182 -197 -293q94 -73 118 -129t23 -201q0 -231 80 -232q29 1 45 45t17 72q2 43 52 43t50 -47z" />
    <glyph glyph-name="rdotbelow" unicode="&#x1e5b;" 
d="M414 -254q36 0 60 -24t24 -61t-25 -61t-59 -24t-60 25q-24 25 -24 61t24 60t60 24zM991 777q0 -36 -19 -55q-19 -20 -49 -20t-50 26q-19 26 -19 69q-204 0 -314 -126t-110 -298v-287h256q66 0 66 -43t-66 -43h-551q-63 0 -63 43t63 43h193v698h-193q-63 0 -63 43t63 43
h232q39 0 51 -13t12 -52v-129q182 207 381 207q102 0 141 -35t39 -71z" />
    <glyph glyph-name="Rdotbelowmacron" unicode="&#x1e5c;" 
d="M854 1489q64 0 64 -45t-64 -45h-629q-66 0 -65 45q0 45 63 45h631zM539 -254q35 0 59 -24t25 -61q0 -37 -25 -61q-26 -24 -60 -24t-59 25t-25 61t26 60q24 24 59 24zM465 670q145 0 227 77t82 170t-82 171t-227 77h-174v-495h174zM1065 176q0 -68 -41 -134t-129 -65
q-88 0 -137 78q-29 49 -35 101t-6 150t-9 138t-44 74q-74 63 -187 64h-186v-496h74q63 0 63 -43t-63 -43h-252q-63 0 -64 43q0 43 64 43h73v1079h-73q-63 0 -64 41q0 45 64 45h374q170 0 280 -99t110 -234q0 -182 -197 -293q94 -73 118 -129t23 -201q0 -231 80 -232
q29 1 45 45t17 72q2 43 52 43t50 -47z" />
    <glyph glyph-name="rdotbelowmacron" unicode="&#x1e5d;" 
d="M854 1200q64 0 64 -45t-64 -45h-629q-66 0 -65 45q0 45 63 45h631zM414 -254q36 0 60 -24t24 -61t-25 -61t-59 -24t-60 25q-24 25 -24 61t24 60t60 24zM991 777q0 -36 -19 -55q-19 -20 -49 -20t-50 26q-19 26 -19 69q-204 0 -314 -126t-110 -298v-287h256q66 0 66 -43
t-66 -43h-551q-63 0 -63 43t63 43h193v698h-193q-63 0 -63 43t63 43h232q39 0 51 -13t12 -52v-129q182 207 381 207q102 0 141 -35t39 -71z" />
    <glyph glyph-name="Sdotbelow" unicode="&#x1e62;" 
d="M539 -254q35 0 59 -24t25 -61q0 -37 -25 -61q-26 -24 -60 -24t-59 25t-25 61t26 60q24 24 59 24zM961 326q1 -136 -105 -242t-272 -107q-215 0 -363 111q-17 -70 -29 -90t-36 -21q-43 0 -43 66v279q0 65 53 65q41 0 47 -28q2 -9 4 -25q6 -135 109 -201q102 -70 244 -70
t218 79t76 177q0 205 -252 261l-241 57q-121 35 -190 121t-69 204t106 214q105 98 273 98t304 -115q18 71 29 93t36 22q43 0 43 -66v-278q0 -39 -14 -52q-14 -14 -47 -14t-41 31q-31 151 -99 215q-31 30 -88 54t-131 24q-119 0 -197 -70t-77 -155q0 -85 53 -144t131 -82
l172 -39q135 -30 187 -52t112 -79q97 -104 97 -241z" />
    <glyph glyph-name="sdotbelow" unicode="&#x1e63;" 
d="M539 -254q35 0 59 -24t25 -61q0 -37 -25 -61q-26 -24 -60 -24t-59 25t-25 61t26 60q24 24 59 24zM932 244q0 -85 -71 -163q-38 -42 -119 -68t-191 -25q-158 0 -287 94q-31 -94 -65 -94q-43 0 -43 65v205q0 39 14 52q14 14 43 14t43 -25q43 -133 120 -179q76 -46 200 -46
t197 49t73 121q0 131 -291 178q-194 25 -278 67t-106 95q-15 35 -15 73q0 37 14 71q67 160 367 161q129 0 239 -53q8 31 18 42t33 11q41 0 41 -66v-145q0 -39 -14 -52q-14 -14 -47 -14t-39 31q-10 76 -56 118t-188 42t-212 -44t-70 -100t71 -91q72 -34 152 -46l145 -24
q322 -51 322 -254z" />
    <glyph glyph-name="Tdotbelow" unicode="&#x1e6c;" 
d="M539 -254q35 0 59 -24t25 -61q0 -37 -25 -61q-26 -24 -60 -24t-59 25t-25 61t26 60q24 24 59 24zM963 965q-52 0 -52 65v135h-321v-1079h131q63 0 63 -43t-63 -43h-367q-63 0 -63 43t63 43h131v1079h-323v-135q0 -40 -14 -52q-14 -13 -44 -13t-38 17t-9 48v156
q-1 39 13 52t53 13h829q40 0 52 -13t12 -52v-156q0 -40 -14 -52q-14 -13 -39 -13z" />
    <glyph glyph-name="tdotbelow" unicode="&#x1e6d;" 
d="M539 -254q35 0 59 -24t25 -61q0 -37 -25 -61q-26 -24 -60 -24t-59 25t-25 61t26 60q24 24 59 24zM911 246q0 -123 -93 -191q-93 -67 -213 -67q-121 0 -199 63t-78 195v538h-209q-63 0 -64 41q0 45 66 45h207v195q0 39 13 52t43 13t38 -17t8 -48v-195h369q63 0 63 -43
t-63 -43h-369v-526q0 -97 42 -141t142 -43q37 0 75 10t78 53t40 107t51 63q45 0 51 -31q2 -10 2 -30z" />
    <glyph glyph-name="Tlinebelow" unicode="&#x1e6e;" 
d="M854 -262q64 0 64 -45t-64 -45h-629q-66 0 -65 45q0 45 63 45h631zM963 965q-52 0 -52 65v135h-321v-1079h131q63 0 63 -43t-63 -43h-367q-63 0 -63 43t63 43h131v1079h-323v-135q0 -40 -14 -52q-14 -13 -44 -13t-38 17t-9 48v156q-1 39 13 52t53 13h829q40 0 52 -13
t12 -52v-156q0 -40 -14 -52q-14 -13 -39 -13z" />
    <glyph glyph-name="tlinebelow" unicode="&#x1e6f;" 
d="M854 -262q64 0 64 -45t-64 -45h-629q-66 0 -65 45q0 45 63 45h631zM911 246q0 -123 -93 -191q-93 -67 -213 -67q-121 0 -199 63t-78 195v538h-209q-63 0 -64 41q0 45 66 45h207v195q0 39 13 52t43 13t38 -17t8 -48v-195h369q63 0 63 -43t-63 -43h-369v-526q0 -97 42 -141
t142 -43q37 0 75 10t78 53t40 107t51 63q45 0 51 -31q2 -10 2 -30z" />
    <glyph glyph-name="Wgrave" unicode="&#x1e80;" 
d="M739 1446q0 -22 -11 -45q-12 -23 -30 -22t-22 3l-295 131q-47 21 -47 49t15 43t33 15t36 -8l282 -127q39 -17 39 -39zM981 1251q66 0 66 -43t-78 -43l-154 -1126q-7 -55 -71 -55t-72 36l-133 619l-140 -627q-17 -28 -75 -28t-66 55l-154 1126h-20q-57 0 -57 43t65 43h168
q63 0 64 -45q0 -41 -64 -41h-70l138 -1095h8l133 632q9 33 69 33t68 -35l129 -630h8l140 1095h-70q-63 0 -63 43t63 43h168z" />
    <glyph glyph-name="wgrave" unicode="&#x1e81;" 
d="M739 1098q0 -18 -11 -41q-12 -23 -30 -23t-22 2l-295 131q-47 19 -47 49q0 58 53 58q12 0 31 -8l282 -127q39 -16 39 -41zM1036 827q0 -33 -43 -41q-16 -2 -57 -2l-131 -729q-4 -23 -9 -33q-14 -29 -68 -30q-54 0 -75 24l-104 404h-12l-99 -371q-8 -35 -27 -46t-63 -11
t-59 14q-14 14 -21 49l-131 729q-85 0 -95 18q-5 9 -5 25q0 43 67 43h244q68 0 68 -43t-68 -43h-121l123 -706h12l113 393q11 35 69 35t68 -37l101 -391h12l121 706h-121q-68 0 -68 43t68 43h244q67 0 67 -43z" />
    <glyph glyph-name="Wacute" unicode="&#x1e82;" 
d="M741 1562q0 -28 -47 -49l-295 -131l-14 -4q-27 0 -38 23t-11 45t39 39l282 127l31 8q23 0 38 -15t15 -43zM981 1251q66 0 66 -43t-78 -43l-154 -1126q-7 -55 -71 -55t-72 36l-133 619l-140 -627q-17 -28 -75 -28t-66 55l-154 1126h-20q-57 0 -57 43t65 43h168
q63 0 64 -45q0 -41 -64 -41h-70l138 -1095h8l133 632q9 33 69 33t68 -35l129 -630h8l140 1095h-70q-63 0 -63 43t63 43h168z" />
    <glyph glyph-name="wacute" unicode="&#x1e83;" 
d="M741 1217q0 -29 -47 -50l-295 -131l-14 -2q-27 0 -38 23t-11 41q0 25 39 41l282 127l31 8q23 0 38 -14t15 -43zM1036 827q0 -33 -43 -41q-16 -2 -57 -2l-131 -729q-4 -23 -9 -33q-14 -29 -68 -30q-54 0 -75 24l-104 404h-12l-99 -371q-8 -35 -27 -46t-63 -11t-59 14
q-14 14 -21 49l-131 729q-85 0 -95 18q-5 9 -5 25q0 43 67 43h244q68 0 68 -43t-68 -43h-121l123 -706h12l113 393q11 35 69 35t68 -37l101 -391h12l121 706h-121q-68 0 -68 43t68 43h244q67 0 67 -43z" />
    <glyph glyph-name="Wdieresis" unicode="&#x1e84;" 
d="M744 1505q30 0 52 -20t21 -52q1 -32 -21 -54q-22 -21 -53 -21t-53 22t-20 53q0 32 21 52q23 20 53 20zM332 1505q30 0 52 -20t22 -52t-22 -54q-22 -21 -52 -21t-52 22t-22 53q0 32 22 52t52 20zM981 1251q66 0 66 -43t-78 -43l-154 -1126q-7 -55 -71 -55t-72 36l-133 619
l-140 -627q-17 -28 -75 -28t-66 55l-154 1126h-20q-57 0 -57 43t65 43h168q63 0 64 -45q0 -41 -64 -41h-70l138 -1095h8l133 632q9 33 69 33t68 -35l129 -630h8l140 1095h-70q-63 0 -63 43t63 43h168z" />
    <glyph glyph-name="wdieresis" unicode="&#x1e85;" 
d="M713 1229q31 1 52 -21t21 -54t-22 -54t-52 -21q-30 0 -52 22q-22 21 -22 53t22 54t53 21zM362 1079q-30 0 -52 22q-22 21 -22 53t22 54t52 21q30 1 52 -21t22 -54t-22 -54t-52 -21zM1036 827q0 -33 -43 -41q-16 -2 -57 -2l-131 -729q-4 -23 -9 -33q-14 -29 -68 -30
q-54 0 -75 24l-104 404h-12l-99 -371q-8 -35 -27 -46t-63 -11t-59 14q-14 14 -21 49l-131 729q-85 0 -95 18q-5 9 -5 25q0 43 67 43h244q68 0 68 -43t-68 -43h-121l123 -706h12l113 393q11 35 69 35t68 -37l101 -391h12l121 706h-121q-68 0 -68 43t68 43h244q67 0 67 -43z
" />
    <glyph glyph-name="Zdotbelow" unicode="&#x1e92;" 
d="M539 -254q35 0 59 -24t25 -61q0 -37 -25 -61q-26 -24 -60 -24t-59 25t-25 61t26 60q24 24 59 24zM979 66q0 -38 -12 -52t-52 -14h-745q-64 0 -66 51q0 27 19 53l719 1061h-609v-135q0 -39 -14 -52t-39 -13q-51 0 -51 65v156q0 39 13 52t55 13h706q64 0 66 -51
q0 -27 -19 -53l-719 -1061h643v174q0 38 14 52t45 14q30 0 38 -18t8 -48v-194z" />
    <glyph glyph-name="zdotbelow" unicode="&#x1e93;" 
d="M539 -254q35 0 59 -24t25 -61q0 -37 -25 -61q-26 -24 -60 -24t-59 25t-25 61t26 60q24 24 59 24zM967 66q0 -55 -29 -66h-799q-65 0 -65 51q0 23 6 34t33 36l698 663h-600v-77q0 -66 -53 -66q-35 0 -43 17t-9 49v98q0 39 12 52t54 13h721q65 0 65 -51q0 -19 -6 -31
t-34 -38l-699 -664h643v102q0 66 53 66q35 0 43 -17t9 -49v-122z" />
    <glyph glyph-name="tdieresis" unicode="&#x1e97;" 
d="M659 1310q1 -32 -21 -54t-52 -22t-52 22t-22 54t22 52t52 20t52 -20q21 -20 21 -52zM174 1382q30 0 52 -20t22 -52t-22 -54t-52 -22t-52 22t-22 54t22 52t52 20zM911 246q0 -123 -93 -191q-93 -67 -213 -67q-121 0 -199 63t-78 195v538h-209q-63 0 -64 41q0 45 66 45h207
v195q0 39 13 52t43 13t38 -17t8 -48v-195h369q63 0 63 -43t-63 -43h-369v-526q0 -97 42 -141t142 -43q37 0 75 10t78 53t40 107t51 63q45 0 51 -31q2 -10 2 -30z" />
    <glyph glyph-name="Adotbelow" unicode="&#x1ea0;" 
d="M539 -254q35 0 59 -24t25 -61q0 -37 -25 -61q-26 -24 -60 -24t-59 25t-25 61t26 60q24 24 59 24zM702 436l-157 754h-15l-159 -754h331zM1014 43q0 -43 -72 -43h-215q-68 0 -68 43q0 31 25 37t98 6l-57 264h-377l-57 -264q75 0 99 -6t24 -37q0 -43 -68 -43h-217
q-70 0 -70 43q0 29 25 41q12 2 98 2l260 1126q14 54 51 62q13 2 45 2t45 -2q31 -5 48 -64l260 -1124q84 0 96 -2q27 -10 27 -41z" />
    <glyph glyph-name="adotbelow" unicode="&#x1ea1;" 
d="M539 -254q35 0 59 -24t25 -61q0 -37 -25 -61q-26 -24 -60 -24t-59 25t-25 61t26 60q24 24 59 24zM754 262v201q-250 -7 -390 -67t-141 -146q0 -72 67 -124q66 -52 178 -52t191 39q45 20 67 47t25 46t3 56zM1071 45q0 -19 -14 -31q-15 -12 -29 -13t-54 -1t-71 2t-74 20
t-67 54q-136 -88 -298 -88t-254 78q-91 78 -91 184q0 141 170 216t465 79q0 258 -291 258q-141 0 -141 -47q-2 -40 -26 -58t-52 -18t-48 20q-22 20 -22 56q0 133 287 133q199 0 298 -92t99 -215v-471q66 -25 140 -25t73 -41z" />
    <glyph glyph-name="Ahookabove" unicode="&#x1ea2;" 
d="M522 1749q-36 0 -64 -23t-28 -43q0 -45 -39 -47q-41 0 -41 39q0 66 51 108t130 42t137 -39t57 -110q0 -71 -63 -101q-102 -55 -103 -119v-39q0 -16 -11 -26q-10 -11 -26 -11t-27 10t-12 27v39q0 106 144 186l22 29q0 78 -127 78zM702 436l-157 754h-15l-159 -754h331z
M1014 43q0 -43 -72 -43h-215q-68 0 -68 43q0 31 25 37t98 6l-57 264h-377l-57 -264q75 0 99 -6t24 -37q0 -43 -68 -43h-217q-70 0 -70 43q0 29 25 41q12 2 98 2l260 1126q14 54 51 62q13 2 45 2t45 -2q31 -5 48 -64l260 -1124q84 0 96 -2q27 -10 27 -41z" />
    <glyph glyph-name="ahookabove" unicode="&#x1ea3;" 
d="M430 1235q0 -47 -40 -47t-40 39q0 65 51 107t130 42t137 -38t57 -109q0 -70 -63 -103q-102 -55 -103 -118v-39q0 -13 -11 -25t-26 -12q-37 0 -39 37v39q0 106 144 186l22 29q0 79 -127 77q-36 0 -64 -22t-28 -43zM754 262v201q-250 -7 -390 -67t-141 -146q0 -72 67 -124
q66 -52 178 -52t191 39q45 20 67 47t25 46t3 56zM1071 45q0 -19 -14 -31q-15 -12 -29 -13t-54 -1t-71 2t-74 20t-67 54q-136 -88 -298 -88t-254 78q-91 78 -91 184q0 141 170 216t465 79q0 258 -291 258q-141 0 -141 -47q-2 -40 -26 -58t-52 -18t-48 20q-22 20 -22 56
q0 133 287 133q199 0 298 -92t99 -215v-471q66 -25 140 -25t73 -41z" />
    <glyph glyph-name="Acircumflexacute" unicode="&#x1ea4;" 
d="M739 1758q0 -28 -47 -48l-295 -131l-14 -4q-27 1 -38 23t-11 44t39 39l282 127l31 9q23 1 38 -15t15 -44zM829 1403q0 -45 -49 -45q-14 0 -61 14l-182 62l-183 -62q-47 -14 -61 -14q-49 0 -49 45q0 29 45 45l223 82q27 8 53 0l219 -82q45 -16 45 -45zM702 436l-157 754
h-15l-159 -754h331zM1014 43q0 -43 -72 -43h-215q-68 0 -68 43q0 31 25 37t98 6l-57 264h-377l-57 -264q75 0 99 -6t24 -37q0 -43 -68 -43h-217q-70 0 -70 43q0 29 25 41q12 2 98 2l260 1126q14 54 51 62q13 2 45 2t45 -2q31 -5 48 -64l260 -1124q84 0 96 -2q27 -10 27 -41z
" />
    <glyph glyph-name="acircumflexacute" unicode="&#x1ea5;" 
d="M739 1437q0 -28 -47 -48l-295 -132l-14 -4q-27 0 -38 23q-11 24 -11 44t39 40l282 127l31 8q23 0 38 -15t15 -43zM829 1081q0 -45 -49 -45q-14 0 -61 15l-182 61l-183 -61q-47 -14 -61 -15q-49 0 -49 45q0 29 45 45l223 82q27 8 53 0l219 -82q45 -16 45 -45zM754 262v201
q-250 -7 -390 -67t-141 -146q0 -72 67 -124q66 -52 178 -52t191 39q45 20 67 47t25 46t3 56zM1071 45q0 -19 -14 -31q-15 -12 -29 -13t-54 -1t-71 2t-74 20t-67 54q-136 -88 -298 -88t-254 78q-91 78 -91 184q0 141 170 216t465 79q0 258 -291 258q-141 0 -141 -47
q-2 -40 -26 -58t-52 -18t-48 20q-22 20 -22 56q0 133 287 133q199 0 298 -92t99 -215v-471q66 -25 140 -25t73 -41z" />
    <glyph glyph-name="Acircumflexgrave" unicode="&#x1ea6;" 
d="M739 1642q0 -22 -11 -45t-38 -22l-14 4l-295 131q-47 20 -47 53q0 23 15 38t38 16l31 -9l282 -127q39 -17 39 -39zM829 1403q0 -45 -49 -45q-14 0 -61 14l-182 62l-183 -62q-47 -14 -61 -14q-49 0 -49 45q0 29 45 45l223 82q27 8 53 0l219 -82q45 -16 45 -45zM702 436
l-157 754h-15l-159 -754h331zM1014 43q0 -43 -72 -43h-215q-68 0 -68 43q0 31 25 37t98 6l-57 264h-377l-57 -264q75 0 99 -6t24 -37q0 -43 -68 -43h-217q-70 0 -70 43q0 29 25 41q12 2 98 2l260 1126q14 54 51 62q13 2 45 2t45 -2q31 -5 48 -64l260 -1124q84 0 96 -2
q27 -10 27 -41z" />
    <glyph glyph-name="acircumflexgrave" unicode="&#x1ea7;" 
d="M739 1320q0 -20 -11 -44q-11 -23 -38 -23l-14 4l-295 132q-47 20 -47 53q0 23 15 38t38 15l31 -8l282 -127q39 -20 39 -40zM829 1081q0 -45 -49 -45q-14 0 -61 15l-182 61l-183 -61q-47 -14 -61 -15q-49 0 -49 45q0 29 45 45l223 82q27 8 53 0l219 -82q45 -16 45 -45z
M754 262v201q-250 -7 -390 -67t-141 -146q0 -72 67 -124q66 -52 178 -52t191 39q45 20 67 47t25 46t3 56zM1071 45q0 -19 -14 -31q-15 -12 -29 -13t-54 -1t-71 2t-74 20t-67 54q-136 -88 -298 -88t-254 78q-91 78 -91 184q0 141 170 216t465 79q0 258 -291 258
q-141 0 -141 -47q-2 -40 -26 -58t-52 -18t-48 20q-22 20 -22 56q0 133 287 133q199 0 298 -92t99 -215v-471q66 -25 140 -25t73 -41z" />
    <glyph glyph-name="Acircumflexhookabove" unicode="&#x1ea8;" 
d="M709 1903q-37 0 -65 -23t-28 -43q0 -47 -40 -47t-39 39q0 65 51 107t130 42t136 -38t57 -109q0 -70 -63 -102q-102 -55 -103 -119v-39q0 -13 -10 -25t-26 -12q-39 0 -39 37v39q0 106 143 186l23 29q0 78 -127 78zM829 1403q0 -45 -49 -45q-14 0 -61 14l-182 62l-183 -62
q-47 -14 -61 -14q-49 0 -49 45q0 29 45 45l223 82q27 8 53 0l219 -82q45 -16 45 -45zM702 436l-157 754h-15l-159 -754h331zM1014 43q0 -43 -72 -43h-215q-68 0 -68 43q0 31 25 37t98 6l-57 264h-377l-57 -264q75 0 99 -6t24 -37q0 -43 -68 -43h-217q-70 0 -70 43
q0 29 25 41q12 2 98 2l260 1126q14 54 51 62q13 2 45 2t45 -2q31 -5 48 -64l260 -1124q84 0 96 -2q27 -10 27 -41z" />
    <glyph glyph-name="acircumflexhookabove" unicode="&#x1ea9;" 
d="M616 1516q0 -46 -38 -48q-41 0 -41 39q0 66 51 108t130 42t136 -39t57 -110t-63 -101q-102 -55 -103 -119v-39q0 -35 -36 -37q-15 0 -27 10t-12 27v39q0 106 143 187l23 28q0 80 -127 78q-37 -1 -65 -23t-28 -42zM829 1081q0 -45 -49 -45q-14 0 -61 15l-182 61l-183 -61
q-47 -14 -61 -15q-49 0 -49 45q0 29 45 45l223 82q27 8 53 0l219 -82q45 -16 45 -45zM754 262v201q-250 -7 -390 -67t-141 -146q0 -72 67 -124q66 -52 178 -52t191 39q45 20 67 47t25 46t3 56zM1071 45q0 -19 -14 -31q-15 -12 -29 -13t-54 -1t-71 2t-74 20t-67 54
q-136 -88 -298 -88t-254 78q-91 78 -91 184q0 141 170 216t465 79q0 258 -291 258q-141 0 -141 -47q-2 -40 -26 -58t-52 -18t-48 20q-22 20 -22 56q0 133 287 133q199 0 298 -92t99 -215v-471q66 -25 140 -25t73 -41z" />
    <glyph glyph-name="Acircumflextilde" unicode="&#x1eaa;" 
d="M887 1780q0 -29 -96 -99q-144 -113 -248 -28q-53 49 -73 63t-40 15q-57 0 -162 -99q-20 -16 -36 -16t-31 14q-14 14 -15 31q0 25 94 95t147 71q54 0 103 -37q4 -4 15 -12q76 -66 98 -68q53 0 162 98q37 37 67 4q15 -14 15 -32zM829 1403q0 -45 -49 -45q-14 0 -61 14
l-182 62l-183 -62q-47 -14 -61 -14q-49 0 -49 45q0 29 45 45l223 82q27 8 53 0l219 -82q45 -16 45 -45zM702 436l-157 754h-15l-159 -754h331zM1014 43q0 -43 -72 -43h-215q-68 0 -68 43q0 31 25 37t98 6l-57 264h-377l-57 -264q75 0 99 -6t24 -37q0 -43 -68 -43h-217
q-70 0 -70 43q0 29 25 41q12 2 98 2l260 1126q14 54 51 62q13 2 45 2t45 -2q31 -5 48 -64l260 -1124q84 0 96 -2q27 -10 27 -41z" />
    <glyph glyph-name="acircumflextilde" unicode="&#x1eab;" 
d="M887 1458q0 -29 -96 -98q-83 -66 -143 -66t-105 37q-53 49 -73 63t-40 15q-57 0 -162 -98q-39 -32 -67 -2q-15 15 -15 35t97 96q90 66 144 66t103 -38q4 -4 15 -12q76 -66 98 -67q53 0 162 98q17 18 35 18q18 -1 32 -15t15 -32zM829 1081q0 -45 -49 -45q-14 0 -61 15
l-182 61l-183 -61q-47 -14 -61 -15q-49 0 -49 45q0 29 45 45l223 82q27 8 53 0l219 -82q45 -16 45 -45zM754 262v201q-250 -7 -390 -67t-141 -146q0 -72 67 -124q66 -52 178 -52t191 39q45 20 67 47t25 46t3 56zM1071 45q0 -19 -14 -31q-15 -12 -29 -13t-54 -1t-71 2t-74 20
t-67 54q-136 -88 -298 -88t-254 78q-91 78 -91 184q0 141 170 216t465 79q0 258 -291 258q-141 0 -141 -47q-2 -40 -26 -58t-52 -18t-48 20q-22 20 -22 56q0 133 287 133q199 0 298 -92t99 -215v-471q66 -25 140 -25t73 -41z" />
    <glyph glyph-name="Acircumflexdotbelow" unicode="&#x1eac;" 
d="M539 -254q35 0 59 -24t25 -61q0 -37 -25 -61q-26 -24 -60 -24t-59 25t-25 61t26 60q24 24 59 24zM829 1403q0 -45 -49 -45q-14 0 -61 14l-182 62l-183 -62q-47 -14 -61 -14q-49 0 -49 45q0 29 45 45l223 82q27 8 53 0l219 -82q45 -16 45 -45zM702 436l-157 754h-15
l-159 -754h331zM1014 43q0 -43 -72 -43h-215q-68 0 -68 43q0 31 25 37t98 6l-57 264h-377l-57 -264q75 0 99 -6t24 -37q0 -43 -68 -43h-217q-70 0 -70 43q0 29 25 41q12 2 98 2l260 1126q14 54 51 62q13 2 45 2t45 -2q31 -5 48 -64l260 -1124q84 0 96 -2q27 -10 27 -41z" />
    <glyph glyph-name="acircumflexdotbelow" unicode="&#x1ead;" 
d="M539 -254q35 0 59 -24t25 -61q0 -37 -25 -61q-26 -24 -60 -24t-59 25t-25 61t26 60q24 24 59 24zM831 1081q0 -45 -49 -45q-10 0 -61 31l-182 111l-183 -111q-51 -31 -61 -31q-49 0 -49 45q0 16 45 45l211 136q35 23 69 0l215 -136q45 -29 45 -45zM754 262v201
q-250 -7 -390 -67t-141 -146q0 -72 67 -124q66 -52 178 -52t191 39q45 20 67 47t25 46t3 56zM1071 45q0 -19 -14 -31q-15 -12 -29 -13t-54 -1t-71 2t-74 20t-67 54q-136 -88 -298 -88t-254 78q-91 78 -91 184q0 141 170 216t465 79q0 258 -291 258q-141 0 -141 -47
q-2 -40 -26 -58t-52 -18t-48 20q-22 20 -22 56q0 133 287 133q199 0 298 -92t99 -215v-471q66 -25 140 -25t73 -41z" />
    <glyph glyph-name="Abreveacute" unicode="&#x1eae;" 
d="M741 1799q0 -28 -47 -48l-295 -131l-14 -4q-27 0 -38 22t-11 44t39 40l282 127l31 9q23 0 38 -16t15 -43zM846 1575q45 0 45 -44t-26 -75q-27 -31 -59 -45q-77 -33 -267 -33q-191 0 -269 33q-32 14 -58 45t-26 75t45 44q29 0 37 -23q23 -82 271 -82t270 82q8 23 37 23z
M702 436l-157 754h-15l-159 -754h331zM1014 43q0 -43 -72 -43h-215q-68 0 -68 43q0 31 25 37t98 6l-57 264h-377l-57 -264q75 0 99 -6t24 -37q0 -43 -68 -43h-217q-70 0 -70 43q0 29 25 41q12 2 98 2l260 1126q14 54 51 62q13 2 45 2t45 -2q31 -5 48 -64l260 -1124
q84 0 96 -2q27 -10 27 -41z" />
    <glyph glyph-name="abreveacute" unicode="&#x1eaf;" 
d="M741 1478q0 -28 -47 -48l-295 -132l-14 -4q-27 0 -38 23t-11 43t39 41l282 127l31 8q23 0 38 -15t15 -43zM891 1209q0 -45 -26 -75q-27 -30 -59 -44t-89 -22q-70 -10 -222 -11q-152 0 -225 33q-32 14 -58 45t-26 75t45 43q29 0 37 -22q23 -82 271 -82t270 82q8 23 37 22
q45 0 45 -44zM754 262v201q-250 -7 -390 -67t-141 -146q0 -72 67 -124q66 -52 178 -52t191 39q45 20 67 47t25 46t3 56zM1071 45q0 -19 -14 -31q-15 -12 -29 -13t-54 -1t-71 2t-74 20t-67 54q-136 -88 -298 -88t-254 78q-91 78 -91 184q0 141 170 216t465 79q0 258 -291 258
q-141 0 -141 -47q-2 -40 -26 -58t-52 -18t-48 20q-22 20 -22 56q0 133 287 133q199 0 298 -92t99 -215v-471q66 -25 140 -25t73 -41z" />
    <glyph glyph-name="Abrevegrave" unicode="&#x1eb0;" 
d="M741 1682q0 -22 -11 -44q-11 -23 -38 -22l-14 4l-295 131q-47 20 -47 53q0 23 15 38t38 16l31 -9l282 -127q39 -18 39 -40zM846 1575q45 0 45 -44t-26 -75q-27 -31 -59 -45q-77 -33 -267 -33q-191 0 -269 33q-32 14 -58 45t-26 75t45 44q29 0 37 -23q23 -82 271 -82
t270 82q8 23 37 23zM702 436l-157 754h-15l-159 -754h331zM1014 43q0 -43 -72 -43h-215q-68 0 -68 43q0 31 25 37t98 6l-57 264h-377l-57 -264q75 0 99 -6t24 -37q0 -43 -68 -43h-217q-70 0 -70 43q0 29 25 41q12 2 98 2l260 1126q14 54 51 62q13 2 45 2t45 -2q31 -5 48 -64
l260 -1124q84 0 96 -2q27 -10 27 -41z" />
    <glyph glyph-name="abrevegrave" unicode="&#x1eb1;" 
d="M741 1360q0 -20 -11 -43t-38 -23l-14 4l-295 132q-47 20 -47 53q0 23 15 38t38 15l31 -8l282 -127q39 -21 39 -41zM891 1209q0 -45 -26 -75q-27 -30 -59 -44t-89 -22q-70 -10 -222 -11q-152 0 -225 33q-32 14 -58 45t-26 75t45 43q29 0 37 -22q23 -82 271 -82t270 82
q8 23 37 22q45 0 45 -44zM754 262v201q-250 -7 -390 -67t-141 -146q0 -72 67 -124q66 -52 178 -52t191 39q45 20 67 47t25 46t3 56zM1071 45q0 -19 -14 -31q-15 -12 -29 -13t-54 -1t-71 2t-74 20t-67 54q-136 -88 -298 -88t-254 78q-91 78 -91 184q0 141 170 216t465 79
q0 258 -291 258q-141 0 -141 -47q-2 -40 -26 -58t-52 -18t-48 20q-22 20 -22 56q0 133 287 133q199 0 298 -92t99 -215v-471q66 -25 140 -25t73 -41z" />
    <glyph glyph-name="Abrevehookabove" unicode="&#x1eb2;" 
d="M524 1944q-36 0 -64 -23t-28 -43q0 -47 -40 -47t-40 39q0 66 51 108t130 41q79 0 133 -34q61 -43 61 -113t-63 -103q-102 -55 -103 -118v-39q0 -14 -10 -26t-27 -11q-37 0 -39 37v39q0 106 144 186l22 29q0 78 -127 78zM846 1575q45 0 45 -44t-26 -75q-27 -31 -59 -45
q-77 -33 -267 -33q-191 0 -269 33q-32 14 -58 45t-26 75t45 44q29 0 37 -23q23 -82 271 -82t270 82q8 23 37 23zM702 436l-157 754h-15l-159 -754h331zM1014 43q0 -43 -72 -43h-215q-68 0 -68 43q0 31 25 37t98 6l-57 264h-377l-57 -264q75 0 99 -6t24 -37q0 -43 -68 -43
h-217q-70 0 -70 43q0 29 25 41q12 2 98 2l260 1126q14 54 51 62q13 2 45 2t45 -2q31 -5 48 -64l260 -1124q84 0 96 -2q27 -10 27 -41z" />
    <glyph glyph-name="abrevehookabove" unicode="&#x1eb3;" 
d="M524 1622q-36 0 -64 -23t-28 -43q0 -45 -39 -47q-41 0 -41 39q0 66 51 108t130 42t137 -39t57 -110q0 -71 -63 -101q-102 -55 -103 -119v-39q0 -35 -37 -37q-16 1 -27 11t-12 26v39q0 106 144 187l22 28q0 78 -127 78zM891 1209q0 -45 -26 -75q-27 -30 -59 -44t-89 -22
q-70 -10 -222 -11q-152 0 -225 33q-32 14 -58 45t-26 75t45 43q29 0 37 -22q23 -82 271 -82t270 82q8 23 37 22q45 0 45 -44zM754 262v201q-250 -7 -390 -67t-141 -146q0 -72 67 -124q66 -52 178 -52t191 39q45 20 67 47t25 46t3 56zM1071 45q0 -19 -14 -31q-15 -12 -29 -13
t-54 -1t-71 2t-74 20t-67 54q-136 -88 -298 -88t-254 78q-91 78 -91 184q0 141 170 216t465 79q0 258 -291 258q-141 0 -141 -47q-2 -40 -26 -58t-52 -18t-48 20q-22 20 -22 56q0 133 287 133q199 0 298 -92t99 -215v-471q66 -25 140 -25t73 -41z" />
    <glyph glyph-name="Abrevetilde" unicode="&#x1eb4;" 
d="M889 1821q0 -29 -96 -99q-144 -113 -248 -28q-53 49 -73 63t-40 15q-57 0 -162 -99q-20 -16 -36 -16t-31 14q-14 14 -15 31q0 26 94 96t147 70q54 0 103 -37q4 -4 15 -12q76 -66 98 -68q53 0 162 98q37 37 67 4q15 -14 15 -32zM846 1575q45 0 45 -44t-26 -75
q-27 -31 -59 -45q-77 -33 -267 -33q-191 0 -269 33q-32 14 -58 45t-26 75t45 44q29 0 37 -23q23 -82 271 -82t270 82q8 23 37 23zM702 436l-157 754h-15l-159 -754h331zM1014 43q0 -43 -72 -43h-215q-68 0 -68 43q0 31 25 37t98 6l-57 264h-377l-57 -264q75 0 99 -6t24 -37
q0 -43 -68 -43h-217q-70 0 -70 43q0 29 25 41q12 2 98 2l260 1126q14 54 51 62q13 2 45 2t45 -2q31 -5 48 -64l260 -1124q84 0 96 -2q27 -10 27 -41z" />
    <glyph glyph-name="abrevetilde" unicode="&#x1eb5;" 
d="M889 1499q0 -29 -96 -98q-83 -66 -143 -66t-105 37q-53 50 -73 64t-40 14q-57 0 -162 -98q-39 -32 -67 -2q-15 14 -15 34t97 97q90 65 144 65t103 -37q4 -4 15 -12q76 -66 98 -67q53 0 162 98q17 18 35 18t32 -14t15 -33zM891 1209q0 -45 -26 -75q-27 -30 -59 -44
t-89 -22q-70 -10 -222 -11q-152 0 -225 33q-32 14 -58 45t-26 75t45 43q29 0 37 -22q23 -82 271 -82t270 82q8 23 37 22q45 0 45 -44zM754 262v201q-250 -7 -390 -67t-141 -146q0 -72 67 -124q66 -52 178 -52t191 39q45 20 67 47t25 46t3 56zM1071 45q0 -19 -14 -31
q-15 -12 -29 -13t-54 -1t-71 2t-74 20t-67 54q-136 -88 -298 -88t-254 78q-91 78 -91 184q0 141 170 216t465 79q0 258 -291 258q-141 0 -141 -47q-2 -40 -26 -58t-52 -18t-48 20q-22 20 -22 56q0 133 287 133q199 0 298 -92t99 -215v-471q66 -25 140 -25t73 -41z" />
    <glyph glyph-name="Abrevedotbelow" unicode="&#x1eb6;" 
d="M539 -254q35 0 59 -24t25 -61q0 -37 -25 -61q-26 -24 -60 -24t-59 25t-25 61t26 60q24 24 59 24zM846 1575q45 0 45 -44t-26 -75q-27 -31 -59 -45q-77 -33 -267 -33q-191 0 -269 33q-32 14 -58 45t-26 75t45 44q29 0 37 -23q23 -82 271 -82t270 82q8 23 37 23zM702 436
l-157 754h-15l-159 -754h331zM1014 43q0 -43 -72 -43h-215q-68 0 -68 43q0 31 25 37t98 6l-57 264h-377l-57 -264q75 0 99 -6t24 -37q0 -43 -68 -43h-217q-70 0 -70 43q0 29 25 41q12 2 98 2l260 1126q14 54 51 62q13 2 45 2t45 -2q31 -5 48 -64l260 -1124q84 0 96 -2
q27 -10 27 -41z" />
    <glyph glyph-name="abrevedotbelow" unicode="&#x1eb7;" 
d="M539 -254q35 0 59 -24t25 -61q0 -37 -25 -61q-26 -24 -60 -24t-59 25t-25 61t26 60q24 24 59 24zM891 1209q0 -45 -26 -75q-27 -30 -59 -44t-89 -22q-70 -10 -222 -11q-152 0 -225 33q-32 14 -58 45t-26 75t45 43q29 0 37 -22q23 -82 271 -82t270 82q8 23 37 22
q45 0 45 -44zM754 262v201q-250 -7 -390 -67t-141 -146q0 -72 67 -124q66 -52 178 -52t191 39q45 20 67 47t25 46t3 56zM1071 45q0 -19 -14 -31q-15 -12 -29 -13t-54 -1t-71 2t-74 20t-67 54q-136 -88 -298 -88t-254 78q-91 78 -91 184q0 141 170 216t465 79q0 258 -291 258
q-141 0 -141 -47q-2 -40 -26 -58t-52 -18t-48 20q-22 20 -22 56q0 133 287 133q199 0 298 -92t99 -215v-471q66 -25 140 -25t73 -41z" />
    <glyph glyph-name="Edotbelow" unicode="&#x1eb8;" 
d="M539 -254q35 0 59 -24t25 -61q0 -37 -25 -61q-26 -24 -60 -24t-59 25t-25 61t26 60q24 24 59 24zM1024 66q0 -38 -12 -52t-51 -14h-838q-66 0 -66 43t66 43h86v1079h-86q-66 0 -66 43t66 43h790q39 0 51 -13t13 -52v-156q0 -39 -14 -52t-44 -13t-38 17t-9 48v135h-561
v-473h322q0 54 2 74t13 34t36 13q51 0 51 -65v-197q0 -39 -13 -52t-43 -13t-38 22q-8 23 -8 98h-322v-520h609v168q0 39 14 52t44 13t38 -16t8 -49v-188z" />
    <glyph glyph-name="edotbelow" unicode="&#x1eb9;" 
d="M539 -254q35 0 59 -24t25 -61q0 -37 -25 -61q-26 -24 -60 -24t-59 25t-25 61t26 60q24 24 59 24zM553 803q-119 0 -210 -86t-118 -228h613q-10 121 -58 195t-104 96q-55 22 -123 23zM119 438q0 186 127 318t311 133q185 0 285 -123t100 -305q0 -49 -31 -55q-10 -2 -32 -3
h-656q29 -157 137 -243t240 -86q178 0 246 151q8 23 52 23t44 -45t-80 -123q-38 -39 -112 -66t-164 -26q-197 0 -332 132t-135 318z" />
    <glyph glyph-name="Ehookabove" unicode="&#x1eba;" 
d="M522 1749q-36 0 -64 -23t-28 -43q0 -45 -39 -47q-41 0 -41 39q0 66 51 108t130 42t137 -39t57 -110q0 -71 -63 -101q-102 -55 -103 -119v-39q0 -16 -11 -26q-10 -11 -26 -11t-27 10t-12 27v39q0 106 144 186l22 29q0 78 -127 78zM1024 66q0 -38 -12 -52t-51 -14h-838
q-66 0 -66 43t66 43h86v1079h-86q-66 0 -66 43t66 43h790q39 0 51 -13t13 -52v-156q0 -39 -14 -52t-44 -13t-38 17t-9 48v135h-561v-473h322q0 54 2 74t13 34t36 13q51 0 51 -65v-197q0 -39 -13 -52t-43 -13t-38 22q-8 23 -8 98h-322v-520h609v168q0 39 14 52t44 13t38 -16
t8 -49v-188z" />
    <glyph glyph-name="ehookabove" unicode="&#x1ebb;" 
d="M430 1235q0 -47 -40 -47t-40 39q0 65 51 107t130 42t137 -38t57 -109q0 -70 -63 -103q-102 -55 -103 -118v-39q0 -13 -11 -25t-26 -12q-37 0 -39 37v39q0 106 144 186l22 29q0 79 -127 77q-36 0 -64 -22t-28 -43zM553 803q-119 0 -210 -86t-118 -228h613q-10 121 -58 195
t-104 96q-55 22 -123 23zM119 438q0 186 127 318t311 133q185 0 285 -123t100 -305q0 -49 -31 -55q-10 -2 -32 -3h-656q29 -157 137 -243t240 -86q178 0 246 151q8 23 52 23t44 -45t-80 -123q-38 -39 -112 -66t-164 -26q-197 0 -332 132t-135 318z" />
    <glyph glyph-name="Etilde" unicode="&#x1ebc;" 
d="M889 1522q0 -29 -96 -99q-144 -113 -248 -28q-53 49 -73 63t-40 15q-57 0 -162 -99q-20 -16 -36 -16t-31 14q-14 14 -15 31q0 25 94 95t147 71q54 0 103 -37q4 -4 15 -12q76 -66 98 -68q53 0 162 98q37 37 67 4q15 -14 15 -32zM1024 66q0 -38 -12 -52t-51 -14h-838
q-66 0 -66 43t66 43h86v1079h-86q-66 0 -66 43t66 43h790q39 0 51 -13t13 -52v-156q0 -39 -14 -52t-44 -13t-38 17t-9 48v135h-561v-473h322q0 54 2 74t13 34t36 13q51 0 51 -65v-197q0 -39 -13 -52t-43 -13t-38 22q-8 23 -8 98h-322v-520h609v168q0 39 14 52t44 13t38 -16
t8 -49v-188z" />
    <glyph glyph-name="etilde" unicode="&#x1ebd;" 
d="M889 1212q0 -28 -93 -96q-94 -68 -150 -68t-101 37q-3 3 -47 41t-66 39q-55 0 -162 -100q-20 -16 -36 -16t-31 14q-14 14 -15 31q0 26 94 96t147 70q54 0 103 -37q4 -3 48 -41t65 -39q53 0 162 98q37 37 67 4q15 -15 15 -33zM553 803q-119 0 -210 -86t-118 -228h613
q-10 121 -58 195t-104 96q-55 22 -123 23zM119 438q0 186 127 318t311 133q185 0 285 -123t100 -305q0 -49 -31 -55q-10 -2 -32 -3h-656q29 -157 137 -243t240 -86q178 0 246 151q8 23 52 23t44 -45t-80 -123q-38 -39 -112 -66t-164 -26q-197 0 -332 132t-135 318z" />
    <glyph glyph-name="Ecircumflexacute" unicode="&#x1ebe;" 
d="M739 1758q0 -28 -47 -48l-295 -131l-14 -4q-27 1 -38 23t-11 44t39 39l282 127l31 9q23 1 38 -15t15 -44zM829 1403q0 -45 -49 -45q-14 0 -61 14l-182 62l-183 -62q-47 -14 -61 -14q-49 0 -49 45q0 29 45 45l223 82q27 8 53 0l219 -82q45 -16 45 -45zM1024 66
q0 -38 -12 -52t-51 -14h-838q-66 0 -66 43t66 43h86v1079h-86q-66 0 -66 43t66 43h790q39 0 51 -13t13 -52v-156q0 -39 -14 -52t-44 -13t-38 17t-9 48v135h-561v-473h322q0 54 2 74t13 34t36 13q51 0 51 -65v-197q0 -39 -13 -52t-43 -13t-38 22q-8 23 -8 98h-322v-520h609
v168q0 39 14 52t44 13t38 -16t8 -49v-188z" />
    <glyph glyph-name="ecircumflexacute" unicode="&#x1ebf;" 
d="M739 1437q0 -28 -47 -48l-295 -132l-14 -4q-27 0 -38 23q-11 24 -11 44t39 40l282 127l31 8q23 0 38 -15t15 -43zM829 1081q0 -45 -49 -45q-14 0 -61 15l-182 61l-183 -61q-47 -14 -61 -15q-49 0 -49 45q0 29 45 45l223 82q27 8 53 0l219 -82q45 -16 45 -45zM553 803
q-119 0 -210 -86t-118 -228h613q-10 121 -58 195t-104 96q-55 22 -123 23zM119 438q0 186 127 318t311 133q185 0 285 -123t100 -305q0 -49 -31 -55q-10 -2 -32 -3h-656q29 -157 137 -243t240 -86q178 0 246 151q8 23 52 23t44 -45t-80 -123q-38 -39 -112 -66t-164 -26
q-197 0 -332 132t-135 318z" />
    <glyph glyph-name="Ecircumflexgrave" unicode="&#x1ec0;" 
d="M739 1642q0 -22 -11 -45t-38 -22l-14 4l-295 131q-47 20 -47 53q0 23 15 38t38 16l31 -9l282 -127q39 -17 39 -39zM829 1403q0 -45 -49 -45q-14 0 -61 14l-182 62l-183 -62q-47 -14 -61 -14q-49 0 -49 45q0 29 45 45l223 82q27 8 53 0l219 -82q45 -16 45 -45zM1024 66
q0 -38 -12 -52t-51 -14h-838q-66 0 -66 43t66 43h86v1079h-86q-66 0 -66 43t66 43h790q39 0 51 -13t13 -52v-156q0 -39 -14 -52t-44 -13t-38 17t-9 48v135h-561v-473h322q0 54 2 74t13 34t36 13q51 0 51 -65v-197q0 -39 -13 -52t-43 -13t-38 22q-8 23 -8 98h-322v-520h609
v168q0 39 14 52t44 13t38 -16t8 -49v-188z" />
    <glyph glyph-name="ecircumflexgrave" unicode="&#x1ec1;" 
d="M739 1320q0 -20 -11 -44q-11 -23 -38 -23l-14 4l-295 132q-47 20 -47 53q0 23 15 38t38 15l31 -8l282 -127q39 -20 39 -40zM829 1081q0 -45 -49 -45q-14 0 -61 15l-182 61l-183 -61q-47 -14 -61 -15q-49 0 -49 45q0 29 45 45l223 82q27 8 53 0l219 -82q45 -16 45 -45z
M553 803q-119 0 -210 -86t-118 -228h613q-10 121 -58 195t-104 96q-55 22 -123 23zM119 438q0 186 127 318t311 133q185 0 285 -123t100 -305q0 -49 -31 -55q-10 -2 -32 -3h-656q29 -157 137 -243t240 -86q178 0 246 151q8 23 52 23t44 -45t-80 -123q-38 -39 -112 -66
t-164 -26q-197 0 -332 132t-135 318z" />
    <glyph glyph-name="Ecircumflexhookabove" unicode="&#x1ec2;" 
d="M709 1903q-37 0 -65 -23t-28 -43q0 -47 -40 -47t-39 39q0 65 51 107t130 42t136 -38t57 -109q0 -70 -63 -102q-102 -55 -103 -119v-39q0 -13 -10 -25t-26 -12q-39 0 -39 37v39q0 106 143 186l23 29q0 78 -127 78zM829 1403q0 -45 -49 -45q-14 0 -61 14l-182 62l-183 -62
q-47 -14 -61 -14q-49 0 -49 45q0 29 45 45l223 82q27 8 53 0l219 -82q45 -16 45 -45zM1024 66q0 -38 -12 -52t-51 -14h-838q-66 0 -66 43t66 43h86v1079h-86q-66 0 -66 43t66 43h790q39 0 51 -13t13 -52v-156q0 -39 -14 -52t-44 -13t-38 17t-9 48v135h-561v-473h322
q0 54 2 74t13 34t36 13q51 0 51 -65v-197q0 -39 -13 -52t-43 -13t-38 22q-8 23 -8 98h-322v-520h609v168q0 39 14 52t44 13t38 -16t8 -49v-188z" />
    </font>
</defs>
</svg>
